<?xml version="1.0" encoding="UTF-8"?> <svg xmlns="http://www.w3.org/2000/svg" height="512px" viewBox="0 0 480 480" width="512px" class=""> <g> <path d="m296 224h144c4.417969 0 8-3.582031 8-8v-160c0-4.417969-3.582031-8-8-8h-47.839844l-.320312-1.601562c-.761719-3.722657-4.039063-6.398438-7.839844-6.398438h-8v-40h-16v40h-8c-3.800781 0-7.078125 2.675781-7.839844 6.398438l-.320312 1.601562h-47.839844c-4.417969 0-8 3.582031-8 8v160c0 4.417969 3.582031 8 8 8zm62.550781-168h18.898438l4.796875 24h-28.484375zm-54.550781 8h36.640625l-4.480469 22.398438c-.480468 2.355468.121094 4.800781 1.640625 6.660156 1.519531 1.863281 3.796875 2.941406 6.199219 2.941406h48c2.402344 0 4.679688-1.078125 6.199219-2.941406 1.519531-1.859375 2.121093-4.304688 1.640625-6.660156l-4.480469-22.398438h36.640625v144h-128zm0 0" data-original="#000000" class="active-path" data-old_color="#03abff" fill="#03abff"></path> <path d="m472 240h-232v-23.34375l7.886719-47.34375c.011719-.207031.011719-.410156 0-.617188.050781-.230468.089843-.460937.113281-.695312v-32c0-4.417969-3.582031-8-8-8h-144c-4.417969 0-8 3.582031-8 8v32c.035156.234375.082031.464844.144531.695312-.011719.207032-.011719.410157 0 .617188l7.855469 47.34375v23.34375h-16v-16c-.003906-.859375-.140625-1.714844-.414062-2.527344l-8-24c-.761719-2.242187-2.480469-4.027344-4.691407-4.871094l4.691407-14.074218c.273437-.8125.410156-1.667969.414062-2.527344v-24c0-4.417969-3.582031-8-8-8h-32c-4.417969 0-8 3.582031-8 8v24c.003906.859375.140625 1.714844.414062 2.527344l4.691407 14.074218c-2.210938.84375-3.929688 2.628907-4.691407 4.871094l-8 24c-.273437.8125-.410156 1.667969-.414062 2.527344v16h-8c-4.417969 0-8 3.582031-8 8v32c0 4.417969 3.582031 8 8 8h8v184c0 4.417969 3.582031 8 8 8h432c4.417969 0 8-3.582031 8-8v-184h8c4.417969 0 8-3.582031 8-8v-32c0-4.417969-3.582031-8-8-8zm-366.550781-64h125.101562l-5.328125 32h-114.445312zm-1.449219-32h128v16h-128zm8 80h112v16h-112zm-72-64h16v14.703125l-5.769531 17.296875h-4.460938l-5.769531-17.296875zm-8 65.296875 5.769531-17.296875h20.460938l5.769531 17.296875v14.703125h-32zm224 238.703125v-16h32v16zm-16-120v-16c0-4.417969 3.582031-8 8-8h48c4.417969 0 8 3.582031 8 8v16zm48 16v16h-32v-16zm0 32v40h-32v-40zm80 72v-16h32v16zm-16-120v-16c0-4.417969 3.582031-8 8-8h48c4.417969 0 8 3.582031 8 8v16zm48 16v16h-32v-16zm0 32v40h-32v-40zm48 72h-32v-104h8c4.417969 0 8-3.582031 8-8v-24c0-13.253906-10.746094-24-24-24h-48c-13.253906 0-24 10.746094-24 24v24c0 4.417969 3.582031 8 8 8h8v104h-48v-104h8c4.417969 0 8-3.582031 8-8v-24c0-13.253906-10.746094-24-24-24h-48c-13.253906 0-24 10.746094-24 24v24c0 4.417969 3.582031 8 8 8h8v104h-208v-176h416zm16-192h-448v-16h448zm0 0" data-original="#000000" class="active-path" data-old_color="#03abff" fill="#03abff"></path> <path d="m88 96h48c2.402344 0 4.679688-1.078125 6.199219-2.941406 1.519531-1.859375 2.121093-4.304688 1.640625-6.660156l-8-40c-.761719-3.722657-4.039063-6.398438-7.839844-6.398438h-8v-40h-16v40h-8c-3.800781 0-7.078125 2.675781-7.839844 6.398438l-8 40c-.480468 2.355468.121094 4.800781 1.640625 6.660156 1.519531 1.863281 3.796875 2.941406 6.199219 2.941406zm14.550781-40h18.898438l4.796875 24h-28.484375zm0 0" data-original="#000000" class="active-path" data-old_color="#03abff" fill="#03abff"></path> <path d="m216 96h48c2.402344 0 4.679688-1.078125 6.199219-2.941406 1.519531-1.859375 2.121093-4.304688 1.640625-6.660156l-8-40c-.761719-3.722657-4.039063-6.398438-7.839844-6.398438h-8v-40h-16v40h-8c-3.800781 0-7.078125 2.675781-7.839844 6.398438l-8 40c-.480468 2.355468.121094 4.800781 1.640625 6.660156 1.519531 1.863281 3.796875 2.941406 6.199219 2.941406zm14.550781-40h18.898438l4.796875 24h-28.484375zm0 0" data-original="#000000" class="active-path" data-old_color="#03abff" fill="#03abff"></path> <path d="m320 112h64v16h-64zm0 0" data-original="#000000" class="active-path" data-old_color="#03abff" fill="#03abff"></path> <path d="m400 112h16v16h-16zm0 0" data-original="#000000" class="active-path" data-old_color="#03abff" fill="#03abff"></path> <path d="m320 144h64v16h-64zm0 0" data-original="#000000" class="active-path" data-old_color="#03abff" fill="#03abff"></path> <path d="m400 144h16v16h-16zm0 0" data-original="#000000" class="active-path" data-old_color="#03abff" fill="#03abff"></path> <path d="m320 176h64v16h-64zm0 0" data-original="#000000" class="active-path" data-old_color="#03abff" fill="#03abff"></path> <path d="m400 176h16v16h-16zm0 0" data-original="#000000" class="active-path" data-old_color="#03abff" fill="#03abff"></path> </g> </svg> 