<?xml version="1.0" encoding="UTF-8"?> <svg xmlns="http://www.w3.org/2000/svg" height="512px" viewBox="0 0 512 512" width="512px" class=""> <g> <path d="m486.398438 452.265625v-214.527344c-.027344-2.007812-.773438-3.941406-2.101563-5.445312 6.847656-8.09375 10.613281-18.34375 10.636719-28.945313v-41.214844c-.015625-14.132812-11.46875-25.582031-25.601563-25.597656h-109.730469c2.746094-3.585937 4.914063-7.574218 6.417969-11.832031 1.769531-5.046875.953125-10.640625-2.191406-14.96875-3.28125-4.601563-8.585937-7.335937-14.242187-7.335937h-17.003907c5.644531-7.34375 8.71875-16.335938 8.75-25.597657h8.535157c14.132812-.015625 25.582031-11.46875 25.597656-25.601562v-17.066407c-.015625-14.132812-11.464844-25.582031-25.597656-25.597656h-10.90625c-3.023438-5.265625-8.625-8.5156248-14.695313-8.535156h-85.332031c-9.421875.0078125-17.058594 7.644531-17.066406 17.066406v59.734375c.03125 9.261719 3.105468 18.253907 8.75 25.597657h-17.003907c-5.648437.003906-10.945312 2.730468-14.230469 7.324218-3.144531 4.320313-3.972656 9.910156-2.21875 14.960938 1.476563 4.261718 3.621094 8.265625 6.359376 11.851562h-109.65625c-14.132813.015625-25.585938 11.464844-25.601563 25.597656v41.214844c.003906 13.738282 6.289063 26.714844 17.066406 35.230469v34.488281h-42.664062c-9.421875.007813-17.058594 7.644532-17.066407 17.066406v17.066407c-9.421874.011719-17.058593 7.644531-17.066406 17.066406v17.066406c.007813 9.421875 7.644532 17.058594 17.066406 17.066407h1.210938l14.441406 93.867187h-15.652344c-14.132812.015625-25.585937 11.46875-25.601562 25.601563v17.066406c.0078125 9.421875 7.644531 17.058594 17.066406 17.066406h477.867188c9.421875-.007812 17.058594-7.644531 17.066406-17.066406v-17.066406c-.015625-14.132813-11.46875-25.585938-25.601562-25.601563zm-145.066407-426.664063h8.535157c4.710937.003907 8.527343 3.820313 8.53125 8.53125v17.066407c-.003907 4.710937-3.820313 8.527343-8.53125 8.535156h-8.535157zm-102.398437-8.535156h85.332031v59.734375c-.015625 14.132813-11.46875 25.582031-25.597656 25.597657h-34.132813c-14.132812-.015626-25.585937-11.464844-25.601562-25.597657zm25.601562 102.398438h85.050782l.3125-.363282c-1.296876 3.707032-3.417969 7.070313-6.203126 9.84375-5.011718 4.871094-11.726562 7.59375-18.714843 7.589844h-86.742188c-11.019531.175782-20.925781-6.6875-24.625-17.070312zm-179.203125 42.667968c.007813-4.710937 3.824219-8.527343 8.535157-8.53125h375.464843c4.710938.003907 8.527344 3.820313 8.535157 8.53125v41.214844c.292968 13.542969-9.640626 25.140625-23.066407 26.933594-7.21875.761719-14.414062-1.621094-19.753906-6.53125-5.332031-4.859375-8.375-11.738281-8.378906-18.949219v-8.535156c0-4.710937-3.820313-8.53125-8.535157-8.53125-4.710937 0-8.53125 3.820313-8.53125 8.53125v8.535156c0 14.136719-11.464843 25.597657-25.601562 25.597657s-25.601562-11.460938-25.601562-25.597657v-8.535156c0-4.710937-3.820313-8.53125-8.53125-8.53125-4.714844 0-8.535157 3.820313-8.535157 8.53125v8.535156c0 14.136719-11.460937 25.597657-25.597656 25.597657-14.140625 0-25.601563-11.460938-25.601563-25.597657v-8.535156c0-4.710937-3.820312-8.53125-8.53125-8.53125-4.714843 0-8.535156 3.820313-8.535156 8.53125v8.535156c0 14.136719-11.460937 25.597657-25.601562 25.597657-14.136719 0-25.597656-11.460938-25.597656-25.597657v-8.535156c0-4.710937-3.820313-8.53125-8.535157-8.53125-4.710937 0-8.53125 3.820313-8.53125 8.53125v8.535156c0 14.136719-11.460937 25.597657-25.601562 25.597657-14.136719 0-25.597657-11.460938-25.597657-25.597657v-8.535156c0-4.710937-3.820312-8.53125-8.535156-8.53125-4.710937 0-8.53125 3.820313-8.53125 8.53125v8.535156c-.007812 7.210938-3.050781 14.085938-8.378906 18.941407-5.347656 4.90625-12.539062 7.285156-19.757812 6.535156-13.421876-1.792969-23.355469-13.386719-23.066407-26.929688zm349.867188 102.402344h-102.398438c-9.421875.007813-17.058593 7.644532-17.066406 17.066406v170.664063h-169.253906l14.4375-93.867187h1.214843c9.421876-.007813 17.058594-7.644532 17.066407-17.066407v-17.066406c-.007813-9.421875-7.644531-17.054687-17.066407-17.066406v-17.066407c-.007812-9.421874-7.644531-17.058593-17.066406-17.066406h-42.667968v-26.664062c1.449218.375 2.914062.664062 4.394531.867187 14.835937 1.460938 29.355469-4.945312 38.28125-16.886719 8.050781 10.753907 20.699219 17.085938 34.132812 17.085938 13.433594-.003906 26.078125-6.335938 34.125-17.09375 8.050781 10.757812 20.699219 17.089844 34.132813 17.089844 13.4375 0 26.085937-6.332032 34.136718-17.089844 8.046876 10.757812 20.695313 17.089844 34.132813 17.089844 13.433594 0 26.082031-6.332032 34.132813-17.089844 8.046874 10.757812 20.691406 17.089844 34.125 17.09375 13.433593 0 26.082031-6.332031 34.132812-17.085938 8.925781 11.941407 23.445312 18.347657 38.285156 16.886719 4.480469-.476562 8.851563-1.710937 12.921875-3.644531v208.640625h-17.066406v-170.664063c-.007813-9.421874-7.644531-17.058593-17.066406-17.066406zm0 17.066406v170.664063h-102.398438v-170.664063zm-392.53125 8.53125h102.398437v17.066407h-102.398437zm-17.066407 51.199219v-17.066406h136.53125l.011719 17.066406zm118.054688 17.066407-14.441406 93.867187h-70.695313l-14.441406-93.867187zm-126.589844 136.535156v-17.066406c.007813-4.710938 3.824219-8.527344 8.535156-8.535157h460.796876c4.710937.007813 8.527343 3.824219 8.535156 8.535157l.011718 17.066406zm0 0" data-original="#000000" class="active-path" data-old_color="#03abff" fill="#03abff"></path> <path d="m366.933594 375.464844h34.132812c9.421875-.007813 17.058594-7.644532 17.066406-17.066406v-42.664063c-.007812-9.421875-7.644531-17.058594-17.066406-17.066406h-34.132812c-9.421875.007812-17.058594 7.644531-17.066406 17.066406v42.664063c.007812 9.421874 7.644531 17.058593 17.066406 17.066406zm0-59.730469h34.132812v42.664063l-34.132812.015624zm0 0" data-original="#000000" class="active-path" data-old_color="#03abff" fill="#03abff"></path> <path d="m358.398438 409.601562h8.535156c4.710937 0 8.53125-3.820312 8.53125-8.535156 0-4.710937-3.820313-8.53125-8.53125-8.53125h-8.535156c-4.710938 0-8.53125 3.820313-8.53125 8.53125 0 4.714844 3.820312 8.535156 8.53125 8.535156zm0 0" data-original="#000000" class="active-path" data-old_color="#03abff" fill="#03abff"></path> <path d="m293.691406 269.507812c-.09375-.09375-.226562-.125-.324218-.214843-3.160157-3.046875-7.378907-4.753907-11.765626-4.757813h-68.269531c-9.421875.007813-17.054687 7.644532-17.066406 17.066406v102.398438c.011719 9.421875 7.644531 17.058594 17.066406 17.066406h68.269531c9.421876-.007812 17.054688-7.644531 17.066407-17.066406v-102.398438c-.007813-4.390624-1.710938-8.609374-4.761719-11.769531-.089844-.097656-.117188-.226562-.214844-.324219zm-80.359375 12.09375h56.199219l-56.199219 56.199219zm0 102.398438v-22.066406l68.269531-68.265625.003907 35.59375-23.105469 23.105469c-2.21875 2.140624-3.109375 5.316406-2.328125 8.296874.78125 2.984376 3.113281 5.316407 6.097656 6.097657 2.980469.777343 6.15625-.109375 8.296875-2.328125l11.042969-11.042969.003906 30.609375zm0 0" data-original="#000000" class="active-path" data-old_color="#03abff" fill="#03abff"></path> </g> </svg> 