<?xml version="1.0" encoding="UTF-8"?>
<!DOCTYPE svg PUBLIC "-//W3C//DTD SVG 1.1//EN" "http://www.w3.org/Graphics/SVG/1.1/DTD/svg11.dtd">
<!-- Creator: CorelDRAW 2017 -->
<svg xmlns="http://www.w3.org/2000/svg" xml:space="preserve" width="148mm" height="105mm" version="1.1" style="shape-rendering:geometricPrecision; text-rendering:geometricPrecision; image-rendering:optimizeQuality; fill-rule:evenodd; clip-rule:evenodd"
viewBox="0 0 14800 10500"
 xmlns:xlink="http://www.w3.org/1999/xlink">
 <defs>
  <style type="text/css">
   <![CDATA[
    .fil0 {fill:#FEFEFE;fill-rule:nonzero}
    .fil3 {fill:#FEFEFE;fill-rule:nonzero}
    .fil1 {fill:#EBECEC;fill-rule:nonzero}
    .fil2 {fill:#00A0E3;fill-rule:nonzero}
   ]]>
  </style>
     <mask id="id0">
  <linearGradient id="id1" gradientUnits="userSpaceOnUse" x1="9255" y1="2447" x2="9261" y2="2458">
   <stop offset="0" style="stop-opacity:1; stop-color:white"/>
   <stop offset="0.419608" style="stop-opacity:-64.2549; stop-color:white"/>
   <stop offset="1" style="stop-opacity:0; stop-color:white"/>
  </linearGradient>
      <rect style="fill:url(#id1)" x="9242" y="2445" width="32" height="14"/>
     </mask>
 </defs>
 <g id="Слой_x0020_1">
  <metadata id="CorelCorpID_0Corel-Layer"/>
  <g id="_2235298612288">
   <g>
    <path class="fil0" d="M4473 4124c-1,32 -1,63 0,94 55,127 133,263 231,403 316,453 837,952 1417,1352 169,116 343,224 518,320 448,246 835,375 1118,391l18 -2c58,-7 131,-21 193,-33 -1199,54 -3164,-1645 -3495,-2526zm176 427l0 0c7,7 13,15 18,21l13 16c-9,-12 -20,-25 -31,-37zm31 38l0 0 5 7 7 10c-4,-5 -8,-11 -12,-16zm1334 1318l0 0c23,12 49,29 74,45 -23,-14 -45,-27 -66,-39 -6,-4 -12,-8 -18,-12 3,2 6,3 10,5z"/>
    <path class="fil0" d="M6639 6293c-175,-96 -349,-204 -518,-320 -581,-400 -1101,-899 -1417,-1352 -98,-140 -176,-276 -231,-403 7,196 55,371 130,565 47,132 105,265 177,387 6,11 13,21 19,31 17,31 35,62 50,89 36,56 85,129 123,184 0,0 0,-1 -1,-1l1 2c0,0 1,1 1,1 0,1 1,1 1,1l3 5c1,1 3,3 4,4 9,12 16,21 22,27 176,232 438,480 732,682 93,64 188,123 284,176 69,38 135,70 198,98 209,85 272,103 460,153 242,56 379,67 569,81 228,6 277,2 510,-21 -284,-16 -670,-145 -1118,-391zm-1991 -1743l0 0c7,7 13,15 18,21l13 16c-9,-12 -20,-25 -31,-37zm31 38l0 0 5 7 7 10c-4,-5 -8,-11 -12,-16zm1334 1318l0 0c23,12 49,29 74,45 -23,-14 -45,-27 -66,-39 -6,-4 -12,-8 -18,-12 3,2 6,3 10,5z"/>
    <path class="fil1" d="M7502 3609c478,310 852,174 1036,-92 -806,-458 -1884,-1479 -2007,-2040 -183,-62 -351,-102 -499,-119 -122,-14 -230,-14 -324,2 -16,3 -32,7 -48,13 0,0 0,0 0,0 0,0 -1,0 -1,0 0,0 1,0 1,0 -56,13 -106,33 -149,58 13,-3 18,1 21,5l2 8c4,26 6,19 -2,-8 -7,-6 -14,-6 -21,-4 0,0 1,0 1,0 0,0 -1,0 -1,0 -1,0 -3,1 -4,1 -7,3 -16,7 -27,15l-6 5 -21 16 -6 5 1 -1 -59 52c-220,217 -233,230 -351,380 -205,287 -209,292 -359,591l-18 41 -83 210c25,-71 68,-129 126,-172 60,-45 137,-75 230,-90 91,-15 196,-15 315,-2 330,39 761,191 1253,461 346,190 687,417 1003,665zm-1389 -2229l0 0c2,1 3,2 5,3 -3,-1 -6,-3 -9,-5 1,0 3,1 4,1zm-901 326l0 0c-123,129 -208,249 -249,311 68,-104 153,-211 249,-311zm-5 302l0 0c-92,124 -198,255 -310,378 110,-121 217,-252 310,-378zm-372 461l0 0 -8 -8c4,4 9,7 13,10 -2,-1 -3,-1 -5,-2z"/>
    <path class="fil2" d="M4699 5014c-12,-25 -22,-49 -32,-72 4,10 8,19 12,29l20 42z"/>
    <path class="fil0" d="M9034 6212l133 -94c149,-112 157,-121 381,-339 59,-64 133,-154 189,-221 116,-151 125,-167 281,-434l24 -46 -27 36c-191,241 -686,230 -1355,-42l-87 -36c-25,-11 -49,-22 -74,-33 -129,-58 -263,-125 -402,-202 -1304,-715 -2535,-1959 -2749,-2779 -68,-259 -26,-444 103,-555l-6 5c0,0 -1,1 -1,1l-57 50c-138,127 -146,137 -351,380 -199,275 -202,281 -359,591l-18 41c23,-54 85,-156 169,-282 15,-21 339,-505 579,-744 -229,229 -625,782 -748,1026l-83 210c-35,101 -35,228 6,383 209,797 1405,2006 2672,2701 135,74 266,140 391,196 643,290 1142,349 1388,186z"/>
    <path class="fil2" d="M4989 1969c-11,22 -23,46 -37,72l-18 41c16,-37 50,-97 97,-172 -15,21 -29,40 -42,58z"/>
    <path class="fil0" d="M7530 5377c135,74 266,140 391,196 643,290 1142,349 1388,186l133 -94c149,-112 157,-121 381,-339 40,-43 85,-97 128,-148 -224,173 -686,141 -1290,-105l-87 -36c-25,-11 -49,-22 -74,-33 -129,-58 -263,-125 -402,-202 -1304,-715 -2535,-1959 -2749,-2779 -68,-259 -26,-444 103,-555l-6 5c0,0 -1,1 -1,1l-57 50c-137,126 -146,137 -347,374 -45,71 -82,134 -107,184l-16 41c116,-166 323,-448 489,-613 -135,135 -328,383 -489,614l-66 168c-35,100 -35,228 6,383 209,797 1405,2006 2672,2701z"/>
    <path class="fil0" d="M5444 1475l-57 50c-24,22 -44,40 -61,57 -8,13 -16,26 -22,40 35,-40 70,-78 103,-111 -32,32 -67,70 -104,113 -51,108 -56,252 -9,431 215,820 1446,2064 2749,2779 139,76 274,143 402,202 25,11 50,22 74,33l87 36c587,239 1040,276 1271,119 -244,119 -673,71 -1217,-150l-87 -36c-25,-11 -49,-22 -74,-33 -129,-58 -263,-125 -402,-202 -1304,-715 -2535,-1959 -2749,-2779 -68,-259 -26,-444 103,-555l-6 5c0,0 -1,1 -1,1z"/>
    <path class="fil2" d="M5198 1714c-6,7 -12,14 -18,21 -63,77 -126,159 -183,235 0,1 -1,1 -1,2 68,-91 137,-180 202,-258z"/>
    <path class="fil2" d="M7968 6650c9,-1 19,-3 28,-5 -9,2 -18,3 -28,5z"/>
    <path class="fil0" d="M6466 6206c11,3 22,5 32,7 -127,-75 -254,-155 -377,-240 -581,-400 -1101,-899 -1417,-1352 -98,-140 -176,-276 -231,-403l0 3 0 6c2,58 8,114 18,170l0 0 1 9c1,6 2,12 3,17l1 4 1 4 0 2c2,11 4,22 7,33l0 1 2 8 4 17 1 5 1 3 1 2c5,19 10,39 15,58l2 6 1 3 2 7 0 1 3 9 0 0 5 17 0 0 5 17 2 6 1 3 2 7 3 10 0 0 3 9 0 1 3 8 1 2 2 6 1 4 2 5 2 5 1 4 1 2 4 10 5 15 0 0 3 8 1 2 3 7 1 3 2 6 2 5 2 4 10 27 3 8 0 1 0 1 0 0 3 7 0 0c8,22 17,45 26,67 1,1 1,2 2,3 36,56 85,129 123,184 0,0 0,-1 -1,-1l1 2c0,0 1,1 1,1 0,1 1,1 1,1l3 5c1,1 3,3 4,4 9,12 16,21 22,27 176,232 438,480 732,682 93,64 188,123 284,176 69,38 135,70 198,98 209,85 272,103 460,153zm-1817 -1655l0 0c7,7 13,15 18,21l13 16c-9,-12 -20,-25 -31,-37zm31 38l0 0 5 7 7 10c-4,-5 -8,-11 -12,-16zm1334 1318l0 0c23,12 49,29 74,45 -23,-14 -45,-27 -66,-39 -6,-4 -12,-8 -18,-12 3,2 6,3 10,5z"/>
    <path class="fil0" d="M10238 3788l22 -19 15 -16 9 -10 3 -4c105,-223 -22,-685 -28,-705 -100,-358 -293,-614 -366,-591l-1 2 -5 5 -8 8 -12 10 -16 11 -21 11 -26 10 -32 8 -38 5 -43 1 -49 -3 -55 -8 -59 -13c-21,-5 -42,-11 -64,-18 -22,-7 -44,-14 -67,-23 -22,-8 -45,-17 -69,-27 -8,-3 -17,-4 -25,-6 1,0 3,-1 5,0l20 7 -23 -10 -24 -10 -24 -11 -23 -11 -23 -11 -23 -11 -23 -12 -23 -12 -22 -12 -8 -4 -14 -8 -21 -12 -21 -12 -20 -12 -19 -11 -19 -11 -18 -11 -17 -11 -16 -10 -15 -10 -14 -9 -13 -8 -12 -8 -11 -8 -10 -7 -9 -6 -8 -6 -7 -4 -6 -4 -4 -3 -3 -2 -2 -1 -1 0c-272,-190 -515,-422 -672,-637 -54,-76 -96,-149 -127,-210 -18,-38 -31,-74 -41,-109 -52,-199 55,-292 263,-272l0 0 9 1 1 0 1 0 0 0 1 0 0 0 2 0 1 0 1 0 0 0 0 0 1 0 0 0 1 0c4,0 34,0 1,-12l-2 -1 0 0 0 0 0 0 0 0 -1 0 0 0 0 0 0 0 -1 0 0 0 0 0 0 0 -1 0 0 0 -7 -2c-203,-64 -435,-109 -683,-126 -218,-15 -426,-8 -616,18 -68,9 -141,15 -202,48 -144,78 -198,237 -137,473 39,149 121,316 236,492 294,447 806,950 1385,1354l1 1 4 2 6 4 8 6 11 7 13 9 15 10 17 12 19 13 22 14 23 15 25 17 27 17 29 19 31 19 32 20 34 21 36 22 37 22 38 23 40 23 41 23 27 15 15 9 43 23 44 23 44 23 45 22 45 22 45 21 45 21 45 20 45 19c45,19 90,36 133,52 44,16 87,31 129,44 42,13 83,25 123,35 40,10 78,18 115,25 36,6 72,12 106,16 33,4 65,6 95,6 29,1 57,0 84,-2 25,-2 49,-5 72,-9l61 -15 50 -19 40 -21 31 -21zm-1458 -1672l0 0 11 5c-6,-2 -11,-5 -18,-7 2,1 5,1 7,2z"/>
    <path class="fil0" d="M7405 1492c294,447 806,950 1385,1354l1 1 4 2 6 4 8 6 11 7 13 9 15 10 17 12 19 13 22 14 23 16 25 17 27 17 29 19 31 19 32 20 34 21 36 22 37 22 38 23 40 23 41 23 27 15 15 9 43 23 44 23 44 23 45 22 45 22 45 21 45 21 45 20 45 19c45,19 90,36 133,52 44,16 87,31 129,44 42,13 83,24 123,35 40,10 78,18 115,25 29,5 56,9 83,13 12,-228 -63,-501 -68,-516 -100,-358 -293,-614 -366,-591l-1 2 -5 5 -8 8 -12 10 -16 11 -21 11 -26 10 -32 8 -38 5 -43 1 -49 -3 -55 -8 -59 -13c-21,-5 -42,-11 -64,-18 -22,-7 -44,-14 -67,-23 -22,-8 -45,-17 -69,-27 -8,-3 -17,-4 -25,-6 1,0 3,-1 5,0l20 7 -23 -10 -24 -10 -24 -11 -23 -11 -23 -11 -23 -11 -23 -12 -23 -12 -22 -12 -8 -4 -14 -8 -21 -12 -21 -12 -20 -12 -19 -11 -18 -11 -18 -11 -17 -11 -16 -10 -15 -10 -14 -9 -13 -8 -12 -8 -11 -8 -10 -7 -9 -6 -8 -6 -7 -4 -6 -4 -4 -3 -3 -2 -2 -1 -1 0c-272,-190 -515,-422 -672,-637 -54,-76 -96,-149 -127,-210 -18,-38 -31,-75 -41,-109 -53,-202 58,-294 272,-271 3,0 5,1 8,1 4,0 35,0 0,-12 -2,-1 -4,-1 -6,-2 -204,-66 -439,-111 -691,-129 -150,-10 -295,-10 -433,-1 -7,65 0,140 23,226 39,149 121,316 236,492zm1375 624l0 0 11 5c-6,-2 -11,-5 -18,-7 2,1 5,1 7,1z"/>
    <path class="fil2" d="M8713 2148c7,2 12,4 18,7l-11 -5c-2,-1 -5,-1 -7,-1z"/>
    <path class="fil0" d="M7997 1188c-27,-103 -11,-178 40,-223 -96,34 -135,121 -99,257 9,35 23,71 41,109 31,60 72,134 127,210 157,215 400,447 672,637l1 0 2 1 3 2 4 3 6 4 7 4 8 6 9 6 10 7 11 8 12 8 13 8 14 9 15 10 16 10 17 11 18 11 19 11 19 11 20 12 21 12 21 12 14 8 8 4 22 12 23 12 23 12 23 11 23 11 23 11 24 11 23 10 23 10c24,10 46,19 69,27 23,8 45,16 67,23 22,7 43,13 64,18l59 13 55 8 49 3 43 -1 38 -5 32 -8 26 -10 21 -11 16 -11 9 -7 -11 4 -32 8 -38 5 -43 1 -49 -3 -55 -8 -59 -13c-21,-5 -42,-11 -64,-18 -22,-7 -44,-14 -67,-23 -22,-8 -45,-17 -69,-27 -8,-3 -17,-4 -25,-6 1,0 3,-1 5,0l20 7 -23 -10 -24 -10 -24 -11 -23 -11 -23 -11 -23 -11 -23 -12 -23 -12 -22 -12 -8 -4 -14 -8 -21 -12 -21 -12 -20 -12 -19 -11 -18 -11 -18 -11 -17 -11 -16 -10 -15 -10 -14 -9 -13 -8 -12 -8 -11 -8 -10 -7 -9 -6 -8 -6 -7 -4 -6 -4 -4 -3 -3 -2 -2 -1 -1 0c-272,-190 -515,-422 -672,-637 -54,-76 -96,-149 -127,-210 -18,-38 -31,-75 -41,-109zm783 927l0 0 11 5c-6,-2 -11,-5 -18,-7 2,1 5,1 7,1z"/>
    <path class="fil2" style="mask:url(#id0)" d="M9245 2450c8,2 16,3 25,6l-20 -7c-1,0 -3,1 -5,0z"/>
   </g>
   <path class="fil3" d="M1006 9442c378,0 603,-244 603,-650l0 -685c0,-406 -225,-650 -603,-650 -381,0 -606,244 -606,650l0 685c0,406 225,650 606,650zm0 -326c-170,0 -258,-115 -258,-324l0 -685c0,-208 88,-324 258,-324 170,0 255,115 255,324l0 685c0,208 -85,324 -255,324zm1494 474l335 0 0 -217 38 0c376,0 664,-255 664,-710l0 -411c0,-461 -288,-727 -664,-727l-38 0 0 -203 -335 0 0 203 -38 0c-376,0 -664,266 -664,727l0 411c0,455 288,710 664,710l38 0 0 217zm-55 -540c-178,0 -310,-110 -310,-387l0 -411c0,-288 132,-403 310,-403l55 0 0 1201 -55 0zm389 0l0 -1201 52 0c181,0 313,115 313,403l0 411c0,277 -132,387 -313,387l-52 0zm2119 44l0 -1604 -987 0 -33 858c-11,280 -66,579 -222,746l-118 0 0 639 332 0 0 -324 869 0 0 324 332 0 0 -639 -173 0zm-335 0l-512 0c96,-173 143,-398 151,-650l25 -636 336 0 0 1286zm1848 348c378,0 603,-244 603,-650l0 -685c0,-406 -225,-650 -603,-650 -381,0 -606,244 -606,650l0 685c0,406 225,650 606,650zm0 -326c-170,0 -258,-115 -258,-324l0 -685c0,-208 88,-324 258,-324 170,0 255,115 255,324l0 685c0,208 -85,324 -255,324zm1711 -1626l0 790 -463 0 0 -790 -337 0 0 1919 337 0 0 -809 463 0 0 809 340 0 0 -1919 -340 0zm828 0c-36,801 -58,1168 -90,1365 -38,222 -99,280 -217,280l0 304c293,0 477,-90 540,-502 36,-222 63,-598 90,-1130l356 0 0 1601 337 0 0 -1919 -1017 0zm2166 1919l351 0 -472 -1919 -362 0 -472 1919 351 0 77 -348 450 0 77 348zm-458 -669l77 -356c27,-132 58,-343 74,-472l8 0c19,129 49,340 77,472l77 356 -313 0zm1601 -1439c189,0 329,-118 337,-335l-214 0c-3,82 -58,129 -126,129 -71,0 -123,-47 -126,-129l-217 0c8,211 151,335 345,335zm-600 2109l335 0 387 -886c58,-132 110,-285 159,-417l8 8c-22,203 -36,515 -36,696l0 598 329 0 0 -1919 -337 0 -409 938c-52,115 -99,247 -140,354l-8 -5c25,-208 41,-499 41,-658l0 -628 -329 0 0 1919zm2344 -1919l0 790 -463 0 0 -790 -337 0 0 1919 337 0 0 -809 463 0 0 809 340 0 0 -1919 -340 0z"/>
  </g>
 </g>
</svg>
