<?xml version="1.0" encoding="UTF-8"?> <svg xmlns="http://www.w3.org/2000/svg" height="512px" viewBox="0 0 480 480" width="512px"> <g> <path d="m400 248c-13.253906 0-24 10.746094-24 24s10.746094 24 24 24 24-10.746094 24-24-10.746094-24-24-24zm0 32c-4.417969 0-8-3.582031-8-8s3.582031-8 8-8 8 3.582031 8 8-3.582031 8-8 8zm0 0" data-original="#000000" class="active-path" data-old_color="#03abff" fill="#03abff"></path> <path d="m208 248c-13.253906 0-24 10.746094-24 24s10.746094 24 24 24 24-10.746094 24-24-10.746094-24-24-24zm0 32c-4.417969 0-8-3.582031-8-8s3.582031-8 8-8 8 3.582031 8 8-3.582031 8-8 8zm0 0" data-original="#000000" class="active-path" data-old_color="#03abff" fill="#03abff"></path> <path d="m307.039062 232.640625c-2.988281-1.167969-6.378906-.511719-8.71875 1.679687-1.460937 1.535157-2.289062 3.5625-2.320312 5.679688.015625 2.121094.847656 4.15625 2.320312 5.679688 1.511719 1.492187 3.554688 2.328124 5.679688 2.320312 1.039062.015625 2.074219-.175781 3.039062-.558594.972657-.4375 1.867188-1.03125 2.640626-1.761718 3.09375-3.15625 3.09375-8.203126 0-11.359376-.777344-.707031-1.671876-1.273437-2.640626-1.679687zm0 0" data-original="#000000" class="active-path" data-old_color="#03abff" fill="#03abff"></path> <path d="m332.960938 240.640625c-.96875.40625-1.863282.972656-2.640626 1.679687-1.460937 1.535157-2.289062 3.5625-2.320312 5.679688.011719 1.046875.230469 2.078125.640625 3.039062.367187.988282.9375 1.890626 1.679687 2.640626.777344.707031 1.671876 1.273437 2.640626 1.679687.949218.449219 1.988281.667969 3.039062.640625 2.117188-.03125 4.144531-.859375 5.679688-2.320312.742187-.75 1.3125-1.652344 1.679687-2.640626.449219-.949218.667969-1.988281.640625-3.039062-.03125-2.117188-.859375-4.144531-2.320312-5.679688-2.335938-2.199218-5.734376-2.855468-8.71875-1.679687zm0 0" data-original="#000000" class="active-path" data-old_color="#03abff" fill="#03abff"></path> <path d="m266.320312 242.320312c-1.460937 1.535157-2.289062 3.5625-2.320312 5.679688.015625 2.121094.847656 4.15625 2.320312 5.679688 3.15625 3.09375 8.203126 3.09375 11.359376 0 1.472656-1.523438 2.304687-3.558594 2.320312-5.679688.019531-3.25-1.929688-6.1875-4.933594-7.433594-3-1.246094-6.457031-.554687-8.746094 1.753906zm0 0" data-original="#000000" class="active-path" data-old_color="#03abff" fill="#03abff"></path> <path d="m32 336.007812h16v16h-16zm0 0" data-original="#000000" class="active-path" data-old_color="#03abff" fill="#03abff"></path> <path d="m96 336.007812h16v16h-16zm0 0" data-original="#000000" class="active-path" data-old_color="#03abff" fill="#03abff"></path> <path d="m479.144531 108.558594c-.097656-.253906-.207031-.503906-.328125-.75l-64-104c-1.457031-2.367188-4.039062-3.808594-6.816406-3.808594h-336c-2.777344 0-5.359375 1.441406-6.816406 3.808594l-64 104c-.121094.246094-.230469.496094-.328125.75-.101563.226562-.207031.441406-.296875.671875-.347656.882812-.5390628 1.820312-.558594 2.769531v360c0 4.417969 3.582031 8 8 8h464c4.417969 0 8-3.582031 8-8v-360c-.019531-.949219-.210938-1.886719-.558594-2.769531-.089844-.230469-.195312-.429688-.296875-.671875zm-111.144531 51.441406c.113281 13.34375-6.488281 25.847656-17.570312 33.28125-11.082032 7.433594-25.160157 8.792969-37.460938 3.621094 22.179688-18.929688 36.039062-45.820313 38.582031-74.871094.058594-.679688 0-1.351562.082031-2.03125h16.367188zm-160.59375 42.238281c-2.253906-.796875-4.453125-1.695312-6.628906-2.664062l-.777344-.375v-61.414063c0-2.269531-.964844-4.429687-2.648438-5.945312-3.398437-2.996094-5.347656-7.308594-5.351562-11.839844v-16h8v16c0 4.417969 3.582031 8 8 8s8-3.582031 8-8v-16h8v16c-.003906 4.527344-1.953125 8.835938-5.351562 11.832031-1.683594 1.515625-2.648438 3.675781-2.648438 5.945313v67.085937c-2.601562-.65625-5.144531-1.4375-7.65625-2.304687zm-7.40625 173.761719v-48c0-4.417969 3.582031-8 8-8 .464844 0 .933594.039062 1.390625.121094 4.003906.972656 6.765625 4.628906 6.609375 8.742187v39.136719c0 4.417969 3.582031 8 8 8h16v8h-32c-4.417969 0-8-3.582031-8-8zm104-48c10.167969.011719 19.230469 6.417969 22.632812 16h-45.265624c3.402343-9.582031 12.464843-15.988281 22.632812-16zm-32 32h80v56h-16v-40h-16v40h-32v-40h-16v40h-16v-56zm136 16c0 4.417969-3.582031 8-8 8h-32v-8h16c4.417969 0 8-3.582031 8-8v-39.136719c-.152344-4.109375 2.605469-7.757812 6.601562-8.734375 2.347657-.40625 4.753907.246094 6.574219 1.78125 1.789063 1.519532 2.820313 3.746094 2.824219 6.089844zm-40 40v-16h16v16zm-128-16v16h-16v-16zm8 32h216v32h-320v-32zm-232-312h80v40c0 22.089844-17.910156 40-40 40s-40-17.910156-40-40zm52.886719 96.144531c1.042969-.054687 2.066406-.144531 3.113281-.144531s2.070312.089844 3.113281.144531c7.269531 14.980469 11.558594 31.234375 12.628907 47.855469h-31.484376c1.070313-16.617188 5.359376-32.867188 12.628907-47.847656zm-20.886719 63.855469h16v104h-48v-104zm-32 120h48v64h-48zm64-120h48v104h-48zm23.769531-16c-.867187-14.789062-4-29.359375-9.289062-43.199219 17.6875 7.769531 30.132812 24.089844 32.953125 43.199219zm-63.539062 0h-23.664063c2.820313-19.109375 15.261719-35.425781 32.945313-43.199219-5.285157 13.839844-8.414063 28.410157-9.28125 43.199219zm39.769531 200v-64h48v64zm11.953125-261.113281c4.777344-4.023438 8.847656-8.816407 12.046875-14.183594 5.6875 9.46875 14.035156 17.054687 24 21.816406v16.335938c-9.28125-11.488281-21.863281-19.855469-36.046875-23.96875zm20.046875-42.886719v-40h16.382812c1.59375 23.453125 10.574219 45.796875 25.65625 63.824219 3.984376 4.707031 8.339844 9.082031 13.03125 13.078125-12.304687 5.167968-26.382812 3.804687-37.46875-3.625-11.089843-7.429688-17.699218-19.929688-17.601562-33.277344zm120-18.953125c5.132812-5.808594 7.976562-13.292969 8-21.046875v-64c0-4.417969-3.582031-8-8-8s-8 3.582031-8 8v32h-8v-32c0-4.417969-3.582031-8-8-8s-8 3.582031-8 8v32h-8v-32c0-4.417969-3.582031-8-8-8s-8 3.582031-8 8v64c.023438 7.753906 2.867188 15.230469 8 21.039062v48.855469c-6.546875-4.671875-12.488281-10.148437-17.679688-16.292969-23.910156-28.582031-29.121093-68.414062-13.371093-102.183593s49.621093-55.371094 86.882812-55.417969c2.902344 0 5.820313.132812 8.753907.398438 38.074218 3.371093 70.515624 29.039062 82.550781 65.320312 12.039062 36.285156 1.375 76.25-27.136719 101.714844v-15.433594c4.417969 0 8-3.582031 8-8v-60.902344c.097656-29.320312-17.765625-55.710937-45.023438-66.511718-2.464843-.988282-5.257812-.691407-7.457031.796874-2.195312 1.484376-3.515625 3.964844-3.519531 6.617188v166.601562c-7.925781 1.347657-15.988281 1.703126-24 1.054688zm40 26.953125h16v27.039062c-5.09375 2.960938-10.449219 5.441407-16 7.417969zm24-16h-24v-98.695312c15.082031 10.355468 24.066406 27.496093 24 45.792968zm88 8v-40h80v40c0 22.089844-17.910156 40-40 40s-40-17.910156-40-40zm73.6875-56h-75.289062l-20.34375-88h41.472656zm-91.742188 0h-14.335937c-2.488281-36.433594-22.703125-69.328125-54.089844-88h48.121094zm-183.386718-88c-5.050782 2.976562-9.867188 6.34375-14.398438 10.0625-22.859375 18.992188-37.175781 46.339844-39.753906 75.945312-.054688.664063 0 1.328126-.078125 1.992188h-13.496094l27.078125-88zm-106.085938 0h48.695313l-27.078125 88h-75.777344zm-60.472656 200v-16.871094c5.011719 5.125 10.960938 9.242188 17.519531 12.136719-6.648437 4.210937-12.566406 9.476563-17.519531 15.589844zm448-8v208h-64v-16h24c13.253906 0 24-10.746094 24-24v-32c0-4.417969-3.582031-8-8-8s-8 3.582031-8 8v32c0 4.417969-3.582031 8-8 8h-1.472656c.949218-2.5625 1.445312-5.269531 1.472656-8v-48c.003906-7.066406-3.109375-13.773438-8.503906-18.335938-5.398438-4.5625-12.527344-6.515624-19.496094-5.335937-11.726562 2.257813-20.152344 12.59375-20 24.535156v31.136719h-8v-8c0-4.417969-3.582031-8-8-8h-16.800781c-3.230469-15.699219-15.5-27.96875-31.199219-31.199219v-8.800781c17.671875 0 32-14.328125 32-32h-16c0 8.835938-7.164062 16-16 16v-24h-16v24c-8.835938 0-16-7.164062-16-16h-16c0 17.671875 14.328125 32 32 32v8.800781c-15.699219 3.230469-27.96875 15.5-31.199219 31.199219h-16.800781c-4.417969 0-8 3.582031-8 8v8h-8v-31.136719c.148438-11.9375-8.273438-22.269531-20-24.527343-6.964844-1.175782-14.097656.773437-19.492188 5.332031-5.394531 4.5625-8.507812 11.269531-8.507812 18.332031v48c.027344 2.730469.523438 5.4375 1.472656 8h-1.472656c-4.417969 0-8-3.582031-8-8v-32c0-4.417969-3.582031-8-8-8s-8 3.582031-8 8v32c0 13.253906 10.746094 24 24 24h24v16h-64v-200.640625c13.023438 2.03125 26.34375-.800781 37.414062-7.953125 7.1875 4.421875 14.855469 8.003906 22.859376 10.671875.300781.097656.597656.21875.902343.3125 2.679688.875 5.398438 1.601563 8.144531 2.289063l.800782.183593c5.234375 1.277344 10.550781 2.179688 15.910156 2.703125 3.414062.304688 6.816406.457032 10.207031.457032 20.636719.003906 40.863281-5.753907 58.402344-16.625 12.675781 8.007812 28.058594 10.539062 42.632813 7.019531 14.578124-3.523438 27.105468-12.800781 34.726562-25.714844 8.878906 14.921875 24.191406 24.867187 41.433594 26.902344 17.246094 2.039062 34.453125-4.058594 46.566406-16.5zm0 0" data-original="#000000" class="active-path" data-old_color="#03abff" fill="#03abff"></path> </g> </svg> 