<svg xmlns="http://www.w3.org/2000/svg" xmlns:xlink="http://www.w3.org/1999/xlink" viewBox="0 0 1089.2 447.7"><style><![CDATA[.a{stroke-miterlimit:10}.b{stroke:#05b}.c{fill:none}.d{stroke-width:2}.e{stroke-linejoin:round}.f{stroke-linecap:round}.g{fill:#05b}.h{fill:#fff}.i{fill:#b4d5ef}]]></style><path d="M537.4 174.3l-.1 25" class="a b c d f"/><path d="M547 179.7l-9.6-3.4-9.9 2.8 9.9-9.4z" class="g"/><path d="M537.1 231l.1 25" class="a b c d f"/><path d="M537.5 260.6l-10.1-9.4 9.9 2.8 9.6-3.4z" class="g"/><path d="M987.4 127.8l-.1 64.4" class="a b c d f"/><path d="M997.1 133.2l-9.6-3.4-9.9 2.8 10.1-9.4z" class="g"/><path d="M647.2 106.5l218.6.1" class="a b c d f"/><path d="M640.9 106.6l9.4-10-2.8 9.8 3.5 9.7z" class="g"/><path d="M189.7 269.2l192.4-103.6" class="a b c d f"/><path d="M374.1 159l7.7 6.8 2.3 10 3.4-13.3z" class="g"/><path d="M365.2 129.3L172.8 232.9" class="a b c d f"/><path d="M180.8 239.6l-7.7-6.9-2.3-9.9-3.4 13.3z" class="g"/><path d="M647.2 170.6l211.7 54.6" class="a b c d f"/><path d="M640.9 168.8l6.7 12.1-.4-10.3 5.8-8.5z" class="g"/><path d="M949 421.3c.5-.1.9-.2 1.5-.2s1-.1 1.6-.1 1.1.1 1.7.2 1.1.3 1.6.6.8.7 1.1 1.2.4 1.1.4 1.9-.1 1.4-.4 1.9-.6 1-1.1 1.3-1 .6-1.6.7-1.2.2-1.8.2h-1.4v4.8H949v-12.5zm3 1h-.9c-.3 0-.5 0-.7.1v5.2h1.4c.4 0 .8 0 1.2-.1s.8-.2 1.1-.4a2.36 2.36 0 0 0 .8-.9c.2-.4.3-.8.3-1.4 0-.5-.1-.9-.3-1.2s-.4-.6-.7-.8-.6-.3-1-.4c-.4 0-.8-.1-1.2-.1z"/><use xlink:href="#B"/><path d="M972.3 427.8v-1.3h2.1c.3-.1.6-.1.9-.3.3-.1.5-.3.7-.4.2-.2.4-.4.5-.6s.2-.5.2-.8c0-.4-.1-.7-.2-1s-.3-.5-.5-.6-.5-.3-.8-.3c-.3-.1-.6-.1-1-.1-.6 0-1.2 0-1.7.1s-.8.2-1.1.3l-.4-1.2c.2-.1.7-.3 1.3-.4s1.3-.2 2.1-.2c.5 0 1 .1 1.4.2s.9.3 1.2.5.7.6.9 1 .3.9.3 1.5-.2 1.2-.6 1.7-1 .9-1.8 1.2v.1c.8.1 1.5.4 2 1 .5.5.7 1.2.7 2.1 0 .7-.1 1.3-.4 1.8s-.6.9-1.1 1.2-.9.6-1.5.7c-.6.2-1.1.2-1.7.2-.8 0-1.4 0-2-.1l-1.3-.3.4-1.3c.3.1.7.2 1.2.3s1.1.1 1.8.1c.4 0 .7-.1 1.1-.2s.7-.3 1-.5.5-.5.7-.8.3-.7.3-1.1c0-.8-.3-1.3-.8-1.7s-1.2-.6-2.1-.6h-1.8v-.2zm16.3.2h-6v5.8h-1.5v-12.6h1.5v5.5h6v-5.5h1.5v12.6h-1.5V428z"/><use xlink:href="#C"/><path d="M1015.8 436.1h-1l-.3-2.3h-9v-12.6h1.5v11.3h5.7v-11.3h1.5v11.3h1.7v3.6h-.1zm8-5.8h-4.6l-1.3 3.5h-1.5l4.8-12.8h.7l4.8 12.8h-1.6l-1.3-3.5zm-4.2-1.3h3.7l-1.4-3.8-.4-1.9-.4 1.9-1.5 3.8zM967.7 82.1c0-2.1.4-3.7 1.3-4.8s2.2-1.7 3.8-1.7c.9 0 1.7.2 2.3.5a5.09 5.09 0 0 1 1.6 1.3c.4.6.7 1.3.9 2.1s.3 1.7.3 2.7c0 2.1-.4 3.7-1.3 4.8s-2.2 1.7-3.8 1.7c-.9 0-1.6-.2-2.3-.5a5.09 5.09 0 0 1-1.6-1.3c-.4-.5-.7-1.3-.9-2.1s-.3-1.7-.3-2.7zm1.6 0c0 .7.1 1.4.2 2s.4 1.2.6 1.6a2.91 2.91 0 0 0 1.1 1.1c.4.2 1 .4 1.6.4 1.1 0 2-.4 2.6-1.3.6-.8 1-2.2 1-3.9 0-.7-.1-1.3-.2-2-.1-.6-.4-1.2-.7-1.7s-.7-.8-1.1-1.1-1-.4-1.6-.4c-1.1 0-2 .4-2.6 1.3s-.9 2.3-.9 4zm16 4.9c-.2 0-.4.1-.7.1h-.8c-.6 0-1.1-.1-1.6-.3s-.9-.5-1.3-.9-.7-.9-.9-1.6-.3-1.4-.3-2.2.1-1.5.3-2.2c.2-.6.5-1.2.9-1.6s.9-.8 1.4-1 1.1-.4 1.8-.4h.6c.3 0 .4 0 .6.1v-1.6h1.5V77c.2-.1.5-.1.8-.1h.7c.6 0 1.1.1 1.6.3s.9.5 1.3.9.7.9.9 1.6c.2.6.3 1.4.3 2.2s-.1 1.6-.3 2.2-.5 1.2-.9 1.6-.9.8-1.4 1-1.1.3-1.7.3h-.6c-.3 0-.5 0-.6-.1v1.8h-1.5l-.1-1.7zm-1.2-1.2h.8c.1 0 .2 0 .3-.1v-7.5c-.1 0-.3 0-.5-.1s-.4 0-.6 0c-.4 0-.8.1-1.1.2-.4.2-.7.4-.9.7-.3.3-.5.7-.6 1.2-.2.5-.2 1.1-.2 1.7s.1 1.1.2 1.6.3.9.6 1.2c.2.3.5.6.9.7.3.4.7.4 1.1.4zm4-7.6h-.7c-.3 0-.5 0-.6.1v7.5h1.1c.4 0 .8-.1 1.1-.2.4-.2.7-.4.9-.7.3-.3.5-.7.6-1.2s.2-1.1.2-1.7-.1-1.1-.2-1.5c-.1-.5-.3-.9-.5-1.2a2.36 2.36 0 0 0-.9-.8c-.2-.2-.6-.3-1-.3zm16.5 12.5h-1l-.3-2.3h-8.8l-.3 2.3h-1V87h1.3c.1-.1.2-.4.4-.9s.4-1.2.6-2.1a22.71 22.71 0 0 0 .5-3.4c.2-1.4.2-3 .2-4.9h6.7V87h1.6l.1 3.7zm-3.1-3.6v-9.9h-3.8c0 1.3-.1 2.5-.2 3.6s-.2 2-.4 2.8l-.5 2.1a11.64 11.64 0 0 1-.6 1.5l5.5-.1zM490.9 213.9h-.9v5.8h-1.5v-12.6h1.5v5.9l.8-.3 4.2-5.6h1.7l-4.2 5.4-.8.6.9.7 4.6 5.9h-1.9l-4.4-5.8zm8 1.3c0-1.5.3-2.7 1-3.5s1.7-1.2 2.9-1.2c.7 0 1.3.1 1.8.3s.9.5 1.2 1 .6.9.7 1.5.2 1.2.2 1.9c0 1.5-.3 2.7-1 3.5s-1.7 1.2-2.9 1.2c-.7 0-1.3-.1-1.8-.3s-.9-.5-1.2-1-.6-.9-.7-1.5-.2-1.2-.2-1.9zm1.5 0c0 .5 0 .9.1 1.3s.2.8.4 1.1.4.6.8.8c.3.2.7.3 1.1.3 1.6 0 2.4-1.1 2.4-3.5 0-.5 0-.9-.1-1.3s-.2-.8-.4-1.1-.4-.6-.8-.7c-.3-.2-.7-.3-1.1-.3-1.6 0-2.4 1.1-2.4 3.4zM517 222h-1l-.3-2.3H509l-.3 2.3h-1v-3.5h1.1c.1-.1.2-.4.4-.7s.3-.8.5-1.4.3-1.4.4-2.3.2-2 .2-3.3h5.4v7.7h1.3v3.5zm-2.8-3.5V212h-2.7c0 .5-.1 1.1-.1 1.6-.1.6-.1 1.2-.2 1.8s-.2 1.2-.4 1.7-.3 1-.5 1.4h3.9z"/><use xlink:href="#D"/><path d="M541.1 214.4l.1-1.1h-.1l-.7 1.2-4.1 5.3h-.8v-9h1.4v5.5l-.1 1.1h.1l.7-1.1 4.1-5.4h.9v9h-1.4v-5.5h-.1zm5 1.3v-1.2h1.3c.2 0 .4 0 .6-.1l.6-.3c.2-.1.3-.3.4-.5s.2-.4.2-.6c0-.5-.2-.8-.5-1s-.8-.3-1.5-.3c-.5 0-.9.1-1.3.2s-.7.3-.9.4l-.4-1.1c.4-.2.8-.4 1.3-.5.5-.2 1.1-.2 1.7-.2 2 0 3 .7 3 2.2a1.92 1.92 0 0 1-.4 1.2 2.73 2.73 0 0 1-1.2.9v.1c.7.1 1.2.4 1.5.8s.4.9.4 1.5c0 .4-.1.7-.2 1.1-.2.3-.4.6-.7.8s-.7.4-1.2.6c-.5.1-1 .2-1.6.2s-1.1-.1-1.5-.2-.8-.2-1.1-.4l.4-1.2c.3.2.6.3 1 .4s.8.1 1.3.1c.7 0 1.3-.1 1.7-.4s.6-.6.6-1.2c0-.4-.2-.8-.5-1-.4-.2-1-.4-1.8-.4l-1.2.1zm15.6-1.9l.5 1.6h.1l.4-1.7 2.4-6.6h1.5l-3.2 8.2c-.3.9-.6 1.6-.9 2.1s-.5 1-.7 1.4c-.3.4-.5.6-.8.8s-.6.2-1.1.2c-.4 0-.7 0-.9-.1s-.5-.2-.7-.3l.5-1.2c.2.1.5.2.7.3.2 0 .4.1.6.1.3 0 .6-.2.8-.5s.4-.9.6-1.5l-4.7-9.3h1.7l3.2 6.5zm13.7-5.3h-5.8v11.3h-1.5v-12.6h8.8v12.6h-1.5v-11.3zm14.6 13.6h-1l-.3-2.3h-8.8l-.3 2.3h-1v-3.7h1.3c.1-.1.2-.4.4-.9s.4-1.2.6-2.1a22.71 22.71 0 0 0 .5-3.4c.2-1.4.2-3 .2-4.9h6.7v11.3h1.6l.1 3.7zm-3.1-3.7v-9.9H583c0 1.3-.1 2.5-.2 3.6s-.2 2-.4 2.8c-.1.8-.3 1.5-.5 2.1a11.64 11.64 0 0 1-.6 1.5h5.6v-.1z"/><path d="M988 231l.1 25" class="a b c d f"/><path d="M974.5 207.1v4.2c0 1.6.7 2.5 2.2 2.5.6 0 1.1-.1 1.6-.2s.9-.3 1.2-.6v-5.8h1.5v12.6h-1.5v-5.4a3.2 3.2 0 0 1-1.3.5c-.5.2-1.1.3-1.8.3-.5 0-1-.1-1.4-.2s-.8-.3-1.1-.6-.5-.6-.7-1.1-.3-1-.3-1.7v-4.4h1.6v-.1zm16 11.9c-.4.3-.8.5-1.4.7s-1.1.3-1.7.3c-.7 0-1.3-.1-1.8-.3s-.9-.5-1.2-1-.6-.9-.7-1.5-.2-1.2-.2-1.9c0-1.5.3-2.7 1-3.5s1.7-1.2 2.9-1.2c.4 0 .8 0 1.2.1s.8.3 1.1.5.6.6.8 1.1.3 1.1.3 1.8c0 .4 0 .8-.1 1.3h-5.8c0 .5.1 1 .2 1.4s.3.8.5 1c.2.3.5.5.9.6s.8.2 1.3.2c.4 0 .8-.1 1.2-.2s.7-.3.9-.5l.6 1.1zm-3.1-7.2c-.7 0-1.3.2-1.7.6s-.7 1-.8 1.9h4.5c0-.9-.2-1.6-.5-1.9-.4-.4-.9-.6-1.5-.6zm7.9 3.9h-.8v4.1H993v-9h1.4v4.1l.8-.3 2.9-3.8h1.6l-2.8 3.6-.8.6.9.7 3 4.1h-1.8l-2.9-4.1zM682.6 87.8h-.8v5.8h-1.5V81.1h1.5V87l.8-.3 4.2-5.6h1.7l-4.2 5.4-.8.6.9.7 4.6 5.9h-1.9l-4.5-5.9zm7.9 1.4c0-1.5.3-2.7 1-3.5s1.7-1.2 2.9-1.2c.7 0 1.3.1 1.8.3s.9.5 1.2 1 .6.9.7 1.5.2 1.2.2 1.9c0 1.5-.3 2.7-1 3.5s-1.7 1.2-2.9 1.2c-.7 0-1.3-.1-1.8-.3s-.9-.5-1.2-1-.6-.9-.7-1.5-.2-1.2-.2-1.9zm1.5 0c0 .5 0 .9.1 1.3s.2.8.4 1.1.4.6.8.8c.3.2.7.3 1.1.3 1.6 0 2.4-1.1 2.4-3.5 0-.5 0-.9-.1-1.3s-.2-.8-.4-1.1-.4-.6-.8-.7c-.3-.2-.7-.3-1.1-.3-1.5-.1-2.4 1.1-2.4 3.4zm16.7 6.8h-1l-.3-2.3h-6.8l-.3 2.3h-1v-3.5h1.1c.1-.1.2-.4.4-.7s.3-.8.5-1.4.3-1.4.4-2.3.2-2 .2-3.3h5.4v7.7h1.3l.1 3.5zm-2.8-3.6v-6.5h-2.7c0 .5-.1 1.1-.1 1.6-.1.6-.1 1.2-.2 1.8s-.2 1.2-.4 1.7-.3 1-.5 1.4h3.9zm6-4.3c.3 0 .6-.1.8-.1h.8c.6 0 1.1.1 1.5.2s.8.3 1 .6.4.5.5.9.1.7.1 1.1c0 1.1-.3 1.9-.9 2.4s-1.6.7-2.9.7c-.8 0-1.6 0-2.4-.1v-9h1.4v3.3h.1zm0 4.3c.4.1.9.1 1.3.1.8 0 1.3-.1 1.6-.4s.4-.7.4-1.3c0-.5-.1-.9-.4-1.2s-.8-.5-1.5-.5h-.7c-.3 0-.5 0-.7.1v3.2zm6.2-7.7h1.4v9h-1.4v-9zm17 11.3h-1l-.3-2.3H727l-.3 2.3h-1v-3.5h1.1c.1-.1.2-.4.4-.7s.3-.8.5-1.4.3-1.4.4-2.3.2-2 .2-3.3h5.4v7.7h1.3l.1 3.5zm-2.8-3.6v-6.5h-2.7c0 .5-.1 1.1-.1 1.6-.1.6-.1 1.2-.2 1.8s-.2 1.2-.4 1.7-.3 1-.5 1.4h3.9z"/><use xlink:href="#E"/><use xlink:href="#F"/><use xlink:href="#G"/><path d="M772.8 85.9h-4v7.7h-1.4v-9h6.9v9h-1.4l-.1-7.7zm9.9 2.4l.1-1.1h-.1l-.7 1.2-4.1 5.3h-.9v-9h1.4v5.5l-.1 1.1h.1l.7-1.1 4.1-5.4h.9v9h-1.4v-5.5z"/><use xlink:href="#G" x="27.6"/><use xlink:href="#H"/><path d="M809.4 89.7h-4.1v4h-1.4v-9h1.4v3.8h4.1v-3.8h1.4v9h-1.4v-4zm9.9-1.4l.1-1.1h-.1l-.7 1.2-4.1 5.3h-.8v-9h1.4v5.5l-.1 1.1h.1l.7-1.1 4.1-5.4h.9v9h-1.4v-5.5h-.1z"/><use xlink:href="#F" x="77.5"/><path d="M237.2 217.4l.3.9c.1.3.1.6 0 1 0 .3-.2.6-.4.9s-.4.5-.8.8v.1c.3-.1.7-.2 1.1-.1.4 0 .8.1 1.1.2a4.67 4.67 0 0 1 1 .5c.3.2.6.6.8 1 .3.6.5 1.1.4 1.7 0 .5-.1 1.1-.4 1.5-.2.5-.6.9-1 1.3s-.9.7-1.4 1l-.6.3c-.2.1-.5.3-.8.4s-.5.2-.8.4l-.8.3-5.8-10.9 1.3-.9 1.7-1 1.3-.6c.5-.2.9-.2 1.4-.2s.9.1 1.3.3.8.5 1.1 1.1zm-3.4 4.6c.2-.1.4-.2.6-.4.3-.1.5-.3.6-.4l.6-.6c.2-.2.3-.4.4-.7s.1-.5.1-.8-.1-.5-.2-.8c-.2-.4-.4-.6-.6-.7s-.5-.2-.8-.2-.6 0-.9.1-.6.2-.9.4l-.9.5-.6.4 1.9 3.5.7-.3zm3.7 4.9c.3-.2.7-.4.9-.6.3-.3.5-.5.6-.8s.2-.6.2-1a1.93 1.93 0 0 0-.3-1c-.2-.4-.5-.8-.9-1-.3-.2-.7-.3-1.1-.3s-.7.1-1.1.2-.7.3-1.1.5l-1.4.7 2.2 4.1c.1 0 .2-.1.3-.1s.3-.1.5-.2.3-.2.5-.2c.5-.2.6-.2.7-.3zm5.4-7.9c.2-.2.5-.3.7-.5s.4-.3.7-.4c.5-.3 1-.5 1.5-.5.4-.1.8-.1 1.2 0 .3.1.6.3.9.5s.5.5.6.9c.5 1 .6 1.8.3 2.5s-1 1.4-2.2 2c-.7.4-1.4.7-2.2 1l-4.2-7.9 1.3-.7 1.4 3.1zm2 3.8c.4-.1.8-.3 1.2-.5.7-.4 1.1-.7 1.2-1.1s.1-.8-.2-1.3c-.2-.4-.5-.7-.9-.8s-.9 0-1.6.3l-.6.3c-.2.1-.4.3-.5.4l1.4 2.7zm1.8-9.7l1.3-.7 4.2 7.9-1.2.7-4.3-7.9z"/><use xlink:href="#I"/><path d="M259.2 207.2c.3-.5.6-.9 1.1-1.3s1-.8 1.6-1.1c.5-.3 1-.5 1.4-.5s.8 0 1.1.2c.3.1.6.3.8.6s.4.5.5.8c.3.6.7 1.3.9 1.9l.9 1.7.6 1.1c.2.3.4.6.7.9l-.8.5-1-1h-.1c0 .2-.1.4-.1.6s-.2.4-.3.7c-.1.2-.3.4-.5.6s-.5.4-.8.6a1.93 1.93 0 0 1-1 .3h-1c-.3-.1-.6-.2-.9-.4s-.5-.5-.7-.8c-.3-.5-.4-.9-.3-1.3 0-.4.2-.8.4-1.2s.6-.7 1-1.1c.4-.3.9-.7 1.5-1a.76.76 0 0 1 .4-.2c.1 0 .3-.1.5-.2-.1-.3-.3-.6-.4-.9-.3-.6-.6-.9-1-1s-.8 0-1.5.3l-.6.3c-.2.1-.4.3-.6.5s-.4.3-.5.5c-.2.2-.3.3-.4.5l-.9-.6zm5.7 5.1c.3-.2.5-.3.7-.5s.3-.4.4-.6.2-.4.2-.6v-.6l-.7-1.3c-.2.1-.3.1-.5.2s-.3.2-.5.2l-.9.6c-.3.2-.5.4-.7.6a1.08 1.08 0 0 0-.3.7c0 .3 0 .5.1.8a1.27 1.27 0 0 0 .9.7c.4.1.9 0 1.3-.2zm2.8-10.5l1.2 2.2c.2.3.3.5.5.7s.3.4.5.5.4.2.6.2.5-.1.8-.2c.5-.3.8-.5 1.1-.8.2-.3.4-.5.5-.7l-1.9-3.5 1.3-.7 4.2 7.9-1.3.7-1.8-3.3c-.1.2-.3.4-.6.7s-.7.6-1.3.9c-.4.2-.8.4-1.1.4-.3.1-.7.1-1 0s-.6-.3-.9-.6-.6-.7-.9-1.2l-1.3-2.4 1.4-.8zm7.2-3c.3-.5.6-.9 1.1-1.3s1-.8 1.6-1.1c.5-.3 1-.5 1.4-.5s.8 0 1.1.2c.3.1.6.3.8.6s.4.5.5.8c.3.6.7 1.3.9 1.9l.9 1.7.6 1.1c.2.3.4.6.7.9l-.9.5-.9-.9h-.1c0 .2-.1.4-.1.6-.1.2-.2.4-.3.7-.1.2-.3.4-.5.6s-.5.4-.8.6a1.93 1.93 0 0 1-1 .3c-.3.1-.7 0-1 0-.3-.1-.6-.2-.9-.4s-.5-.5-.7-.8c-.3-.5-.4-.9-.3-1.3 0-.4.2-.8.4-1.2s.6-.7 1-1.1c.4-.3.9-.7 1.5-1a.76.76 0 0 1 .4-.2c.1-.1.3-.1.5-.2-.1-.3-.3-.6-.4-.9-.3-.6-.6-.9-1-1s-.8 0-1.5.3l-.6.3c-.2.1-.4.3-.6.5s-.4.3-.5.5c-.2.2-.3.3-.4.5l-.9-.7zm5.6 5.1c.3-.2.5-.3.7-.5s.3-.4.4-.6.2-.4.2-.6v-.6l-.7-1.3c-.2.1-.3.1-.5.2s-.3.2-.5.2l-.9.6c-.3.2-.5.4-.7.6a1.08 1.08 0 0 0-.3.7c0 .3 0 .5.1.8a1.27 1.27 0 0 0 .9.7c.5.1.9.1 1.3-.2zm10.6-9l-.7.4 1.9 3.6-1.3.7-4.2-7.9 1.3-.7 1.9 3.6.6-.6.7-4.7 1.4-.7-.7 4.5-.4.9 1.2.2 4.6 2.2-1.6.8-4.7-2.3zm4.9-3.1c-.7-1.3-1-2.5-.8-3.6.2-1 .9-1.9 2-2.5.6-.3 1.2-.5 1.7-.5s1.1 0 1.5.3.9.5 1.3 1c.4.4.8 1 1.1 1.6.7 1.3 1 2.5.8 3.6-.2 1-.9 1.9-2 2.5-.6.3-1.2.5-1.7.5s-1.1 0-1.5-.3c-.5-.2-.9-.5-1.3-1-.3-.5-.7-1-1.1-1.6zm1.4-.7c.2.4.5.8.7 1.1.3.3.6.6.9.8a1.93 1.93 0 0 0 1 .3c.3 0 .7-.1 1.1-.3 1.4-.8 1.6-2.2.5-4.2-.2-.4-.5-.8-.7-1.1-.3-.3-.6-.6-.9-.8a1.93 1.93 0 0 0-1-.3c-.4 0-.7.1-1.1.3-1.5.7-1.6 2.1-.5 4.2z"/><use xlink:href="#I" x="52.4" y="-28.1"/><path d="M313.1 182.6c-.7-1.3-1-2.5-.8-3.6.2-1 .9-1.9 2-2.5.6-.3 1.2-.5 1.7-.5s1.1 0 1.5.3c.5.2.9.5 1.3 1 .4.4.8 1 1.1 1.6.7 1.3 1 2.5.8 3.6-.2 1-.9 1.9-2 2.5-.6.3-1.2.5-1.7.5s-1.1-.1-1.5-.3c-.5-.2-.9-.5-1.3-1-.4-.4-.7-.9-1.1-1.6zm1.4-.7c.2.4.5.8.7 1.1.3.3.6.6.9.8a1.93 1.93 0 0 0 1 .3c.4 0 .7-.1 1.1-.3 1.4-.8 1.6-2.2.5-4.2-.2-.4-.5-.8-.7-1.1-.3-.3-.6-.6-.9-.8a1.93 1.93 0 0 0-1-.3c-.3 0-.7.1-1.1.3-1.5.8-1.6 2.2-.5 4.2zm5.5-8c.4-.2.7-.4 1.1-.7.4-.2.9-.5 1.5-.9 1-.6 1.9-.8 2.5-.7s1.1.4 1.5 1.1c.2.4.3.8.3 1.3s-.2.9-.7 1.4v.1c.7-.2 1.2-.2 1.7-.1.4.2.8.5 1.1 1.1.4.8.5 1.6.1 2.3s-1.2 1.3-2.4 2l-1.3.6c-.4.2-.8.4-1.2.5l-4.2-8zm4.6 1.8c.2-.1.4-.2.5-.4s.3-.3.3-.5c.1-.2.1-.4.1-.6s0-.4-.1-.6c-.2-.4-.5-.6-.8-.7-.3 0-.8.1-1.5.5-.3.2-.6.3-.8.4s-.4.2-.5.3l1.2 2.3 1.6-.7zm.3 4.4l.6-.3c.2-.1.4-.2.7-.4.7-.4 1.2-.8 1.4-1.2s.2-.8 0-1.3a1.27 1.27 0 0 0-.9-.7c-.4-.1-1 .1-1.7.5l-1.4.7 1.3 2.7zM221 185.2l-.6-1.1.2-.1c.1-.1.2-.1.4-.2a.76.76 0 0 1 .4-.2.76.76 0 0 1 .4-.2c.1-.1.2-.1.3-.2.2-.2.5-.4.7-.6s.3-.5.4-.7c.1-.3.1-.5.1-.8s-.1-.5-.2-.8c-.2-.3-.4-.6-.6-.8s-.5-.3-.8-.3-.6 0-.9.1-.6.2-.9.4c-.6.3-1 .6-1.4.9s-.6.6-.8.8l-.9-.9 1-1c.5-.4 1.1-.8 1.8-1.2.4-.2.9-.4 1.3-.5.5-.1.9-.2 1.3-.1.4 0 .8.2 1.2.4s.7.6 1 1.1.4 1.1.3 1.8-.4 1.3-1 1.9v.1c.8-.3 1.5-.3 2.2-.1s1.2.7 1.6 1.5c.3.6.5 1.2.5 1.8s-.1 1.1-.3 1.6-.6.9-1 1.3-.9.7-1.4 1c-.7.4-1.3.6-1.8.8s-.9.3-1.3.3l-.3-1.4c.3 0 .7-.1 1.2-.3.5-.1 1-.4 1.7-.7.3-.2.6-.4.9-.7s.5-.5.6-.9c.2-.3.2-.7.2-1s-.1-.7-.3-1.1c-.4-.7-.9-1-1.5-1.1s-1.3.1-2.1.4c-.1.1-.3.1-.4.2s-.2.1-.3.2l-.9.4zm6.3-6.1c.3-.5.6-.9 1.1-1.3s1-.8 1.6-1.1c.5-.3 1-.5 1.4-.5s.8 0 1.1.2.6.3.8.6.4.5.5.8c.3.6.7 1.3.9 1.9l.9 1.7.6 1.1c.2.3.5.6.7.9l-.9.5-.9-.9h-.1c0 .2-.1.4-.1.6s-.2.4-.3.7c-.1.2-.3.4-.5.7-.2.2-.5.4-.8.6a1.93 1.93 0 0 1-1 .3c-.3.1-.7 0-1 0-.3-.1-.6-.2-.9-.4s-.5-.5-.7-.8c-.3-.5-.4-.9-.3-1.3 0-.4.2-.8.4-1.2s.6-.7 1-1.1.9-.7 1.5-1a.76.76 0 0 1 .4-.2c.1-.1.3-.1.4-.2-.1-.3-.3-.6-.4-.9-.3-.6-.7-.9-1-1-.4-.1-.8 0-1.5.3-.2.1-.4.2-.6.4-.2.1-.4.3-.6.5s-.4.3-.5.5-.3.3-.4.5l-.8-.9zm5.7 5.2c.3-.2.5-.3.7-.5s.3-.4.4-.6.2-.4.2-.6v-.6l-.7-1.3c-.2.1-.3.1-.5.2s-.3.2-.5.2l-.9.6c-.3.2-.5.4-.7.6a1.08 1.08 0 0 0-.3.7c0 .3 0 .5.1.8a1.27 1.27 0 0 0 .9.7c.5.1.9 0 1.3-.2z"/><use xlink:href="#J"/><path d="M242.8 170.8c.3-.5.6-.9 1.1-1.3s1-.8 1.6-1.1c.5-.3 1-.5 1.4-.5s.8 0 1.1.2c.3.1.6.3.8.6s.4.5.5.8c.3.6.7 1.3.9 1.9l.9 1.7.6 1.1c.2.3.5.6.7.9l-.9.5-.9-.9h-.1c0 .2-.1.4-.1.6s-.2.4-.3.7c-.1.2-.3.4-.5.7-.2.2-.5.4-.8.6a1.93 1.93 0 0 1-1 .3c-.3.1-.7 0-1 0-.3-.1-.6-.2-.9-.4s-.5-.5-.7-.8c-.3-.5-.4-.9-.3-1.3 0-.4.2-.8.4-1.2s.6-.7 1-1.1c.4-.3.9-.7 1.5-1a.76.76 0 0 1 .4-.2c.1-.1.3-.1.5-.2-.1-.3-.3-.6-.4-.9-.3-.6-.7-.9-1-1-.4-.1-.8 0-1.5.3-.2.1-.4.2-.6.4s-.4.3-.6.5-.4.3-.5.5c-.2.2-.3.3-.4.5l-.9-.9zm5.7 5.2c.3-.2.5-.3.7-.5s.3-.4.4-.6.2-.4.2-.6v-.6l-.7-1.3c-.2.1-.3.1-.5.2s-.3.2-.5.2l-.9.6c-.3.2-.5.4-.7.6a1.08 1.08 0 0 0-.3.7c0 .3 0 .5.1.8a1.27 1.27 0 0 0 .9.7c.4.1.8 0 1.3-.2zm5.1-6.1l-.6-1 1.1-.6c.2-.1.4-.2.5-.4.2-.2.3-.3.4-.5s.1-.4.1-.6 0-.4-.1-.6c-.2-.4-.5-.6-.9-.6s-.9.1-1.4.4c-.4.2-.8.5-1 .8-.3.3-.5.6-.6.8l-.9-.8c.2-.3.5-.7.9-1.1a5.02 5.02 0 0 1 1.4-1c1.8-.9 3-.8 3.7.5.2.4.3.8.2 1.3 0 .5-.3.9-.6 1.3v.1c.7-.2 1.2-.2 1.7 0 .4.2.8.6 1.1 1.1a1.93 1.93 0 0 1 .3 1c0 .4-.1.7-.2 1.1-.2.4-.4.7-.8 1.1-.4.3-.8.7-1.3 1s-1 .5-1.4.6-.8.2-1.1.2l-.2-1.2c.3 0 .7 0 1-.2.4-.1.8-.3 1.2-.5.6-.3 1.1-.7 1.3-1.1s.2-.8 0-1.3a1 1 0 0 0-1-.6c-.4 0-1 .1-1.7.5l-1.1.3z"/><use xlink:href="#J" x="26.6" y="-14.3"/><path d="M270.9 160c-.7-1.3-1-2.5-.8-3.6.2-1 .9-1.9 2-2.5.6-.3 1.2-.5 1.7-.5s1.1 0 1.5.3c.5.2.9.5 1.3 1 .4.4.8 1 1.1 1.6.7 1.3 1 2.5.8 3.6-.2 1-.9 1.9-2 2.5-.6.3-1.2.5-1.7.5s-1.1 0-1.5-.3c-.5-.2-.9-.5-1.3-1s-.7-.9-1.1-1.6zm1.4-.7c.2.4.5.8.7 1.1.3.3.6.6.9.8a1.93 1.93 0 0 0 1 .3c.4 0 .7-.1 1.1-.3 1.4-.8 1.6-2.2.5-4.2-.2-.4-.5-.8-.7-1.1-.3-.3-.6-.6-.9-.8a1.93 1.93 0 0 0-1-.3c-.4 0-.7.1-1.1.3-1.5.8-1.6 2.2-.5 4.2zm17.8-1.9l-.9.5-1.3-1.9-6 3.2.8 2.1-.9.5-1.7-3.1.9-.5v-.8c0-.4-.1-.9-.3-1.5l-.7-2.2c-.3-.9-.8-1.9-1.4-3l4.8-2.6 3.7 6.8 1.2-.6 1.8 3.1zm-4.1-1.8l-3.1-5.7-2.4 1.3c.2.5.4 1 .7 1.5l.6 1.7.5 1.7c.2.6.2 1 .2 1.5l3.5-2zm2-4.8c-.7-1.3-1-2.5-.8-3.6.2-1 .9-1.9 2-2.5.6-.3 1.2-.5 1.7-.5s1.1 0 1.5.3c.5.2.9.5 1.3 1 .4.4.8 1 1.1 1.6.7 1.3 1 2.5.8 3.6-.2 1-.9 1.9-2 2.5-.6.3-1.2.5-1.7.5s-1.1 0-1.5-.3c-.5-.2-.9-.5-1.3-1-.4-.4-.7-.9-1.1-1.6zm1.3-.7c.2.4.5.8.7 1.1.3.3.6.6.9.8a1.93 1.93 0 0 0 1 .3c.4 0 .7-.1 1.1-.3 1.4-.8 1.6-2.2.5-4.2-.2-.4-.5-.8-.7-1.1-.3-.3-.6-.6-.9-.8a1.93 1.93 0 0 0-1-.3c-.4 0-.7.1-1.1.3-1.4.8-1.6 2.2-.5 4.2zm5.5-8c.4-.2.7-.5 1.1-.7.4-.3.9-.5 1.5-.9 1-.6 1.9-.8 2.5-.7s1.1.4 1.5 1.1c.2.4.3.8.3 1.3s-.2.9-.7 1.4v.1c.7-.2 1.2-.2 1.7-.1.4.2.8.5 1.1 1.1.4.8.5 1.6.1 2.3s-1.2 1.3-2.4 2l-1.3.6c-.4.2-.8.4-1.2.5l-4.2-8zm4.6 1.8c.2-.1.4-.2.5-.4s.3-.3.3-.5c.1-.2.1-.4.1-.6s0-.4-.1-.6a1.27 1.27 0 0 0-.9-.7c-.4-.1-.8.1-1.5.5-.3.2-.6.3-.8.4s-.4.2-.5.3l1.2 2.3 1.7-.7zm.4 4.4l.6-.3c.2-.1.4-.2.7-.4.7-.4 1.2-.8 1.4-1.2s.2-.8 0-1.3a1.27 1.27 0 0 0-.9-.7c-.4-.1-1 .1-1.7.5l-1.4.7 1.3 2.7zm410.8 18.6l-.8-.2-1.4 5.7-1.4-.4 3.1-12.2 1.4.4-1.4 5.7h.8l5.5-4.4 1.7.4-5.4 4.2-.9.4.7.9 3 6.8-1.8-.5-3.1-6.8zm7.5 3.2c.4-1.5 1-2.5 1.8-3.1s1.9-.8 3.1-.5c.7.2 1.2.4 1.6.8.4.3.7.7 1 1.2s.3 1 .3 1.6-.1 1.2-.2 1.9c-.4 1.5-1 2.5-1.8 3.1-.9.6-1.9.8-3.1.5-.7-.2-1.2-.4-1.6-.8-.4-.3-.7-.7-1-1.2-.2-.5-.3-1-.3-1.6s0-1.2.2-1.9zm1.4.4c-.1.4-.2.9-.2 1.3s0 .8.1 1.2.3.7.5.9c.3.3.6.4 1 .6 1.6.4 2.6-.5 3.2-2.8.1-.5.2-.9.2-1.3s0-.8-.1-1.2-.3-.7-.6-.9c-.3-.3-.6-.4-1-.5-1.5-.5-2.5.4-3.1 2.7zm14.5 10.6l-.9-.2.3-2.3-6.6-1.7-.8 2.1-.9-.2.9-3.4 1 .3c.1-.1.3-.3.5-.6s.5-.7.8-1.3a22.02 22.02 0 0 0 .9-2.1l1-3.1 5.3 1.3-1.9 7.5 1.3.3-.9 3.4zm-1.8-4.1l1.6-6.3-2.6-.7c-.1.5-.3 1-.5 1.6a12.2 12.2 0 0 1-.7 1.7 5.3 5.3 0 0 1-.8 1.5c-.3.5-.6.9-.9 1.2l3.9 1zm6.8-2.7c.3 0 .6.1.8.1.3 0 .5.1.7.2.6.1 1.1.3 1.4.6.4.2.6.5.8.8a1.69 1.69 0 0 1 .3 1c0 .3 0 .7-.1 1.1-.3 1.1-.8 1.8-1.5 2.1s-1.7.3-3 0l-2.3-.7 2.2-8.7 1.4.4-.7 3.1zm-1 4.2c.4.2.8.3 1.2.4.7.2 1.3.2 1.6 0 .4-.2.6-.6.7-1.1s.1-.9-.1-1.3-.7-.6-1.4-.8c-.2-.1-.4-.1-.7-.1s-.5-.1-.7-.1l-.6 3zm7.9-6l1.4.4-2.2 8.7-1.4-.4 2.2-8.7zm13.3 7.1l.3-1.1h-.1l-1 .9-5.2 4.1-.8-.2 2.2-8.7 1.4.4-1.3 5.3-.3 1h.1l.9-.9 5.3-4.3.8.2-2.2 8.7-1.4-.4 1.3-5zm4.6 2.5l.3-1.1 1.2.3c.2.1.4.1.6.1s.4-.1.6-.1c.2-.1.4-.2.5-.3s.2-.3.3-.5a1.39 1.39 0 0 0-.2-1.1c-.3-.3-.7-.5-1.3-.6-.5-.1-.9-.2-1.3-.1-.4 0-.7.1-1 .2l-.1-1.2c.4-.1.8-.2 1.4-.2.5 0 1.1 0 1.7.2 1.9.5 2.7 1.4 2.4 2.9-.1.4-.3.8-.7 1.1s-.8.5-1.3.5v.1c.7.3 1.1.7 1.3 1.1s.2.9 0 1.5c-.1.4-.3.7-.5 1s-.5.5-.9.6c-.4.2-.8.2-1.3.3-.5 0-1 0-1.6-.2-.6-.1-1.1-.3-1.4-.5-.4-.2-.7-.4-1-.6l.7-1c.2.2.5.4.9.6s.8.3 1.2.4c.7.2 1.3.2 1.7 0s.7-.5.8-1c.1-.4 0-.8-.3-1.1s-.8-.6-1.6-.8l-1.1-.5zm15.6 1.9l.1 1.7h.1l.8-1.5 3.9-5.8 1.5.4-5.1 7.2-1.3 1.9c-.4.5-.7.9-1.1 1.2-.3.3-.7.5-1 .5-.3.1-.7.1-1.1 0s-.7-.2-.9-.3-.4-.3-.6-.5l.7-1.1c.2.2.4.3.6.4s.4.2.5.2c.3.1.6 0 .9-.3s.6-.7 1-1.3l-2.2-10.2 1.7.4 1.5 7.1zm14.6-1.8l-5.6-1.4-2.8 10.9-1.4-.4 3.1-12.2 8.5 2.1-3.1 12.2-1.4-.4 2.7-10.8zm10.8 16.8l-1-.3.3-2.3-8.6-2.2-.8 2.2-1-.3.9-3.5 1.2.3c.1-.1.3-.4.7-.8.3-.4.7-1 1.1-1.9.4-.8.9-1.9 1.3-3.2.5-1.3 1-2.8 1.4-4.7l6.5 1.6-2.8 10.9 1.6.4-.8 3.8zm-2.2-4.3l2.4-9.6-3.7-.9-1.1 3.4-1 2.6c-.3.7-.7 1.4-1 1.9s-.6 1-.9 1.3l5.3 1.3zM19.4 422.5h-5.8v11.3h-1.5v-12.6h8.8v12.6h-1.5v-11.3zm4.5-1.2c.5-.1.9-.2 1.5-.2s1-.1 1.6-.1 1.1.1 1.7.2 1.1.3 1.6.6.8.7 1.1 1.2.4 1.1.4 1.9-.1 1.4-.4 1.9-.6 1-1.1 1.3-1 .6-1.6.7-1.2.2-1.8.2h-1.4v4.8H24v-12.5h-.1zm3.1 1h-.9c-.3 0-.5 0-.7.1v5.2h1.4c.4 0 .8 0 1.2-.1s.8-.2 1.1-.4a2.36 2.36 0 0 0 .8-.9c.2-.4.3-.8.3-1.4 0-.5-.1-.9-.3-1.2s-.4-.6-.7-.8-.6-.3-1-.4c-.4 0-.8-.1-1.2-.1z"/><use xlink:href="#B" x="-925"/><path d="M54 425.2l.1-1.4H54l-.8 1.5-6.1 8.5h-.9v-12.6h1.5v8.6l-.1 1.4h.1l.8-1.5 6.1-8.6h.9v12.6H54v-8.5zm5.5 2.6v-1.3h2.1c.3-.1.6-.1.9-.3.3-.1.5-.3.7-.4.2-.2.4-.4.5-.6s.2-.5.2-.8c0-.4-.1-.7-.2-1s-.3-.5-.5-.6c-.2-.2-.5-.3-.8-.3-.3-.1-.6-.1-1-.1-.6 0-1.2 0-1.7.1s-.8.2-1.1.3l-.4-1.2c.2-.1.7-.3 1.3-.4s1.3-.2 2.1-.2c.5 0 1 .1 1.4.2.5.1.9.3 1.2.5s.7.6.9 1 .3.9.3 1.5-.2 1.2-.6 1.7-1 .9-1.8 1.2v.1c.8.1 1.5.4 2 1 .5.5.7 1.2.7 2.1 0 .7-.1 1.3-.4 1.8s-.6.9-1.1 1.2-.9.6-1.5.7c-.6.2-1.1.2-1.7.2-.8 0-1.4 0-2-.1s-.9-.2-1.3-.3l.4-1.3c.3.1.7.2 1.2.3s1.1.1 1.8.1c.4 0 .7-.1 1.1-.2s.7-.3 1-.5.5-.5.7-.8.3-.7.3-1.1c0-.8-.3-1.3-.8-1.7s-1.2-.6-2.1-.6h-1.8v-.2zm16.4-3.7c0 .3 0 .6-.1.9s-.2.6-.4.9-.4.5-.7.6-.7.3-1.1.4v.1c.4.1.7.2 1 .4s.6.4.9.7.5.6.6.9a4.44 4.44 0 0 1 .2 1.3c0 .7-.1 1.2-.4 1.7s-.6.9-1.1 1.2-.9.5-1.5.7c-.6.1-1.1.2-1.7.2H70c-.3 0-.6 0-.9-.1s-.6-.1-.8-.1v-12.3c.4-.1 1-.1 1.6-.2.6 0 1.2-.1 1.9-.1.5 0 .9 0 1.4.1s.9.2 1.3.4.7.5 1 .9.4.7.4 1.4zm-5.2 2.4h.7c.3 0 .5 0 .7-.1l.8-.3c.3-.1.5-.2.7-.4s.4-.4.5-.7c.1-.2.2-.5.2-.8 0-.4-.1-.7-.2-.9s-.3-.4-.6-.6-.5-.3-.9-.3c-.3-.1-.7-.1-1-.1h-1.1c-.3 0-.6 0-.7.1v4l.9.1zm1 6.1c.4 0 .8 0 1.1-.1.4-.1.7-.2 1-.4s.5-.4.7-.7.2-.6.2-1c0-.5-.1-.9-.3-1.3s-.5-.6-.8-.8-.7-.3-1.1-.3c-.4-.1-.8-.1-1.2-.1h-1.6v4.7c.1 0 .2 0 .4.1s.3 0 .5 0h.6c.2 0 .4-.1.5-.1z"/><use xlink:href="#B" x="-880.2"/><path d="M101.1 436.1h-1l-.3-2.3H91l-.3 2.3h-1v-3.7H91c.1-.1.2-.4.4-.9s.4-1.2.6-2.1a22.71 22.71 0 0 0 .5-3.4c.2-1.4.2-3 .2-4.9h6.7v11.3h1.6v3.7h.1zm-3.1-3.7v-9.9h-3.8c0 1.3-.1 2.5-.2 3.6s-.2 2-.4 2.8l-.5 2.1a11.64 11.64 0 0 1-.6 1.5H98v-.1z"/><use xlink:href="#C" x="-890"/><path d="M123.6 422.5h-3.9v11.3h-1.5v-11.3h-3.9v-1.3h9.3v1.3zm1.8-1.3h6.9v1.3h-5.4v4.1h4.9v1.3h-4.9v4.5h5.5v1.3h-7v-12.5zm16.4 1.3H138l-.5 6c-.2 1.6-.5 2.8-.9 3.7-.3.6-.6 1-.9 1.3-.4.3-.7.4-1.2.4h-.6c-.2 0-.3-.1-.4-.1l.2-1.3c.1 0 .2.1.4.1s.4-.1.6-.2.4-.4.6-.7.3-.8.5-1.3.3-1.2.4-2.1l.3-3 .2-4h6.7v12.6h-1.5v-11.4h-.1zm4.5-1.3h1.5v4.9h1.8c.6 0 1.1.1 1.7.2.5.1 1 .3 1.5.6s.8.7 1 1.2.4 1.1.4 1.8-.1 1.3-.4 1.9-.6 1-1 1.3-1 .6-1.6.8-1.2.3-1.9.3h-1.4c-.3 0-.5 0-.8-.1s-.5-.1-.7-.1l-.1-12.8zm3.1 11.4c.4 0 .8-.1 1.2-.2s.7-.3 1-.5.5-.5.7-.9.2-.8.2-1.2c0-.5-.1-.9-.3-1.3a1.85 1.85 0 0 0-.7-.8c-.3-.2-.6-.3-1-.4s-.8-.1-1.2-.1h-.9c-.2 0-.3 0-.4.1-.1 0-.2 0-.3.1v5.1c.2 0 .4.1.7.1h1zm333.3 3.5h-1l-.3-2.3h-8.8l-.3 2.3h-1v-3.7h1.3c.1-.1.2-.4.4-.9s.4-1.2.6-2.1a22.71 22.71 0 0 0 .5-3.4c.2-1.4.2-3 .2-4.9h6.7v11.3h1.6l.1 3.7zm-3.2-3.7v-9.9h-3.8c0 1.3-.1 2.5-.2 3.6s-.2 2-.4 2.8l-.5 2.1a11.64 11.64 0 0 1-.6 1.5h5.5v-.1z"/><use xlink:href="#C" x="-508.5"/><path d="M505 433.3c-.4.3-.8.5-1.4.6s-1.1.2-1.8.2c-.8 0-1.5-.1-2.1-.4-.7-.3-1.2-.7-1.7-1.2s-.9-1.2-1.2-2-.4-1.8-.4-2.9c0-1.2.2-2.2.5-3s.7-1.5 1.3-2 1.1-.9 1.8-1.1 1.3-.4 2-.4 1.3 0 1.8.1l1.2.3-.4 1.3c-.6-.3-1.4-.4-2.5-.4-.5 0-1 .1-1.5.3s-.9.5-1.3.9-.7.9-.9 1.6-.3 1.5-.3 2.4.1 1.6.3 2.3c.2.6.5 1.2.9 1.6s.8.8 1.3 1 1.1.3 1.7.3c.5 0 1-.1 1.4-.2s.7-.2 1-.4l.3 1.1zm10.4-10.8h-3.9v11.3H510v-11.3h-4v-1.3h9.3v1.3h.1z"/><use xlink:href="#K"/><path d="M535 425.2l.1-1.4h-.1l-.8 1.5-6.1 8.5h-.9v-12.6h1.5v8.6l-.1 1.4h.1l.8-1.5 6.1-8.6h.9v12.6H535v-8.5zm4.6-4h6.8v1.3h-5.3v3.8c.2 0 .5-.1.8-.1s.6-.1.9-.1c.6 0 1.2.1 1.7.2.6.1 1 .3 1.5.6a2.59 2.59 0 0 1 1 1.1 4.36 4.36 0 0 1 .4 1.8c0 .7-.1 1.3-.4 1.9s-.6.9-1 1.3c-.4.3-.9.6-1.5.7-.6.2-1.1.2-1.8.2h-1.5c-.3 0-.6 0-.8-.1s-.5-.1-.7-.1v-12.5h-.1zm3.2 11.4c.4 0 .7-.1 1.1-.2.3-.1.7-.3.9-.5s.5-.5.6-.8c.2-.3.2-.7.2-1.1 0-.6-.1-1-.3-1.3s-.4-.6-.7-.8-.6-.3-1-.4-.8-.1-1.2-.1h-1.5v5c.1 0 .2 0 .3.1s.3 0 .5 0h.5a1.76 1.76 0 0 0 .6.1zm6.7-11.4h1.5v4.9h1.8c.6 0 1.1.1 1.7.2.5.1 1 .3 1.5.6s.8.7 1 1.2.4 1.1.4 1.8-.1 1.3-.4 1.9-.6 1-1 1.3-1 .6-1.6.8-1.2.3-1.9.3h-1.4c-.3 0-.5 0-.8-.1s-.5-.1-.7-.1v-12.8h-.1zm3.1 11.4c.4 0 .8-.1 1.2-.2s.7-.3 1-.5.5-.5.7-.9.2-.8.2-1.2c0-.5-.1-.9-.3-1.3a1.85 1.85 0 0 0-.7-.8c-.3-.2-.6-.3-1-.4s-.8-.1-1.2-.1h-.9c-.2 0-.3 0-.4.1-.1 0-.2 0-.3.1v5.1c.2 0 .4.1.7.1h1zm8.3-5.9h2.2c.1-1.8.6-3.2 1.4-4.2s2-1.5 3.5-1.5c.9 0 1.6.2 2.3.5.6.3 1.1.8 1.5 1.3.4.6.7 1.3.8 2.1.2.8.3 1.7.3 2.7 0 2.1-.4 3.7-1.2 4.8s-2 1.7-3.7 1.7c-.8 0-1.5-.1-2.2-.4-.6-.3-1.1-.7-1.5-1.2s-.7-1.2-.9-1.9-.3-1.6-.4-2.5h-2.2v5.8h-1.5v-12.6h1.5v5.4h.1zm3.8.8c0 .7.1 1.4.2 2s.3 1.2.6 1.6.6.9 1 1.1 1 .4 1.6.4c1.1 0 1.9-.4 2.5-1.3.5-.8.8-2.1.8-3.9 0-.7-.1-1.3-.2-2-.1-.6-.3-1.2-.5-1.7-.3-.5-.6-.8-1-1.1s-.9-.4-1.6-.4c-1.1 0-2 .4-2.5 1.3-.6.9-.9 2.2-.9 4zm19-5h-3.9v11.3h-1.5v-11.3h-3.9v-1.3h9.3v1.3z"/><use xlink:href="#B" x="-373.5"/><use xlink:href="#K" x="80.6"/><path d="M859.2 397.9l-218.6.1" class="a b c d f"/><path d="M865.5 398l-9.4-10 2.8 9.8-3.5 9.6z" class="g"/><path d="M413 397.9l-218.6.1" class="a b c d f"/><path d="M419.3 398l-9.4-10 2.8 9.8-3.5 9.6z" class="g"/><path d="M685.6 377.9h5.2c-.1-.7-.2-1.4-.4-1.9s-.5-1-.9-1.4-.8-.6-1.3-.8-1-.3-1.5-.3c-.6 0-1.1 0-1.5.1s-.8.2-1.1.4l-.4-1.2c.4-.2.8-.4 1.4-.5s1.1-.2 1.8-.2c.8 0 1.5.1 2.1.4.7.2 1.2.6 1.7 1.1s.9 1.2 1.1 2c.3.8.4 1.8.4 3s-.2 2.2-.5 3-.7 1.5-1.3 2c-.5.5-1.2.9-1.9 1.1s-1.4.4-2.2.4c-.6 0-1.1 0-1.6-.1l-1.2-.3.4-1.3a8.11 8.11 0 0 0 1.1.3c.4.1.9.1 1.4.1s1-.1 1.5-.2c.5-.2.9-.4 1.3-.8s.7-.9 1-1.5.4-1.3.5-2.2h-5.2v-1.2h.1z"/><use xlink:href="#E" x="-42.2" y="291.4"/><use xlink:href="#L"/><path d="M715.1 381h-.8v4.1h-1.4v-9h1.4v4.1l.8-.3 2.9-3.8h1.6l-2.8 3.6-.8.6.9.7 3 4.1h-1.8l-3-4.1zm12.1-3.7h-2.8v7.7H723v-7.7h-2.8V376h7.1l-.1 1.3zm1.4-1.3h1l.3 1.1h.1c.3-.4.6-.7 1.1-1s.9-.3 1.5-.3c1.2 0 2.1.4 2.7 1.1s.9 1.9.9 3.5c0 .8-.1 1.4-.3 2a5.3 5.3 0 0 1-.8 1.5 6.42 6.42 0 0 1-1.3 1c-.5.3-1.1.3-1.7.3-.4 0-.8 0-1.1-.1s-.5-.1-.8-.3v3.7h-1.4V376h-.2zm3.6 1.1c-.6 0-1.1.2-1.4.5s-.6.8-.7 1.5v4.5c.2.2.5.3.7.4.3.1.6.1 1.1.1.8 0 1.5-.3 2-.9s.7-1.5.7-2.7c0-.5 0-.9-.1-1.3s-.2-.7-.4-1-.4-.5-.7-.7c-.4-.4-.7-.4-1.2-.4zm5.6 3.4c0-1.5.3-2.7 1-3.5s1.7-1.2 2.9-1.2c.7 0 1.3.1 1.8.3s.9.5 1.2 1 .6.9.7 1.5.2 1.2.2 1.9c0 1.5-.3 2.7-1 3.5s-1.7 1.2-2.9 1.2c-.7 0-1.3-.1-1.8-.3s-.9-.5-1.2-1-.6-.9-.7-1.5-.2-1.2-.2-1.9zm1.5 0c0 .5 0 .9.1 1.3s.2.8.4 1.1.4.6.8.8c.3.2.7.3 1.1.3 1.6 0 2.4-1.1 2.4-3.5 0-.5 0-.9-.1-1.3s-.2-.8-.4-1.1-.4-.6-.8-.8c-.3-.2-.7-.3-1.1-.3-1.5 0-2.4 1.2-2.4 3.5zm14.2.5h-4.1v4H748v-9h1.4v3.8h4.1V376h1.4v9h-1.4v-4zm9.7 0h-4.1v4h-1.4v-9h1.4v3.8h4.1V376h1.4v9h-1.4v-4z"/><use xlink:href="#D" x="248.7" y="165.3"/><path d="M784.9 379.7l.1-1.1h-.1l-.7 1.2-4.1 5.3h-.8v-9h1.4v5.5l-.1 1.1h.1l.7-1.1 4.1-5.4h.9v9H785v-5.5h-.1zm-3.5-7.3c.1.6.3.9.6 1.2a1.69 1.69 0 0 0 1 .3 1.69 1.69 0 0 0 1-.3c.3-.2.5-.6.6-1.1l1.1.3c-.1.7-.4 1.2-.9 1.6s-1.1.6-1.8.6c-.3 0-.6 0-1-.1-.3-.1-.6-.2-.9-.4s-.5-.4-.7-.6-.3-.6-.4-.9l1.4-.6z"/><use xlink:href="#M"/><path d="M811.4 373.7h-5.8V385h-1.5v-12.6h8.8V385h-1.5v-11.3zm14.5 13.6h-1l-.3-2.3h-8.8l-.3 2.3h-1v-3.7h1.3c.1-.1.2-.4.4-.9s.4-1.2.6-2.1a22.71 22.71 0 0 0 .5-3.4c.2-1.4.2-3 .2-4.9h6.7v11.3h1.6l.1 3.7zm-3.1-3.6v-9.9H819c0 1.3-.1 2.5-.2 3.6s-.2 2-.4 2.8l-.5 2.1a11.64 11.64 0 0 1-.6 1.5h5.5v-.1zm-586.1-5.8h5.2c-.1-.7-.2-1.4-.4-1.9s-.5-1-.9-1.4-.8-.6-1.3-.8-1-.3-1.5-.3c-.6 0-1.1 0-1.5.1s-.8.2-1.1.4l-.4-1.2c.4-.2.8-.4 1.4-.5s1.1-.2 1.8-.2c.8 0 1.5.1 2.1.4.7.2 1.2.6 1.7 1.1s.9 1.2 1.1 2c.3.8.4 1.8.4 3s-.2 2.2-.5 3-.7 1.5-1.3 2c-.5.5-1.2.9-1.9 1.1s-1.4.4-2.2.4c-.6 0-1.1 0-1.6-.1l-1.2-.3.4-1.3a8.11 8.11 0 0 0 1.1.3c.4.1.9.1 1.4.1s1-.1 1.5-.2c.5-.2.9-.4 1.3-.8s.7-.9 1-1.5.4-1.3.5-2.2h-5.2l.1-1.2zm13.9-.6H248c0 .5-.1 1-.1 1.6s-.1 1.2-.2 1.8l-.3 1.7c-.1.6-.3 1-.5 1.4s-.4.7-.7 1-.6.4-1 .4h-.6c-.2 0-.3-.1-.4-.1l.2-1.2c.1 0 .3.1.5.1s.5-.1.6-.3c.2-.2.4-.6.5-1.2l.4-2.4.2-3.9h5.4v9h-1.4v-7.9z"/><use xlink:href="#L" x="-448.9"/><path d="M266.2 381h-.8v4.1H264v-9h1.4v4.1l.8-.3 2.9-3.8h1.6l-2.8 3.6-.8.6.9.7 3 4.1h-1.8l-3-4.1zm12.1-3.7h-2.8v7.7H274v-7.7h-2.8V376h7.1v1.3zm1.4-1.3h1l.3 1.1h.1c.3-.4.6-.7 1.1-1s.9-.3 1.5-.3c1.2 0 2.1.4 2.7 1.1s.9 1.9.9 3.5c0 .8-.1 1.4-.3 2a5.3 5.3 0 0 1-.8 1.5 6.42 6.42 0 0 1-1.3 1c-.5.3-1.1.3-1.7.3-.4 0-.8 0-1.1-.1s-.5-.1-.8-.3v3.7h-1.4V376h-.2zm3.7 1.1c-.6 0-1.1.2-1.4.5s-.6.8-.7 1.5v4.5c.2.2.5.3.7.4.3.1.6.1 1.1.1.8 0 1.5-.3 2-.9s.7-1.5.7-2.7c0-.5 0-.9-.1-1.3s-.2-.7-.4-1-.4-.5-.7-.7c-.4-.4-.8-.4-1.2-.4zm5.6 3.4c0-1.5.3-2.7 1-3.5s1.7-1.2 2.9-1.2c.7 0 1.3.1 1.8.3s.9.5 1.2 1 .6.9.7 1.5.2 1.2.2 1.9c0 1.5-.3 2.7-1 3.5s-1.7 1.2-2.9 1.2c-.7 0-1.3-.1-1.8-.3s-.9-.5-1.2-1-.6-.9-.7-1.5-.2-1.2-.2-1.9zm1.5 0c0 .5 0 .9.1 1.3s.2.8.4 1.1.4.6.8.8c.3.2.7.3 1.1.3 1.6 0 2.4-1.1 2.4-3.5 0-.5 0-.9-.1-1.3s-.2-.8-.4-1.1-.4-.6-.8-.8c-.3-.2-.7-.3-1.1-.3-1.6 0-2.4 1.2-2.4 3.5zm14.1.5h-4.1v4h-1.4v-9h1.4v3.8h4.1V376h1.4v9h-1.4v-4zm9.7 0h-4.1v4h-1.4v-9h1.4v3.8h4.1V376h1.4v9h-1.4v-4z"/><use xlink:href="#D" x="-200.2" y="165.3"/><path d="M336.1 379.7l.1-1.1h-.1l-.7 1.2-4.1 5.3h-.8v-9h1.4v5.5l-.1 1.1h.1l.7-1.1 4.1-5.4h.9v9h-1.4v-5.5h-.1zm-3.6-7.3c.1.6.3.9.6 1.2a1.69 1.69 0 0 0 1 .3 1.69 1.69 0 0 0 1-.3c.3-.2.5-.6.6-1.1l1.1.3c-.1.7-.4 1.2-.9 1.6s-1.1.6-1.8.6c-.3 0-.6 0-1-.1-.3-.1-.6-.2-.9-.4s-.5-.4-.7-.6-.3-.6-.4-.9l1.4-.6z"/><use xlink:href="#M" x="-448.9"/><path d="M362.5 373.7h-5.8V385h-1.5v-12.6h8.8V385h-1.5v-11.3zm14.5 13.6h-1l-.3-2.3h-8.8l-.3 2.3h-1v-3.7h1.3c.1-.1.2-.4.4-.9s.4-1.2.6-2.1a22.71 22.71 0 0 0 .5-3.4c.2-1.4.2-3 .2-4.9h6.7v11.3h1.6l.1 3.7zm-3.1-3.6v-9.9h-3.8c0 1.3-.1 2.5-.2 3.6s-.2 2-.4 2.8l-.5 2.1a11.64 11.64 0 0 1-.6 1.5h5.5v-.1z"/><g class="b c a"><g class="d"><path d="M1032.8 111.5h-94.9c-8.9-.1-16.1-8.3-16-18.4 0-8.8 5.7-16.4 13.4-17.9.2-10.9 8-19.7 17.7-19.7 2.4 0 4.8.6 7 1.7 3.6-15.1 17.4-24 30.7-19.8 8.7 2.7 15.5 10.5 17.7 20.4 8.7-5 19.3-1.2 23.8 8.6a23.08 23.08 0 0 1 2 8.7c8.9.8 15.5 9.6 14.8 19.6-.9 9.4-7.9 16.8-16.2 16.8h0z"/><path d="M466.9 400.9h140.2" class="e"/></g><path d="M601.6 356.1v-52.8m-129.5.9v96.7h129.5" class="e"/><path d="M580.8 331.2h-87.7v70.3h87.7" class="e"/><path d="M491 318.1h92v13.1h-92z" class="d e"/><path d="M495.3 325.7h4.4m2.2 0h2.2" class="e"/><path d="M611.4 299.2l-73.8-30.5-73.9 30.5v8.7l73.9-30.5 73.8 30.5z" class="d e"/><path d="M482.8 290.6v9.5m20.4-17v9m20.4-18v9.2m68.7 7.3v9.4M572 282.7v8.9m-20.4-17.3v9" class="e"/><path d="M493.6 338.4h87.6" class="d e"/><path d="M493.6 335.4h87.6" class="e"/><path d="M580.8 331.2V348" class="e"/></g><path d="M629.5 91.7c.1 9.4-3.4 18.2-9.8 24.6-5.8 5.9-13.4 9.1-21.5 9.1H482.5c-19.2 0-34.9-16.8-34.9-37.4 0-16.7 10.5-31.5 25.5-36l.6-.2.1-.6c2.6-12 12.9-20.7 24.5-20.7 2.3 0 4.6.3 6.7 1l.7.2.4-.7c10.2-17.1 27.6-27.4 46.5-27.4 14.6 0 28.3 6.1 38.7 17.1l1.4-1.4C582 7.9 567.7 1.6 552.6 1.6c-19.4 0-37.2 10.3-47.8 27.7-2.1-.6-4.3-.8-6.6-.8-12.3 0-23.2 9.1-26.3 21.7-15.5 4.9-26.3 20.4-26.3 37.8 0 21.7 16.5 39.4 36.9 39.4h115.8c8.6 0 16.7-3.4 22.9-9.7 6.8-6.8 10.4-16 10.4-26 0-6.3-1.6-12.5-4.7-18-.6.3-1.3.5-1.9.7 2.9 5.2 4.5 11.2 4.5 17.3z" class="g"/><g fill="#00476b"><path d="M614.8 52.6l-15.1-24.5c0-.1 0-.1.1-.1l8.1 4.3 7.7 19.3-.8 1zm16.1-8.7l-1.2-10.3-4.3 5.5z"/><path d="M603.1 67.7c-.1.1.1.2 0 0l14.2-12.2-1.7-4.1-12.5 16.3z"/></g><path d="M629.7 33.6l8-3c.1 0 .1 0 .1.1l-7 11.9-1.1-9zM603 19.9l14.2 35.7 13.7-11.7-27.8-24.1s-.1 0-.1.1z" fill="#008bbf"/><path d="M481.8 87.4c0-2.1.4-3.7 1.3-4.8s2.2-1.7 3.8-1.7c.9 0 1.7.2 2.3.5a5.09 5.09 0 0 1 1.6 1.3c.4.6.7 1.3.9 2.1s.3 1.7.3 2.7c0 2.1-.4 3.7-1.3 4.8s-2.2 1.7-3.8 1.7c-.9 0-1.6-.2-2.3-.5a5.09 5.09 0 0 1-1.6-1.3c-.4-.5-.7-1.3-.9-2.1-.2-.9-.3-1.7-.3-2.7zm1.6 0c0 .7.1 1.4.2 2s.4 1.2.6 1.6a2.91 2.91 0 0 0 1.1 1.1c.4.2 1 .4 1.6.4 1.1 0 2-.4 2.6-1.3.6-.8 1-2.2 1-3.9 0-.7-.1-1.3-.2-2-.1-.6-.4-1.2-.7-1.7s-.7-.8-1.1-1.1-1-.4-1.6-.4c-1.1 0-2 .4-2.6 1.3s-.9 2.2-.9 4zm16.5-1.5h-4v7.7h-1.4v-9h6.9v9H500v-7.7h-.1zm10.8 7.1c-.4.3-.8.5-1.4.7s-1.1.3-1.7.3c-.7 0-1.3-.1-1.8-.3s-.9-.5-1.2-1-.6-.9-.7-1.5-.2-1.2-.2-1.9c0-1.5.3-2.7 1-3.5s1.7-1.2 2.9-1.2c.4 0 .8 0 1.2.1s.8.3 1.1.5.6.6.8 1.1.3 1.1.3 1.8c0 .4 0 .8-.1 1.3h-5.8c0 .5.1 1 .2 1.4s.3.8.5 1c.2.3.5.5.9.6s.8.2 1.3.2c.4 0 .8-.1 1.2-.2s.7-.3.9-.5l.6 1.1zm-3.1-7.3c-.7 0-1.3.2-1.7.6s-.7 1-.8 1.9h4.5c0-.9-.2-1.6-.5-1.9-.4-.4-.9-.6-1.5-.6z"/><use xlink:href="#N"/><use xlink:href="#H" x="-272"/><path d="M537.7 85.9h-2.8v7.7h-1.4v-7.7h-2.8v-1.3h7.1l-.1 1.3zm.9 3.3c0-1.5.3-2.7 1-3.5s1.7-1.2 2.9-1.2c.7 0 1.3.1 1.8.3s.9.5 1.2 1 .6.9.7 1.5.2 1.2.2 1.9c0 1.5-.3 2.7-1 3.5s-1.7 1.2-2.9 1.2c-.7 0-1.3-.1-1.8-.3s-.9-.5-1.2-1-.6-.9-.7-1.5-.2-1.2-.2-1.9zm1.5 0c0 .5 0 .9.1 1.3s.2.8.4 1.1.4.6.8.8c.3.2.7.3 1.1.3 1.6 0 2.4-1.1 2.4-3.5 0-.5 0-.9-.1-1.3s-.2-.8-.4-1.1-.4-.6-.8-.7c-.3-.2-.7-.3-1.1-.3-1.6-.1-2.4 1.1-2.4 3.4z"/><use xlink:href="#N" x="35.5"/><path d="M564.6 86.6h5.2c-.1-.7-.2-1.4-.4-1.9s-.5-1-.9-1.4-.8-.6-1.3-.8-1-.3-1.5-.3c-.6 0-1.1 0-1.5.1s-.8.2-1.1.4l-.4-1.2c.4-.2.8-.4 1.4-.5s1.1-.2 1.8-.2c.8 0 1.5.1 2.1.4.7.2 1.2.6 1.7 1.1s.9 1.2 1.1 2 .4 1.8.4 3-.2 2.2-.5 3-.7 1.5-1.3 2c-.5.5-1.2.9-1.9 1.1s-1.4.4-2.2.4c-.6 0-1.1 0-1.6-.1l-1.2-.3.4-1.3a8.11 8.11 0 0 0 1.1.3c.4.1.9.1 1.4.1s1-.1 1.5-.2c.5-.2.9-.4 1.3-.8s.7-.9 1-1.5.4-1.3.5-2.2h-5.2v-1.2h.1zm19.2 9.4h-1l-.3-2.3h-8.8l-.3 2.3h-1v-3.7h1.3c.1-.1.2-.4.4-.9s.4-1.2.6-2.1a22.71 22.71 0 0 0 .5-3.4c.2-1.4.2-3 .2-4.9h6.7v11.3h1.6l.1 3.7zm-3.1-3.7v-9.9h-3.8c0 1.3-.1 2.5-.2 3.6s-.2 2-.4 2.8l-.5 2.1a11.64 11.64 0 0 1-.6 1.5l5.5-.1zm4.6-4.9c0-2.1.4-3.7 1.3-4.8s2.2-1.7 3.8-1.7c.9 0 1.7.2 2.3.5a5.09 5.09 0 0 1 1.6 1.3c.4.6.7 1.3.9 2.1s.3 1.7.3 2.7c0 2.1-.4 3.7-1.3 4.8S592 94 590.4 94c-.9 0-1.6-.2-2.3-.5a5.09 5.09 0 0 1-1.6-1.3c-.4-.5-.7-1.3-.9-2.1-.2-.9-.3-1.7-.3-2.7zm1.6 0c0 .7.1 1.4.2 2s.4 1.2.6 1.6a2.91 2.91 0 0 0 1.1 1.1c.4.2 1 .4 1.6.4 1.1 0 2-.4 2.6-1.3.6-.8 1-2.2 1-3.9 0-.7-.1-1.3-.2-2-.1-.6-.4-1.2-.7-1.7s-.7-.8-1.1-1.1-1-.4-1.6-.4c-1.1 0-2 .4-2.6 1.3s-.9 2.2-.9 4zM492.4 66l.2-1.9h-.1l-.7 1.7-3.3 5.7h-.5l-3.5-5.7-.7-1.7h-.1l.3 1.9v8.5h-1.4V61.9h1.1l3.9 6.5.6 1.4.6-1.4 3.8-6.4h1.2v12.6h-1.5V66h.1zm10.5 5h-4.6l-1.3 3.5h-1.5l4.8-12.8h.7l4.8 12.8h-1.6l-1.3-3.5zm-4.1-1.3h3.7l-1.4-3.8-.4-1.9-.4 1.9-1.5 3.8zm8.7-7.7c.5-.1.9-.2 1.5-.2s1-.1 1.6-.1 1.1.1 1.7.2 1.1.3 1.6.6.8.7 1.1 1.2.4 1.1.4 1.9-.1 1.4-.4 1.9-.6 1-1.1 1.3-1 .6-1.6.7-1.2.2-1.8.2h-1.4v4.8h-1.5V62h-.1zm3.1 1h-.9c-.3 0-.5 0-.7.1v5.2h1.4c.4 0 .8 0 1.2-.1s.8-.2 1.1-.4a2.36 2.36 0 0 0 .8-.9c.2-.4.3-.8.3-1.4 0-.5-.1-.9-.3-1.2s-.4-.6-.7-.8-.6-.3-1-.4c-.5 0-.9-.1-1.2-.1zm9.3 5.7h-.9v5.8h-1.5V61.9h1.5v5.9l.8-.3 4.2-5.6h1.7l-4.2 5.4-.8.6.9.7 4.6 5.9h-1.9l-4.4-5.8zm16.3-2.7l.1-1.4h-.1l-.8 1.5-6.1 8.5h-.9V61.9h1.5v8.6l-.1 1.4h.1l.8-1.5 6.1-8.6h.9v12.6h-1.5V66zm4.6-4c.5-.1.9-.2 1.5-.2s1-.1 1.6-.1 1.1.1 1.7.2 1.1.3 1.6.6.8.7 1.1 1.2.4 1.1.4 1.9-.1 1.4-.4 1.9-.6 1-1.1 1.3-1 .6-1.6.7-1.2.2-1.8.2h-1.4v4.8h-1.5l-.1-12.5zm3.1 1h-.9c-.3 0-.5 0-.7.1v5.2h1.4c.4 0 .8 0 1.2-.1s.8-.2 1.1-.4a2.36 2.36 0 0 0 .8-.9c.2-.4.3-.8.3-1.4 0-.5-.1-.9-.3-1.2s-.4-.6-.7-.8-.6-.3-1-.4c-.5 0-.9-.1-1.2-.1z"/><use xlink:href="#B" x="-408.2" y="-359.3"/><path d="M570.7 64.8c0 .3 0 .6-.1.9s-.2.6-.4.9-.4.5-.7.6-.7.3-1.1.4v.1c.4.1.7.2 1 .4s.6.4.9.7.5.6.6.9a4.44 4.44 0 0 1 .2 1.3c0 .7-.1 1.2-.4 1.7s-.6.9-1.1 1.2-.9.5-1.5.7c-.6.1-1.1.2-1.7.2h-1.6c-.3 0-.6 0-.9-.1s-.6-.1-.8-.1V62.1c.4-.1 1-.1 1.6-.2.6 0 1.2-.1 1.9-.1.5 0 .9 0 1.4.1s.9.2 1.3.4.7.5 1 .9.4.9.4 1.6zm-5.1 2.5h.7c.3 0 .5 0 .7-.1l.8-.3c.3-.1.5-.2.7-.4s.4-.4.5-.7c.1-.2.2-.5.2-.8 0-.4-.1-.7-.2-.9s-.3-.4-.6-.6-.5-.3-.9-.3c-.3-.1-.7-.1-1-.1h-1.1c-.3 0-.6 0-.7.1v4h.9v.1zm1 6c.4 0 .8 0 1.1-.1.4-.1.7-.2 1-.4s.5-.4.7-.7.2-.6.2-1c0-.5-.1-.9-.3-1.3s-.5-.6-.8-.8-.7-.3-1.1-.3c-.4-.1-.8-.1-1.2-.1h-1.6v4.7c.1 0 .2 0 .4.1s.3 0 .5 0h.6c.2 0 .3-.1.5-.1zm9.4-4.6h-.8v5.8h-1.5V61.9h1.5v5.9l.8-.3 4.2-5.6h1.7l-4.2 5.4-.8.6.9.7 4.6 5.9h-1.9l-4.5-5.8zm14.6 2.3H586l-1.3 3.5h-1.5l4.8-12.8h.7l4.8 12.8h-1.6l-1.3-3.5zm-4.1-1.3h3.7l-1.4-3.8-.4-1.9-.4 1.9-1.5 3.8z"/><path d="M436.4 21.6h22.1c4.5 0 6.1.5 7.8 1.4 1.6.9 3 2.2 3.8 3.8.9 1.6 1.4 3.3 1.4 7.8v22.1c0 4.5-.5 6.1-1.4 7.8-.9 1.6-2.2 3-3.8 3.8-1.6.9-3.3 1.3-7.8 1.3h-22.1c-4.5 0-6.1-.5-7.8-1.3-1.6-.9-3-2.2-3.8-3.8-.9-1.6-1.4-3.3-1.4-7.8V34.5c0-4.5.5-6.1 1.3-7.8.9-1.6 2.2-3 3.8-3.8 1.8-.9 3.4-1.3 7.9-1.3z" fill="#eae60e"/><path d="M459.5 31.3a2.26 2.26 0 0 1 2.3 2.3v5.7h4.8v-5.7c0-3.9-3.2-7.1-7-7.1h-5.7v4.8h5.6zm2.2 26.3a2.26 2.26 0 0 1-2.3 2.3h-5.7v4.8h5.7c3.9 0 7-3.1 7-7V52h-4.7v5.6zm-28.5-24a2.26 2.26 0 0 1 2.3-2.3h5.7v-4.8h-5.7c-3.9 0-7 3.2-7 7.1v5.7h4.8l-.1-5.7zm2.3 26.2a2.26 2.26 0 0 1-2.3-2.3v-5.7h-4.8v5.7c0 3.9 3.2 7 7 7h5.7v-4.8l-5.6.1zm9.2-2.8l-10.2-10.2 3.4-3.4 6.8 6.8L457 37.9l3.4 3.4L444.7 57z" fill="#63666a"/><g class="b"><g class="d"><g class="h"><path d="M590.5 392.9h-6.9v-35h19.8c1.7 0 3.2 1 3.8 2.6h0c3.1 8.1 4.8 16.7 4.8 25.4v4.4"/><path d="M536.4,390.2v-39.1c0-1.5,1.2-2.7,2.7-2.7h41.8c1.5,0,2.7,1.2,2.7,2.7v41.8h-22.9"/></g><path d="M517.6 401h99.7" class="c"/></g><path d="M606.5 361.2h-14.2v22.9h6.1c3.9 0 7.3 2.6 8.4 6.2M531.5 407l10.8-5.6m58 5.6l10.7-5.6m-24.5 5.6l10.8-5.6m-24.5 5.6l10.7-5.6M559 407l10.8-5.6m-24.5 5.6l10.8-5.6" class="c"/><g class="d"><path d="M603.8 394.2h9.5v-4h-10.8m-53.9 0h-13.5v4h12.1" class="c"/><circle cx="597.1" cy="394.2" r="6.7" class="h"/></g><circle cx="597.1" cy="394.2" r="2.7" class="c"/><circle cx="554" cy="394.2" r="6.7" class="d h"/><g class="c"><circle cx="554" cy="394.2" r="2.7"/><path d="M611.9 373.4h-18.8"/></g></g><path d="M611 379.1c-1.3 0-2.7 1.2-2.7 2.7s1.3 2.7 2.7 2.7v-5.4z" class="g"/><path d="M583.6 389.5h-24.2" class="b c"/><path d="M545.1 364.8h3.9l1.5 5.8 1.5-5.8h3.9v9.5h-2.4V367l-1.9 7.3h-2.2l-1.9-7.3v7.3h-2.4v-9.5zm12.6 0h2.6v1.8h-2.6v-1.8zm0 2.6h2.6v6.9h-2.6v-6.9zm4.4-2.6h2.7v9.5h-2.7v-9.5zm4.3 0h2.7v4.9l2-2.3h3.3l-2.5 2.4 2.6 4.5h-3l-1.4-2.8-1 1v1.8h-2.7v-9.5z" class="g"/><g class="b c a e"><path d="M103.8 272.2v-2.9h5.8v8.3m3.2 23.7v31.1H56.5v-31.1" class="f"/><path d="M56.5 299.3c0-15.5 12.6-28.2 28.2-28.2h0c15.5 0 28.2 12.6 28.2 28.2v1.6a2.22 2.22 0 0 0 2.2 2.2h0a2.22 2.22 0 0 0 2.2-2.2V299c0-18-14.6-32.6-32.6-32.6h0C66.6 266.4 52 281 52 299v1.8a2.22 2.22 0 0 0 2.2 2.2h0a2.22 2.22 0 0 0 2.2-2.2l.1-1.5zm28.3 2h15.5v31.1H84.8z"/><path d="M100.3 301.3l-15.5 15.5 15.5 15.6" class="f"/><path d="M69.4 301.3h15.5v31.1H69.4z"/><path d="M69.4 301.3l15.4 15.5-15.4 15.6" class="f"/><path d="M115.2 320.8h2.4v6.7h-2.4zm0-4.2h2.4v2.5h-2.4zm0 12.6h2.4v1.4h-2.4zm6.3-8.4h2.4v6.7h-2.4zm0-4.2h2.4v2.5h-2.4zm0 12.6h2.4v1.4h-2.4zm6.3-8.4h2.4v6.7h-2.4zm0-4.2h2.4v2.5h-2.4z"/><path d="M127.8 329.2h2.4v1.4h-2.4zm6-10.2h-21v1.8h21.8V319z"/><path d="M133.8 327.5h-21v1.7h21.8v-1.7z"/></g><path d="M58.4 310.7H28.2c-3.4-2.5-6.2 0-6.2 0l-2.3-.8c-.2-.1-.5-.1-.7-.2h-1.2c-.1 0-.3 0-.4.1h-.2c-.7.2-1.4.6-1.9 1.1v-.1s-.9-1.1-1.7-1.1h-4s-.1 4.6 3.2 5.1h0l-2.7 4.7c-1.2 2.1.3 4.7 2.7 4.7h5.3c.6 0 1.2.3 1.6.8l6.2 7.7c.4.4.5 1 .5 1.5v13.7h3.8l2.8-12.6c.1-.7.7-1.1 1.4-1.1l9.6.1c5.7.4 9-2.4 9-2.4h0c.5.6 1.2 1.3 1.9 2h0c.1.1.3.2.4.4h0c.1.1.3.2.4.3l.1.1c.1.1.2.2.4.3l.4.4s.1 0 .1.1l.4.4c.1.1.2.2.3.2l.1.1c.1.1.2.1.2.2l.1.1c.1.1.1.1.2.1l.3.3-1.3 10.7h4l3.3-11.4s-1.8-2.7-1.8-4.8c0-1.7 1.8-5 1.8-5v-9.8c0-3.2-2.6-5.9-5.9-5.9z" stroke="#fff" class="a h"/><g class="b c e f a"><g class="d"><path d="M53.3 332.2s-3.3 2.7-9 2.4l-9.6-.1c-.7 0-1.2.5-1.4 1.1l-2.8 12.6h-3.8v-13.7c0-.6-.2-1.1-.5-1.5l-6.2-7.7c-.4-.5-1-.8-1.6-.8h-5.3c-2.4 0-3.9-2.6-2.7-4.7l4.4-7.7c1-1.8 3.2-2.6 5.2-2l2.3.8s3-2.7 6.5.2c.3.2.5.7.4.9-1 3.3-4.6 2.7-4.6 2.7"/><path d="M51.9 327.2s-.5 2.5 1 4.6 5.5 5.3 5.5 5.3L57 347.6h4l3.3-11.4s-1.8-2.7-1.8-4.8c0-1.7 1.8-5 1.8-5v-9.7c0-3.3-2.6-5.9-5.9-5.9H28.3"/><path d="M54.5 317.4H56a2.69 2.69 0 0 1 2.7 2.7v.4c0 1.6 1.3 2.8 2.8 2.8h0c1.6 0 2.8-1.3 2.8-2.8v-1.9m-49-7.6s-.9-1.1-1.7-1.1h-4s-.1 4.6 3.2 5.1"/></g><path d="M19.3 324.8c.8 2.2 4.5-1 5.9-.2 1.4.7.9 2.6.7 3.7-.4 2 .5 4.4.5 4.4"/></g><path d="M48.7 311.4c-1.4.6-2.8 1.3-3.4 2-.5.5-.9 1.2-1.2 2-.5 1.6-2.7 2.9-5.3 3.1h-.3c-1.3 0-2.2-.6-2.3-1.2-.4-2.1-1.4-4.1-3-5.9h15.5m5.9-1h0zm0 0h-24c2.5 2 4.1 4.5 4.6 7h0c.2 1.1 1.7 2 3.3 2h.4c2.9-.2 5.5-1.7 6.2-3.8.2-.6.5-1.1.9-1.6 1.6-1.6 8.6-3.6 8.6-3.6h0z" class="g"/><path d="M48.6 334.3s1.8 1.2 4 1.5 4-.1 4.1-.1" class="a b c e f"/><circle cx="18" cy="315.5" r="1.1" class="g"/><path d="M54.8 315.9l.8 1.6s-3.1-2.3-3.1-1.6c0 .8 3.1 1.6 3.1 1.6l-3.1.8h3.1l-1.6.7" class="a b c e f"/><path d="M84.7 281.2c-3 0-5.5 2.5-5.5 5.5s2.5 5.5 5.5 5.5 5.5-2.5 5.5-5.5-2.5-5.5-5.5-5.5zm0 10.4a4.91 4.91 0 0 1-4.9-4.9 4.91 4.91 0 0 1 4.9-4.9 4.91 4.91 0 0 1 4.9 4.9c-.1 2.7-2.2 4.9-4.9 4.9zm0-8.2a3.4 3.4 0 1 1 0 6.8 3.4 3.4 0 1 1 0-6.8m0-1c-2.4 0-4.4 2-4.4 4.4s2 4.4 4.4 4.4 4.4-2 4.4-4.4c-.1-2.5-2-4.4-4.4-4.4h0z" class="g"/><g class="a b c"><path d="M63 281.1h5.7m-5.7 5.4h11.5m-4.4 5.2v-5 5z"/><path d="M66.2 291.5h10.6m20.7-2.4h9.4m-3.5 4.8v-4.8 4.8z"/><path d="M99.8 293.8h9.2m-1.9 4.5V294v4.3z"/><path d="M104.7 298.1h7.9"/></g><path d="M523.9 305.1v5.7h-25.6v-5.7h25.6m1-1h-27.6v7.7h27.6v-7.7zm49.4 1v5.7h-25.6v-5.7h25.6m1-1h-27.6v7.7h27.6v-7.7z" class="g"/><g class="b d"><path d="M886.8 401.5h160.7" class="a c"/><path d="M1032.7 347.6v-15.9H907v69.8h125.7" class="h"/></g><path d="M909.1 297.1h122v27.5h-122z" class="h"/><g class="g"><path d="M1030.1 298.1v25.5h-120v-25.5h120m2-2h-124v29.5h124v-29.5z"/><path d="M1037.1 291.7v4.4H902.6v-4.4h134.5m1-1H901.6v6.4h136.5v-6.4z"/></g><g class="a b c"><path d="M913.8 280.5h33.8v10.6h-33.8z"/><path d="M916.9 283.3v7.6m27.7-7.6v7.6m-10.9-7.6v7.8m-6.1-7.8v7.8m-5.4-7.8v7.8m16.9-7.8v7.8"/><path d="M914.1 283h33.5" class="d"/></g><path d="M936.3 314.3v-10h3l1.8 6.8 1.8-6.8h3v10H944v-7.9l-2 7.9h-1.9l-2-7.9v7.9h-1.8zm21 0h-2.2l-.9-2.3h-4l-.8 2.3h-2.1l3.9-10h2.1l4 10zm-3.7-4l-1.4-3.7-1.4 3.7h2.8zm5.2-6.1h6.8v1.7h-4.8v8.3h-2v-10zm16.3 10.1h-2.2l-.9-2.3h-4l-.8 2.3H965l3.9-10h2.1l4.1 10zm-3.8-4l-1.4-3.7-1.4 3.7h2.8zm6.6-3.3l-2-.5c.4-1.6 1.6-2.4 3.6-2.4 1.2 0 2.1.3 2.7.8s.9 1.1.9 1.8c0 .5-.1.9-.4 1.3s-.7.7-1.2 1c.7.2 1.2.5 1.5 1 .3.4.5.9.5 1.5 0 .9-.3 1.6-1 2.1-.6.5-1.6.8-2.9.8-1 0-1.9-.2-2.5-.5s-1.1-1-1.4-2l1.9-.6c.2.6.4 1 .8 1.2.3.2.7.3 1.2.3.6 0 1.1-.1 1.4-.4s.4-.6.4-.9c0-.4-.2-.7-.5-1s-.8-.4-1.5-.4h-.5v-1.5h.2c.6 0 1.1-.1 1.4-.4s.5-.6.5-1.1c0-.4-.1-.7-.4-.9-.3-.3-.6-.4-1.1-.4-.9-.1-1.4.3-1.6 1.2zm7.6-2.8h1.9v6.7l4.1-6.7h2v10h-1.9v-6.5l-4.1 6.5h-2v-10zm10.3 10.1v-10h2v3.9h4v-3.9h2v10h-2v-4.4h-4v4.4h-2z" class="g"/><path d="M972.9 401.7v-53.4h-53.7v53.4m51.9-.4v-51h-50.3v51" class="a b c"/><g class="g"><path d="M941.8 351.1h-1.5v7.1h1.5zm22.8 0H963v7.1h1.6z"/><path d="M966.2 358.6v4.7h-27.7v-4.7h27.7m1-1h-29.7v6.7h29.7v-6.7z"/></g><path d="M922.1 384h29.2v16.3h-28.5" class="a b c"/><path d="M932.6 384.1v-10.6h6.4l-.1 2.9h4.5v7.7z" class="h"/><path d="M938.5 374v2.9h4.4v6.7h-9.8V374h5.4m1-1h-7.4v11.6h11.8v-8.7h-4.4V373z" class="g"/><path d="M943.6 380.4h6.1v3.8h-6.1z" class="h"/><path d="M949.2 380.9v2.8h-5.1v-2.8h5.1m1-1h-7.1v4.8h7.1v-4.8z" class="g"/><path d="M946 380.1v-8h-2.8v-2.6h7.7v2.6h-3.3l.1 8z" class="h"/><path d="M950.4 370v1.6h-3.2v8h-.6v-8h-2.8V370h6.6m1-1h-8.7v3.6h2.8v8h2.6v-8h3.3V369z" class="g"/><path d="M923.3 388h28.5" class="a b c"/><g class="h"><path d="M930 400.9l20.7-49.4h1.8l-20.8 49.4zm4.5 0l20.7-49.4h.9l-20.7 49.4z"/><g class="a b d"><use xlink:href="#O"/><use xlink:href="#O" x="-12.7"/><use xlink:href="#O" x="-25.5"/><use xlink:href="#O" x="-51"/><use xlink:href="#O" x="-63.7"/><use xlink:href="#O" x="-38.3"/><use xlink:href="#O" x="-76.4"/><use xlink:href="#O" x="-89.1"/><use xlink:href="#O" x="-101.9"/><path d="M919.7,322.1V334c0,1.9-2.9,3.4-6.4,3.4s-6.4-1.5-6.4-3.4v-11.9h127.3"/></g></g><g class="c b"><path d="M77.2 400.8h76.4" class="d"/><path d="M73.3 406.6l10.9-5.4m58.5 5.4l10.9-5.4m-24.7 5.4l10.8-5.4m-24.7 5.4l10.9-5.4m-24.8 5.4l10.9-5.4m-24.8 5.4l10.9-5.4"/></g><path d="M984.6 348.3h35.8v52.6h-35.8z" class="b h"/><g class="c b"><path d="M987.7 352.1h29.6v48.8h-29.6z"/><g class="a"><path d="M984.6 348.3l3.1 3.8m32.7-3.8l-3.1 3.8m-14.8 0v48.8"/><path d="M998.4 373v7m8.2-7v7" class="d f"/></g></g><circle cx="1063.8" cy="362" r="7.5" class="b i"/><path d="M1055.3 361.5h12v5h-12z" class="a b d e h"/><path d="M1066.1 361.5l-3.9 4m-1.1-4l-3.9 4" class="c f b"/><g class="a b"><path d="M1049.3 351.5h-10c-1.1 0-2 .9-2 2v12h12v-14z" class="i"/><path d="M1049.3 348.5h6v18h-6z" class="d e h"/></g><g class="c f b"><path d="M1051.8 349.1v16.8"/><path d="M1019.3 401.5h64" class="a d e"/></g><path d="M1036.3 382.5h30.6c1.9 0 3.6-1.4 3.9-3.3l2.4-12.7-40-3" class="a b d e f h"/><g class="c b f"><path d="M1034.8 368l37 2m-37 3l37 1m-36 4h35"/><path d="M1041.8 364v18m12-17v17m12-16v16m-28-27h11"/><path d="M1026.3 354.5l6 2 5 34h31" class="a d e"/></g><g class="h"><circle cx="1026.3" cy="354.5" r="2" class="b d e"/><circle cx="1042.3" cy="397.5" r="4" class="b d e"/><circle cx="1042.3" cy="397.5" r="1"/></g><path d="M1042.3 395.9a1.58 1.58 0 1 0 0 3.2 1.58 1.58 0 1 0 0-3.2h0z" class="g"/><g class="b e"><path d="M1042.3 390.5v7" class="a c f"/><circle cx="1063.3" cy="397.5" r="4" class="d h"/><path d="M1063.3 390.5v7" class="a c f"/></g><circle cx="1063.3" cy="397.5" r="1" class="h"/><path d="M1063.3 395.9a1.58 1.58 0 1 0 0 3.2 1.58 1.58 0 1 0 0-3.2h0z" class="g"/><g class="b c"><path d="M1072.3 407.1l11.2-5.8m-25.4 5.8l11.2-5.8m-25.5 5.8l11.2-5.8m-25.5 5.8l11.2-5.8m-25.4 5.8l11.1-5.8"/><path d="M498.7 376.1h24.8v24.8h-24.8z" class="a"/></g><g class="i"><path d="M506.1 376.1h10.2v6.9h-10.2z" class="a b"/><path d="M77.9 367.8c23.7-1.2 23.3-.5 23.3-.5l.3 21.3s-23.1-.3-23 0-.6-20.8-.6-20.8z"/></g><g class="b c f"><g class="d e"><path d="M101.5 372.9v26c0 1 .8 1.9 1.9 1.9h18.8m0 0h5.6c1 0 1.9-.8 1.9-1.9v-26l-3.8-6.5"/><path d="M125.9 366.4v-4.7c0-1-.8-1.9-1.9-1.9h-16.9c-1 0-1.9.8-1.9 1.9v4.7m-3.7 6.5l3.8-6.5"/></g><path d="M104.6 372.9h17.6m-16-6.5h19.2m.5 0l-3.7 6.5v27.9" class="e"/><path d="M119.8 344.1v15.3m30.9 41.3c1.2 0 2.2-.8 2.2-1.9l.1-54.7-4.4-6.5m0 0V333c0-1-1-1.9-2.2-1.9h-19.9c-1.2 0-2.2.8-2.2 1.9v4.7m-4.5 6.4l4.5-6.5" class="d e"/><path d="M122.8 344.1h21.4m-18.8-6.5h23m.2 0l-4.4 6.5-.2 56.6" class="e"/><path d="M87.8 335.3v4.9c0 4.6-1.6 9.1-4.6 12.6l-.1.1c-3.5 4.1-5.1 4.9-5.1 13.5v32.7m24.4-63.5v4.9c0 4.6 1.6 9.1 4.6 12.6l.1.1c1.2 1.3 2.1 2.3 2.8 3.3" class="d e"/><path d="M78.9 367.2h22.3m-22.3 21.3h20.4" class="a"/></g><path d="M87.2 334.6c-.7 0-1.2-.5-1.2-1.2v-2.9c0-.7.5-1.2 1.2-1.2h15.7c.7 0 1.2.5 1.2 1.2v2.9c0 .7-.5 1.2-1.2 1.2H87.2z" class="h"/><path d="M102.9 330.3c.1 0 .2.1.2.2v2.9c0 .1-.1.2-.2.2H87.2c-.1 0-.2-.1-.2-.2v-2.9c0-.1.1-.2.2-.2h15.7m0-2H87.2a2.22 2.22 0 0 0-2.2 2.2v2.9a2.22 2.22 0 0 0 2.2 2.2h15.7a2.22 2.22 0 0 0 2.2-2.2v-2.9a2.22 2.22 0 0 0-2.2-2.2h0z" class="g"/><path d="M130.2 348.2h10.2v10.7h-10.2z" class="i"/><path d="M139.8 348.7v9.7h-9.2v-9.7h9.2m1-1h-11.2v11.7h11.2v-11.7z" class="g"/><path d="M109.4 375.4h10.2v10.7h-10.2z" class="i"/><path d="M119.1 375.9v9.7h-9.2v-9.7h9.2m1-1h-11.2v11.7h11.2v-11.7z" class="g"/><path d="M1032.1 384.8v16.3" class="b c d"/><defs ><path id="B" d="M958.5 427.5c0-2.1.4-3.7 1.3-4.8s2.2-1.7 3.8-1.7c.9 0 1.7.2 2.3.5a5.09 5.09 0 0 1 1.6 1.3c.4.6.7 1.3.9 2.1s.3 1.7.3 2.7c0 2.1-.4 3.7-1.3 4.8s-2.2 1.7-3.8 1.7c-.9 0-1.6-.2-2.3-.5a5.09 5.09 0 0 1-1.6-1.3c-.4-.5-.7-1.3-.9-2.1s-.3-1.7-.3-2.7zm1.6 0c0 .7.1 1.4.2 2s.4 1.2.6 1.6a2.91 2.91 0 0 0 1.1 1.1c.4.2 1 .4 1.6.4 1.1 0 2-.4 2.6-1.3.6-.8 1-2.2 1-3.9 0-.7-.1-1.3-.2-2-.1-.6-.4-1.2-.7-1.7s-.7-.8-1.1-1.1-1-.4-1.6-.4c-1.1 0-2 .4-2.6 1.3s-.9 2.2-.9 4z"/><path id="C" d="M1000.9 425.2l.1-1.4h-.1l-.8 1.5-6.1 8.5h-.9v-12.6h1.5v8.6l-.1 1.4h.1l.8-1.5 6.1-8.6h.9v12.6h-1.5v-8.5z"/><path id="D" d="M520.2 214.2c.3 0 .6-.1.8-.1h.8c.6 0 1.1.1 1.5.2s.8.3 1 .6.4.5.5.9.1.7.1 1.1c0 1.1-.3 1.9-.9 2.4s-1.6.7-2.9.7c-.8 0-1.6 0-2.4-.1v-9h1.4v3.3h.1zm0 4.3c.4.1.9.1 1.3.1.8 0 1.3-.1 1.6-.4s.4-.7.4-1.3c0-.5-.1-.9-.4-1.2s-.8-.5-1.5-.5h-.7c-.3 0-.5 0-.7.1v3.2zm6.2-7.8h1.4v9h-1.4v-9z"/><path id="E" d="M741.7 85.9h-2.6c0 .5-.1 1-.1 1.6s-.1 1.2-.2 1.8l-.3 1.7c-.1.6-.3 1-.5 1.4s-.4.7-.7 1-.6.4-1 .4h-.6c-.2 0-.3-.1-.4-.1l.2-1.2c.1 0 .3.1.5.1s.5-.1.6-.3c.2-.2.4-.6.5-1.2l.4-2.4.2-3.9h5.4v9h-1.4v-7.9z"/><path id="F" d="M750.4 89.9l-1.4.2-2.4 3.5h-1.7l2.2-3.1.7-.7c-.6-.1-1.2-.3-1.6-.8-.4-.4-.7-1-.7-1.7 0-.5.1-1 .3-1.4s.5-.7.8-1 .8-.4 1.2-.5c.5-.1 1-.2 1.6-.2.4 0 .9 0 1.2.1.4.1.8.1 1.1.2v8.9h-1.4v-3.5h.1zm0-4c-.2-.1-.3-.1-.5-.1h-.5c-.8 0-1.4.1-1.8.4s-.6.7-.6 1.3c0 .5.2 1 .6 1.3s1 .4 1.7.4h1.1v-3.3z"/><path id="G" d="M765.4 93.1c-.4.3-.8.5-1.3.6s-1 .2-1.5.2c-.7 0-1.3-.1-1.8-.3s-.9-.5-1.2-1c-.3-.4-.5-.9-.7-1.5-.1-.6-.2-1.2-.2-1.9 0-1.5.3-2.7 1-3.5s1.6-1.2 2.9-1.2c.6 0 1.1 0 1.5.1s.8.2 1.1.4l-.4 1.2c-.3-.2-.6-.3-.9-.4s-.7-.1-1.1-.1c-1.7 0-2.6 1.2-2.6 3.5 0 .5 0 .9.1 1.3s.2.8.5 1.1.5.6.8.8.8.3 1.3.3c.4 0 .8-.1 1.2-.2.3-.1.6-.3.8-.5l.5 1.1z"/><path id="H" d="M794.8 85.3c.5-.3 1-.5 1.6-.6s1.2-.2 1.9-.2c.6 0 1.1.1 1.5.3s.7.4.9.7.3.6.4.9.1.6.1 1l-.1 2.1c0 .7-.1 1.3-.1 1.9 0 .4 0 .9.1 1.3 0 .4.1.8.2 1.1h-1.1l-.4-1.3h-.1c-.1.2-.2.3-.4.5s-.4.3-.6.4-.5.2-.8.3-.6.1-1 .1-.7-.1-1.1-.2c-.3-.1-.6-.3-.9-.5-.2-.2-.4-.5-.6-.8-.1-.3-.2-.7-.2-1.1 0-.5.1-1 .3-1.3a2.36 2.36 0 0 1 .9-.8c.4-.2.9-.4 1.4-.5s1.1-.1 1.8-.1h1c0-.4.1-.7.1-1 0-.7-.1-1.1-.4-1.4s-.7-.4-1.4-.4h-.7c-.3 0-.5.1-.7.1-.2.1-.5.1-.7.2l-.6.3-.3-1zm2.6 7.3c.3 0 .6 0 .9-.1s.5-.2.7-.3.3-.3.5-.5c.1-.2.2-.3.3-.5v-1.5h-1c-.4 0-.7 0-1.1.1-.4 0-.7.1-.9.2-.3.1-.5.3-.6.5-.2.2-.2.4-.2.7 0 .4.1.8.4 1s.5.4 1 .4z"/><path id="I" d="M262.8 217.3l-.9.5-1.3-1.9-6 3.2.8 2.1-.9.5-1.7-3.1.9-.5v-.8c0-.4-.1-.9-.3-1.5l-.7-2.2c-.3-.9-.8-1.9-1.4-3l4.8-2.6 3.7 6.8 1.2-.6 1.8 3.1zm-4.1-1.8l-3.1-5.7-2.4 1.3c.2.5.4 1 .7 1.5l.6 1.7.5 1.7c.1.5.2 1 .2 1.5l3.5-2z"/><path id="J" d="M239.4 177.5l-.7.4 1.9 3.6-1.3.7-4.3-7.9 1.3-.7 1.9 3.6.6-.6.7-4.7 1.4-.7-.7 4.5-.4.9 1.2.2 4.6 2.2-1.6.8-4.6-2.3z"/><path id="K" d="M517.2 421.3c.5-.1.9-.2 1.5-.2s1-.1 1.6-.1 1.1.1 1.7.2 1.1.3 1.6.6.8.7 1.1 1.2.4 1.1.4 1.9-.1 1.4-.4 1.9-.6 1-1.1 1.3-1 .6-1.6.7-1.2.2-1.8.2h-1.4v4.8h-1.5l-.1-12.5zm3.1 1h-.9c-.3 0-.5 0-.7.1v5.2h1.4c.4 0 .8 0 1.2-.1s.8-.2 1.1-.4a2.36 2.36 0 0 0 .8-.9c.2-.4.3-.8.3-1.4 0-.5-.1-.9-.3-1.2s-.4-.6-.7-.8-.6-.3-1-.4c-.4 0-.8-.1-1.2-.1z"/><path id="L" d="M710.3 384.3c-.4.3-.8.5-1.4.7s-1.1.3-1.7.3c-.7 0-1.3-.1-1.8-.3s-.9-.5-1.2-1-.6-.9-.7-1.5-.2-1.2-.2-1.9c0-1.5.3-2.7 1-3.5s1.7-1.2 2.9-1.2c.4 0 .8 0 1.2.1s.8.3 1.1.5.6.6.8 1.1.3 1.1.3 1.8c0 .4 0 .8-.1 1.3h-5.8c0 .5.1 1 .2 1.4s.3.8.5 1c.2.3.5.5.9.6.4.2.8.2 1.3.2.4 0 .8-.1 1.2-.2s.7-.3.9-.5l.6 1.1zm-3.1-7.2c-.7 0-1.3.2-1.7.6s-.7 1-.8 1.9h4.5c0-.9-.2-1.6-.5-1.9-.4-.5-.9-.6-1.5-.6z"/><path id="M" d="M797.7 379.1l.5 1.6h.1l.4-1.7 2.4-6.6h1.5l-3.2 8.2c-.3.9-.6 1.6-.9 2.1s-.5 1-.7 1.4c-.3.4-.5.6-.8.8s-.6.2-1.1.2c-.4 0-.7 0-.9-.1s-.5-.2-.7-.3l.5-1.2c.2.1.5.2.7.3.2 0 .4.1.6.1.3 0 .6-.2.8-.5s.4-.8.6-1.5l-4.7-9.3h1.7l3.2 6.5z"/><path id="N" d="M513.2 84.7h1l.3 1.1h.1c.3-.4.6-.7 1.1-1s.9-.3 1.5-.3c1.2 0 2.1.4 2.7 1.1s.9 1.9.9 3.5c0 .8-.1 1.4-.3 2a5.3 5.3 0 0 1-.8 1.5 6.42 6.42 0 0 1-1.3 1c-.5.3-1.1.3-1.7.3-.4 0-.8 0-1.1-.1s-.5-.1-.8-.3v3.7h-1.4V84.7h-.2zm3.7 1c-.6 0-1.1.2-1.4.5-.4.3-.6.8-.7 1.5v4.5c.2.2.5.3.7.4.3.1.6.1 1.1.1.8 0 1.5-.3 2-.9s.7-1.5.7-2.7c0-.5 0-.9-.1-1.3s-.2-.7-.4-1-.4-.5-.7-.7-.8-.4-1.2-.4z"/><path id="O" d="M1020.6 322.1V334c0 1.9 2.9 3.4 6.4 3.4h0c3.5 0 6.4-1.5 6.4-3.4v-11.9"/></defs></svg>