<svg xmlns="http://www.w3.org/2000/svg" viewBox="0 0 36 36"><defs><style>.a{fill:#d94700;}</style></defs><title>egais</title><path class="a" d="M32,8H31V5a3,3,0,0,0-3-3H4A3,3,0,0,0,1,5V26a3,3,0,0,0,3,3h.64A3,3,0,0,0,4,30.83V32a2,2,0,0,0,2,2H26a2,2,0,0,0,2-2V30.83A3,3,0,0,0,27.36,29H28a3,3,0,0,0,3-3V23h1a3,3,0,0,0,3-3V11A3,3,0,0,0,32,8ZM26,32H6V31H26ZM6.41,30l1-1H24.59l1,1ZM29,8a1,1,0,0,0-1,1V22a1,1,0,0,0,1,1v3a1,1,0,0,1-1,1H4a1,1,0,0,1-1-1V5A1,1,0,0,1,4,4H28a1,1,0,0,1,1,1Zm4,12a1,1,0,0,1-1,1H30V10h2a1,1,0,0,1,1,1Z"/><path class="a" d="M5,25H27V6H5ZM6,7H26V24H12.46a2.43,2.43,0,0,0-3.93,0H6Z"/><path class="a" d="M10.5,14A2.5,2.5,0,1,0,8,11.5,2.5,2.5,0,0,0,10.5,14Zm0-4A1.5,1.5,0,1,1,9,11.5,1.5,1.5,0,0,1,10.5,10Z"/><path class="a" d="M15.5,11h8a.5.5,0,0,0,0-1h-8a.5.5,0,0,0,0,1Z"/><path class="a" d="M15.5,13h5a.5.5,0,0,0,0-1h-5a.5.5,0,0,0,0,1Z"/><path class="a" d="M10.5,21A2.5,2.5,0,1,0,8,18.5,2.5,2.5,0,0,0,10.5,21Zm0-4A1.5,1.5,0,1,1,9,18.5,1.5,1.5,0,0,1,10.5,17Z"/><path class="a" d="M15.5,18h8a.5.5,0,0,0,0-1h-8a.5.5,0,0,0,0,1Z"/><path class="a" d="M15.5,20h5a.5.5,0,0,0,0-1h-5a.5.5,0,0,0,0,1Z"/><path class="a" d="M31.5,11a.5.5,0,0,0-.5.5v8a.5.5,0,0,0,1,0v-8A.5.5,0,0,0,31.5,11Z"/></svg>