<svg xmlns="http://www.w3.org/2000/svg" viewBox="0 0 36 36"><defs><style>.a{fill:#d94700;}</style></defs><title>egais</title><path class="a" d="M30.73,7.07V4a2,2,0,0,0-2-2h-2a2,2,0,0,0-2,2V7c0-1.67-3-2.41-6-2.74C18.49,2.7,16.1,2,13.73,2s-4.75.7-5,2.26c-3,.33-6,1.07-6,2.74v4.78a5.5,5.5,0,0,0,0,4.45v4.55a5.5,5.5,0,0,0,0,4.45V29c0,2.78,8.42,3,11,3a35.64,35.64,0,0,0,8.2-.83A4,4,0,0,0,25.73,34h4a4,4,0,0,0,4-4V13.51A8.45,8.45,0,0,0,30.73,7.07Zm-20-2.43a5.58,5.58,0,0,1,3-.64,5.58,5.58,0,0,1,3,.64V6h-6ZM8.79,6.28A1,1,0,0,0,9.73,7h8a1,1,0,0,0,.94-.72A17.23,17.23,0,0,1,22.23,7a28.05,28.05,0,0,1-8.5,1,28.05,28.05,0,0,1-8.5-1A17.23,17.23,0,0,1,8.79,6.28ZM22.73,9.56a8.35,8.35,0,0,0-.89,2.65.48.48,0,0,0-.24,0,33.69,33.69,0,0,1-7.87.79,33.69,33.69,0,0,1-7.87-.79.5.5,0,1,0-.26,1,34.17,34.17,0,0,0,8.13.82,34.59,34.59,0,0,0,8-.79c0,.11,0,.21,0,.32V15.2h-.13a33.69,33.69,0,0,1-7.87.79,33.69,33.69,0,0,1-7.87-.79.5.5,0,1,0-.26,1,34.17,34.17,0,0,0,8.13.82,34.66,34.66,0,0,0,8-.79v5h-.13a33.66,33.66,0,0,1-7.87.79,33.66,33.66,0,0,1-7.87-.79.5.5,0,1,0-.26,1,34.17,34.17,0,0,0,8.13.82,34.66,34.66,0,0,0,8-.79v2h-.13a33.66,33.66,0,0,1-7.87.79,33.66,33.66,0,0,1-7.87-.79.5.5,0,1,0-.26,1,34.17,34.17,0,0,0,8.13.82,34.66,34.66,0,0,0,8-.79v4a31.21,31.21,0,0,1-8,.84c-5.16,0-8.3-.77-9-1.23v-4l-.11-.21a3.49,3.49,0,0,1,0-3.11l.11-.21V15.76l-.11-.21a3.49,3.49,0,0,1,0-3.11l.11-.21V8.92C7.39,9.9,12,10,13.73,10s6.34-.1,9-1.08Zm4-5.56h2V5h-2Zm5,26a2,2,0,0,1-2,2v-.5a.5.5,0,0,0-1,0V32h-2v-.5a.5.5,0,0,0-1,0V32a2,2,0,0,1-2-2V13.52a6.39,6.39,0,0,1,2.36-5L26.73,8V6h2V8.06l.4.3a6.44,6.44,0,0,1,2.6,5.15Z"/><path class="a" d="M24.73,16.5a.5.5,0,0,0,.5.5h5a.5.5,0,0,0,0-1h-5A.5.5,0,0,0,24.73,16.5Z"/><path class="a" d="M30.23,26h-5a.5.5,0,1,0,0,1h5a.5.5,0,0,0,0-1Z"/></svg>