<svg xmlns="http://www.w3.org/2000/svg" viewBox="0 0 36 36"><defs><style>.a{fill:#d94700;}</style></defs><title>egais</title><path class="a" d="M32,28V12a3,3,0,0,0-3-3H28V6.59L23.41,2H10A2,2,0,0,0,8,4V9H7a3,3,0,0,0-3,3V28a2,2,0,0,0-2,2v1a3,3,0,0,0,3,3H31a3,3,0,0,0,3-3V30A2,2,0,0,0,32,28ZM23,4.41,25.59,7H23ZM10,4H22V8h4V25H10ZM6,12a1,1,0,0,1,1-1H8V25a2,2,0,0,0,2,2H26a2,2,0,0,0,2-2V11h1a1,1,0,0,1,1,1V29H21.5a.5.5,0,0,0-.5.5V30H15v-.5a.5.5,0,0,0-.5-.5H6ZM32,31a1,1,0,0,1-1,1H5a1,1,0,0,1-1-1V30H14v.5a.5.5,0,0,0,.5.5h7a.5.5,0,0,0,.5-.5V30H32Z"/><path class="a" d="M12.5,10h7a.5.5,0,0,0,0-1h-7a.5.5,0,0,0,0,1Z"/><path class="a" d="M12.5,13H22a.5.5,0,0,0,0-1H12.5a.5.5,0,0,0,0,1Z"/><path class="a" d="M23.5,15h-11a.5.5,0,0,0,0,1h11a.5.5,0,0,0,0-1Z"/><path class="a" d="M16.5,18h-4a.5.5,0,0,0,0,1h4a.5.5,0,0,0,0-1Z"/><path class="a" d="M21.5,18A2.5,2.5,0,1,0,24,20.5,2.5,2.5,0,0,0,21.5,18Zm0,4A1.5,1.5,0,1,1,23,20.5,1.5,1.5,0,0,1,21.5,22Z"/></svg>