<svg xmlns="http://www.w3.org/2000/svg" viewBox="0 0 36 36"><defs><style>.a{fill:#d94700;}</style></defs><title>egais</title><path class="a" d="M31,2H5A3,3,0,0,0,2,5V25a3,3,0,0,0,3,3h6.46l-.5.47a3,3,0,0,0-1,2.2V32a2,2,0,0,0,2,2H24a2,2,0,0,0,2-2V30.68a3,3,0,0,0-1-2.2l-.5-.47H31a3,3,0,0,0,3-3V5A3,3,0,0,0,31,2ZM24,32H12V31H24ZM12.28,30l0-.07L14.4,28h7.21l2.07,1.93s0,0,0,.07ZM32,25a1,1,0,0,1-1,1H5a1,1,0,0,1-1-1V24H32Zm0-2H4V7H32ZM32,6H4V5A1,1,0,0,1,5,4H31a1,1,0,0,1,1,1Z"/><path class="a" d="M11.86,16.16a.5.5,0,0,0-.71,0L9.51,17.81,7.86,16.16a.5.5,0,0,0-.71.71L8.8,18.52,7.15,20.16a.5.5,0,1,0,.71.71l1.65-1.65,1.65,1.65a.5.5,0,0,0,.71-.71l-1.65-1.65,1.65-1.65A.5.5,0,0,0,11.86,16.16Z"/><path class="a" d="M27.15,16.16l-3.65,3.65-1.65-1.65a.5.5,0,0,0-.71.71l2,2a.5.5,0,0,0,.71,0l4-4a.5.5,0,0,0-.71-.71Z"/><path class="a" d="M6.51,10h9a.5.5,0,0,0,0-1h-9a.5.5,0,0,0,0,1Z"/><path class="a" d="M6.51,12h5a.5.5,0,0,0,0-1h-5a.5.5,0,0,0,0,1Z"/><path class="a" d="M6.51,14h7a.5.5,0,0,0,0-1h-7a.5.5,0,0,0,0,1Z"/><path class="a" d="M20.51,10h9a.5.5,0,0,0,0-1h-9a.5.5,0,0,0,0,1Z"/><path class="a" d="M20.51,12h8a.5.5,0,0,0,0-1h-8a.5.5,0,0,0,0,1Z"/><path class="a" d="M20.51,14h6a.5.5,0,0,0,0-1h-6a.5.5,0,0,0,0,1Z"/></svg>