<svg xmlns="http://www.w3.org/2000/svg" viewBox="0 0 36 36"><defs><style>.a{fill:#d94700;}</style></defs><title>egais</title><path class="a" d="M33.47,16.84l-.81-2a9,9,0,0,1-.58-2.23l-.83-6.66V4a2,2,0,0,0-2-2h-2a2,2,0,0,0-2,2V5.94l-.83,6.66a9,9,0,0,1-.58,2.23l-.81,2a11,11,0,0,0-.79,4.09V32a2,2,0,0,0,2,2h8a2,2,0,0,0,2-2V20.93A11,11,0,0,0,33.47,16.84ZM27.25,6.12V6h2l.62,5H26.64Zm2-2.12V5h-2V4Zm-5,18h5v8h-5Zm8,10h-8V31h5.5a.5.5,0,0,0,.5-.5v-9a.5.5,0,0,0-.5-.5h-5.5v-.07a9,9,0,0,1,.64-3.34l.81-2a11.08,11.08,0,0,0,.7-2.72l.11-.85H30l.1.85a11.07,11.07,0,0,0,.7,2.72l.81,2a9,9,0,0,1,.64,3.34Zm-10-24.17a2,2,0,0,0-1.64-2l-3.52-.64A17.08,17.08,0,0,0,4.17,8.12l-.66.47A3,3,0,0,0,2.26,11v1.21a3,3,0,0,0,2.55,3L1.89,23.94a2.9,2.9,0,0,0,1.74,3.65l4.42,1.66a2.88,2.88,0,0,0,2.27-.1,2.91,2.91,0,0,0,.81-4.68l-.33-.33a.91.91,0,0,1-.22-.93l.91-2.73.7.14a3,3,0,0,0,.6.06,3,3,0,0,0,2.9-2.27l.49-1.94.54.06a5,5,0,0,0,5.54-5ZM4.68,10.22l.66-.47A15.09,15.09,0,0,1,14.08,7a14.85,14.85,0,0,1,2.66.24l.52.09V9.5a1.5,1.5,0,0,1-1.5,1.5H4.26A1,1,0,0,1,4.68,10.22Zm4,12.35a2.9,2.9,0,0,0,.7,3l.33.33a.91.91,0,0,1-1,1.5L4.33,25.71a.91.91,0,0,1-.54-1.14l3-9.15,4.08.45Zm5.07-4.66a1,1,0,0,1-1.17.74l-.46-.09.82-2.46,1.22.13Zm6.51-6.37a3,3,0,0,1-3.33,3L5.14,13.23a1,1,0,0,1-.88-1V12h11.5a2.5,2.5,0,0,0,2.5-2.5v-2l2,.36Z"/></svg>