<svg xmlns="http://www.w3.org/2000/svg" viewBox="0 0 36 36"><defs><style>.a{fill:#d94700;}</style></defs><title>egais</title><path class="a" d="M32,28V12a3,3,0,0,0-3-3H28V6.59L23.41,2H10A2,2,0,0,0,8,4V9H7a3,3,0,0,0-3,3V28a2,2,0,0,0-2,2v1a3,3,0,0,0,3,3H31a3,3,0,0,0,3-3V30A2,2,0,0,0,32,28ZM23,4.41,25.59,7H23ZM10,4H22V8h4V25H10ZM6,12a1,1,0,0,1,1-1H8V25a2,2,0,0,0,2,2H26a2,2,0,0,0,2-2V11h1a1,1,0,0,1,1,1V29H21.5a.5.5,0,0,0-.5.5V30H15v-.5a.5.5,0,0,0-.5-.5H6ZM32,31a1,1,0,0,1-1,1H5a1,1,0,0,1-1-1V30H14v.5a.5.5,0,0,0,.5.5h7a.5.5,0,0,0,.5-.5V30H32Z"/><path class="a" d="M15.43,12.2h0a.78.78,0,0,1,.71-.13,1.07,1.07,0,0,0-.47-.28A.53.53,0,0,0,15.43,12.2Z"/><path class="a" d="M13.84,14.29l.08.17a4.33,4.33,0,0,1-2.15.41,0,0,0,0,0,0,0c0,.57.57.73,1.06.66a3.46,3.46,0,0,0,1.42-.65l.13.13a2.42,2.42,0,0,1-1.63.94,0,0,0,0,0,0,0,.83.83,0,0,0,1.14.22,2.52,2.52,0,0,0,.9-.92l.18.07a2.23,2.23,0,0,1-1.06,1.33,0,0,0,0,0,0,0h0a.75.75,0,0,0,1.08-.11,2.52,2.52,0,0,0,.44-1.17,1,1,0,0,1,1,.58,0,0,0,0,0,0,0V14.71a0,0,0,0,0,0,0,1.73,1.73,0,0,1-.83.07.87.87,0,0,1-.75-.84.82.82,0,0,1,.28-.61.07.07,0,0,0,0-.11l-.06,0a12,12,0,0,1-3-3.37h0a1.33,1.33,0,0,0,0,1.8,6.12,6.12,0,0,0,1.67,1.24q0,.11,0,.22a4.76,4.76,0,0,1-2.44-1.44,0,0,0,0,0,0,0,1.15,1.15,0,0,0,.48,1.47,5.92,5.92,0,0,0,2,.5q0,.09,0,.19a4.49,4.49,0,0,1-2.5-.39,0,0,0,0,0,0,0A1,1,0,0,0,12,14.49,6.74,6.74,0,0,0,13.84,14.29Z"/><path class="a" d="M17.14,17c-.08,0-.13,0-.1-.14s0-.07-.05,0a.45.45,0,0,0-.06.2c0,.25.29.3.41.24a1.22,1.22,0,0,0,1.18.13l-1.12-3.09a0,0,0,1,0-.09,0l.19.53c-.16,0-.43.16-.43.32s.37.35.59.33a.14.14,0,0,0,0,.13.48.48,0,0,0-.27.09.33.33,0,0,0-.38-.08c-.09.07-.09.18,0,.3a.21.21,0,0,1,0,.27c.26,0,.16-.34.27-.34a.42.42,0,0,0,0,.22.15.15,0,0,1,0,.15A1.37,1.37,0,0,0,17.14,17Zm.51-.67a.54.54,0,0,0,.08.47.89.89,0,0,0-.45.1C17.24,16.79,17.42,16.56,17.64,16.34Z"/><path class="a" d="M22.38,18l-.45.36L21.47,18a.79.79,0,0,0-.37.48c-.27,0-1-.13-.94-.24.81-1.15.19-1.83-.56-1.79v.77a.47.47,0,0,1-.48.45h-.52a.83.83,0,0,0-.61.37.83.83,0,0,0-.61-.37h-.52a.46.46,0,0,1-.48-.45v-.77c-.75,0-1.37.64-.56,1.79.07.11-.69.28-1.05.24a.53.53,0,0,0-.38-.16.55.55,0,0,0-.19,0S12.8,17,12.78,17v0c.08-.15,0-.31-.12-.3a.5.5,0,0,0-.41-.69c0,.1,0,.29,0,.29s-.39-.21-.58,0,.07.57.07.57h-.29a.51.51,0,0,0,.73.35c0,.08.17.19.31.1l.06,0L14,18.55a.45.45,0,0,0-.07.33.5.5,0,0,0,.39.39.55.55,0,0,0,.39-.06l.36.34a.17.17,0,0,0,.12,0,.15.15,0,0,0,.15-.16.14.14,0,0,0,0-.09L14.89,19a2.59,2.59,0,0,1,1.32-.36.09.09,0,0,0,.09-.14c-.21-.51.24-.87.71-.57a1.57,1.57,0,0,1,.57.81c-.77.19-1.73.7-1.93,1.26-.08.22.17.51.47.57l0,0h0A2.28,2.28,0,0,1,17.68,19l0,.11a2.12,2.12,0,0,0-1.14,1.35c-.06.28.24.52.5.59a0,0,0,0,0,0,0,2.77,2.77,0,0,1,.69-1.7q0,.09,0,.17A5.51,5.51,0,0,0,17.49,21c0,.29.43.5.5.52s.51-.23.51-.52a5.51,5.51,0,0,0-.31-1.49q0-.09,0-.17A2.77,2.77,0,0,1,18.9,21a0,0,0,0,0,0,0h0c.25-.07.56-.32.5-.59a2.12,2.12,0,0,0-1.14-1.35l0-.11a2.28,2.28,0,0,1,1.52,1.56l0,0c.3-.06.55-.35.47-.57-.19-.56-1.16-1.07-1.93-1.26a1.57,1.57,0,0,1,.57-.81c.47-.3.92.07.71.57a.09.09,0,0,0,.09.14,2.35,2.35,0,0,1,1.43.44.86.86,0,0,0,.81.37.82.82,0,0,0,.75-.69A.77.77,0,0,0,22.38,18Z"/><polygon class="a" points="22.23 17.66 21.93 17.34 21.62 17.66 21.93 17.95 22.23 17.66"/><polygon class="a" points="20.28 9.16 20.28 9.16 20.04 8.87 19.79 9.16 20.04 9.45 20.28 9.16"/><path class="a" d="M24.38,13.09a1.15,1.15,0,0,0,.48-1.47,0,0,0,0,0,0,0,4.75,4.75,0,0,1-2.44,1.44q0-.11,0-.22A6.11,6.11,0,0,0,24,11.59a1.33,1.33,0,0,0,0-1.8h0a12,12,0,0,1-3,3.37l-.05,0a.07.07,0,0,0,0,.11.82.82,0,0,1,.28.61.87.87,0,0,1-.75.84,1.73,1.73,0,0,1-.83-.07,0,0,0,0,0,0,0V16a0,0,0,0,0,0,0,1,1,0,0,1,1-.58,2.52,2.52,0,0,0,.44,1.17.75.75,0,0,0,1.08.11,0,0,0,0,0,0,0h0a2.23,2.23,0,0,1-1.06-1.33l.18-.07a2.52,2.52,0,0,0,.9.92A.83.83,0,0,0,23.28,16a0,0,0,0,0,0,0A2.42,2.42,0,0,1,21.64,15l.13-.13a3.46,3.46,0,0,0,1.42.65c.49.07,1-.09,1.06-.66a0,0,0,0,0,0,0,4.33,4.33,0,0,1-2.15-.41l.08-.17a6.74,6.74,0,0,0,1.83.2,1,1,0,0,0,.86-1.08,0,0,0,0,0,0,0h0a4.49,4.49,0,0,1-2.5.39q0-.09,0-.19A5.92,5.92,0,0,0,24.38,13.09Z"/><path class="a" d="M21.58,9.65c0-.07.71-.07.71.39,0,.31-.44.45-.44.78a.3.3,0,0,0,.21.26c-.11-.51.36-.25.48-.15-.25-.69.31-.69.26-1s-.53-.15-.71-.27-.69-1-.94-.2a.59.59,0,0,1-.39,1.05.63.63,0,0,0,0,.1C21.46,10.57,21.7,10.06,21.58,9.65Z"/><path class="a" d="M19,16.29c0,.05.07.05.08,0,0-.35-.19-.45-.43-.41l-.08-.33c0-.08,0-.24.07-.24s0,.15,0,.21,0,.09.06.09.06,0,.08-.06a.36.36,0,0,0,0-.53.52.52,0,0,0-.58.12A.65.65,0,0,0,18.1,15s0-.06,0-.1a.22.22,0,0,0,.08-.14.11.11,0,0,0-.12-.11.16.16,0,0,0-.16.17.17.17,0,0,0,0,.08.84.84,0,0,0-.24,0l.91,2.49a.7.7,0,0,0,.45-.55c0-.19-.27-.12-.41,0,0-.24-.08-.45-.12-.67,0-.06,0-.08.07-.1h0C18.75,16,19,16.06,19,16.29Z"/><polygon class="a" points="18.34 7.91 18 7.5 17.66 7.91 18 8.35 18.34 7.91"/><path class="a" d="M19.86,12.07a.78.78,0,0,1,.71.13.53.53,0,0,0-.24-.41A1.07,1.07,0,0,0,19.86,12.07Z"/><path class="a" d="M15.51,10.61h.9a1.15,1.15,0,0,0,1.2-.87h.77a1.15,1.15,0,0,0,1.2.87h.9a2,2,0,0,0,.2-.32c.14-.38,0-.56-.3-.56L20,10l-.34-.31c-.27,0-.45.18-.3.56a1.11,1.11,0,0,0,.1.18.94.94,0,0,1-.82-.73,5.19,5.19,0,0,0,.3-.53c.21-.55-.06-.77-.46-.77L18,9l-.51-.6c-.4,0-.67.22-.46.77a5.13,5.13,0,0,0,.3.53.94.94,0,0,1-.82.73,1.1,1.1,0,0,0,.1-.18c.14-.38,0-.56-.3-.56L16,10l-.34-.31c-.27,0-.45.18-.3.56A2,2,0,0,0,15.51,10.61Z"/><polygon class="a" points="15.52 10.61 15.52 10.61 15.52 10.61 15.52 10.61"/><polygon class="a" points="13.46 10.92 13.46 10.92 13.46 10.92 13.46 10.92"/><path class="a" d="M21.14,11.89a.64.64,0,0,0,.13-.48h0c-.14-.77-1.92-.26-2.82-.58,0,.22.28.58.56.71a3.49,3.49,0,0,0-1,2.28,3.48,3.48,0,0,0-1-2.28c.28-.13.57-.49.56-.71-.9.33-2.68-.18-2.82.58a.64.64,0,0,0,.13.48.4.4,0,0,1,.34-.26c1.25-.19,2.3,1.74,1.36,2.53a0,0,0,0,0,0,0h2.84a0,0,0,0,0,0,0c-.95-.78.1-2.72,1.36-2.53A.4.4,0,0,1,21.14,11.89Z"/><path class="a" d="M13.46,10.92c.13-.1.6-.37.48.15a.3.3,0,0,0,.21-.26c0-.32-.44-.47-.44-.78,0-.46.74-.46.71-.39-.13.41.12.92.81,1a.66.66,0,0,0,0-.1.59.59,0,0,1-.39-1.05c-.25-.77-.62,0-.94.2s-.67,0-.71.27S13.71,10.23,13.46,10.92Z"/><polygon class="a" points="16.21 9.16 16.21 9.16 15.96 8.87 15.72 9.16 15.96 9.45 16.21 9.16"/></svg>