<svg xmlns="http://www.w3.org/2000/svg" viewBox="0 0 36 36"><defs><style>.a{fill:#d94700;}</style></defs><title>egais</title><path class="a" d="M11.66,3h-10V13h10Zm-2,8h-6V5h6Z"/><rect class="a" x="4.66" y="6" width="4" height="4"/><path class="a" d="M1.66,33h10V23h-10Zm2-8h6v6h-6Z"/><rect class="a" x="4.66" y="26" width="4" height="4"/><rect class="a" x="13.66" y="13" width="2" height="2"/><polygon class="a" points="13.66 15 11.66 15 9.66 15 9.66 17 7.66 17 7.66 15 5.66 15 5.66 17 5.66 19 3.66 19 3.66 21 5.66 21 7.66 21 7.66 19 9.66 19 9.66 21 11.66 21 11.66 19 11.66 17 13.66 17 13.66 15"/><polygon class="a" points="29.66 3 27.66 3 27.66 5 27.66 7 29.66 7 29.66 5 31.66 5 33.66 5 33.66 3 31.66 3 29.66 3"/><rect class="a" x="29.66" y="7" width="2" height="2"/><rect class="a" x="27.66" y="9" width="2" height="2"/><polygon class="a" points="31.66 13 29.66 13 29.66 15 31.66 15 31.66 17 33.66 17 33.66 15 33.66 13 33.66 11 33.66 9 31.66 9 31.66 11 31.66 13"/><rect class="a" x="31.66" y="19" width="2" height="2"/><polygon class="a" points="31.66 25 31.66 27 33.66 27 33.66 25 33.66 23 31.66 23 31.66 25"/><polygon class="a" points="23.66 13 23.66 11 21.66 11 21.66 9 19.66 9 19.66 13 23.66 13"/><polygon class="a" points="17.66 11 17.66 9 19.66 9 19.66 7 17.66 7 17.66 5 19.66 5 23.66 5 23.66 7 25.66 7 25.66 3 23.66 3 19.66 3 15.66 3 15.66 5 13.66 5 13.66 7 15.66 7 15.66 9 13.66 9 13.66 11 15.66 11 17.66 11"/><rect class="a" x="1.66" y="17" width="2" height="2"/><rect class="a" x="19.66" y="31" width="2" height="2"/><polygon class="a" points="15.66 29 13.66 29 13.66 31 13.66 33 15.66 33 17.66 33 17.66 31 15.66 31 15.66 29"/><path class="a" d="M30.57,28.09a2,2,0,0,0-1.93-.51l-1-1a7.52,7.52,0,1,0-1.55,1.28L27.23,29a2,2,0,0,0,.51,1.93l2.5,2.5a2,2,0,0,0,2.83-2.83ZM16.66,21.5a5.5,5.5,0,1,1,5.5,5.5A5.51,5.51,0,0,1,16.66,21.5Z"/></svg>