<svg xmlns="http://www.w3.org/2000/svg" viewBox="0 0 36 36"><defs><style>.a{fill:#d94700;}</style></defs><title>egais</title><path class="a" d="M26,2H10A4,4,0,0,0,6,6V30a4,4,0,0,0,4,4H26a4,4,0,0,0,4-4V6A4,4,0,0,0,26,2Zm2,28a2,2,0,0,1-2,2H10a2,2,0,0,1-2-2V6a2,2,0,0,1,2-2H26a2,2,0,0,1,2,2Z"/><path class="a" d="M18,29a1,1,0,1,0,1,1A1,1,0,0,0,18,29Zm0,1h0Z"/><path class="a" d="M16.5,6h3a.5.5,0,0,0,0-1h-3a.5.5,0,0,0,0,1Z"/><path class="a" d="M26.5,7H9.5a.5.5,0,0,0-.5.5v20a.5.5,0,0,0,.5.5h17a.5.5,0,0,0,.5-.5V7.5A.5.5,0,0,0,26.5,7ZM26,27H10V8H26Z"/></svg>