<svg xmlns="http://www.w3.org/2000/svg" viewBox="0 0 36 36"><defs><style>.a{fill:#d94700;}</style></defs><title>egais</title><path class="a" d="M13.71,2.29A1,1,0,0,0,13,2H5.5a2,2,0,0,0-2,2V16a2,2,0,0,0,2,2h9a2,2,0,0,0,2-2V5.5a1,1,0,0,0-.29-.71ZM12.5,4h.09L14.5,5.91V6h-2Zm-7,12V4h6V7h3v9Z"/><path class="a" d="M12,9H8a.5.5,0,0,0,0,1h4a.5.5,0,0,0,0-1Z"/><path class="a" d="M12,11H8a.5.5,0,0,0,0,1h4a.5.5,0,0,0,0-1Z"/><path class="a" d="M12,13H8a.5.5,0,0,0,0,1h4a.5.5,0,0,0,0-1Z"/><path class="a" d="M30.71,18.29A1,1,0,0,0,30,18H22.5a2,2,0,0,0-2,2V32a2,2,0,0,0,2,2h9a2,2,0,0,0,2-2V21.5a1,1,0,0,0-.29-.71ZM29.5,20h.09l1.91,1.91V22h-2Zm-7,12V20h6v3h3v9Z"/><path class="a" d="M29,25H25a.5.5,0,0,0,0,1h4a.5.5,0,0,0,0-1Z"/><path class="a" d="M29,27H25a.5.5,0,0,0,0,1h4a.5.5,0,0,0,0-1Z"/><path class="a" d="M29,29H25a.5.5,0,0,0,0,1h4a.5.5,0,0,0,0-1Z"/><path class="a" d="M30.21,6.29a1,1,0,0,0-1.41,1.41L30.09,9H21.5a1,1,0,0,0,0,2h8.59l-1.29,1.29a1,1,0,1,0,1.41,1.41l3-3a1,1,0,0,0,0-1.41Z"/><path class="a" d="M15.5,26H5.91l1.29-1.29a1,1,0,0,0-1.41-1.41l-3,3a1,1,0,0,0,0,1.41l3,3a1,1,0,0,0,1.41-1.41L5.91,28H15.5a1,1,0,0,0,0-2Z"/></svg>