<svg version="1.1" xmlns="http://www.w3.org/2000/svg" x="0" y="0" viewBox="0 0 36 36" xml:space="preserve">
	<path d="M32.064 12.091A29.918 29.918 0 0024.06 11h-6.427c.952-2.416 1.04-5.474.075-7.277C17.113 2.612 16.151 2 15 2c-1.27 0-2.762.95-3.146 3.618-.274 1.91-1.283 2.445-2.954 3.333-1.024.545-2.186 1.162-3.306 2.23-.505.482-.782.674-1.098.76C3.602 12.185 3 12.943 3 13.828v14.34c0 .917.668 1.716 1.588 1.898.455.091.999.268 1.628.472C8.119 31.154 10.725 32 15 32h6a3.003 3.003 0 002.738-4.226A3.508 3.508 0 0026 24.5c0-.756-.241-1.457-.65-2.03a3.5 3.5 0 001.257-4.579 29.922 29.922 0 005.457-.982c1.095-.304 1.832-1.272 1.832-2.409s-.737-2.105-1.832-2.409zm-.535 2.89A27.931 27.931 0 0124.06 16H22a1 1 0 100 2h1.5c.827 0 1.5.673 1.5 1.5s-.673 1.5-1.5 1.5H21a1 1 0 100 2h1.5c.827 0 1.5.673 1.5 1.5s-.673 1.5-1.5 1.5H20a1 1 0 100 2h1a1 1 0 010 2h-6c-3.959 0-6.392-.79-8.167-1.365-.69-.223-1.284-.416-1.833-.467l.023-14.297c.84-.23 1.424-.74 1.952-1.243.92-.878 1.909-1.403 2.864-1.91 1.759-.935 3.576-1.901 3.996-4.815C14.036 4.499 14.589 4 15 4c.273 0 .629.076.944.667.841 1.57.457 4.929-.776 6.778L14.132 13h9.928c2.523 0 5.037.343 7.47 1.018.33.092.366.368.366.482s-.037.39-.367.482zM19 16.5v1a.5.5 0 11-1 0v-1a.5.5 0 111 0zm-1 5v1a.5.5 0 11-1 0v-1a.5.5 0 111 0zm-1 5v1a.5.5 0 11-1 0v-1a.5.5 0 111 0z" fill="#d94700"/>
</svg>