<svg xmlns="http://www.w3.org/2000/svg" viewBox="0 0 36 36"><defs><style>.a{fill:#d94700;}</style></defs><title>egais</title><path class="a" d="M32.12,14.5h-.56a13.81,13.81,0,0,0-1.49-3.61l.4-.4a1.88,1.88,0,0,0,0-2.66L28.17,5.54a1.89,1.89,0,0,0-2.66,0l-.4.4A13.83,13.83,0,0,0,21.5,4.45V4.09A1.93,1.93,0,0,0,19.62,2H16.38A1.88,1.88,0,0,0,14.5,3.88v.56a13.83,13.83,0,0,0-3.61,1.49l-.4-.4a1.89,1.89,0,0,0-2.66,0L5.54,7.83a1.88,1.88,0,0,0,0,2.66l.4.4A13.81,13.81,0,0,0,4.45,14.5H3.88A1.88,1.88,0,0,0,2,16.38v3.23A1.89,1.89,0,0,0,3.88,21.5h.56a13.82,13.82,0,0,0,1.49,3.61l-.4.4a1.88,1.88,0,0,0,0,2.66l2.29,2.29a1.88,1.88,0,0,0,2.66,0l.4-.4a13.82,13.82,0,0,0,3.61,1.49v.35A1.93,1.93,0,0,0,16.38,34h3.23a1.89,1.89,0,0,0,1.88-1.88v-.56a13.82,13.82,0,0,0,3.61-1.49l.4.4a1.88,1.88,0,0,0,2.66,0l2.29-2.29a1.88,1.88,0,0,0,0-2.66l-.4-.4a13.82,13.82,0,0,0,1.49-3.61h.56A1.89,1.89,0,0,0,34,19.62V16.38A1.88,1.88,0,0,0,32.12,14.5Zm-.12,5H29.93l-.16.81A11.87,11.87,0,0,1,28,24.7l-.46.68L29,26.84,26.84,29,25.38,27.5,24.7,28a11.87,11.87,0,0,1-4.39,1.81l-.81.16V32h-3a.6.6,0,0,1,0-.09v-2l-.81-.16A11.87,11.87,0,0,1,11.3,28l-.68-.46L9.16,29,7,26.84,8.5,25.38,8,24.7a11.87,11.87,0,0,1-1.81-4.39l-.16-.81H4v-3H6.07l.16-.81A11.87,11.87,0,0,1,8,11.3l.46-.68L7,9.16,9.16,7,10.62,8.5,11.3,8a11.88,11.88,0,0,1,4.39-1.81l.81-.16V4h3a.61.61,0,0,1,0,.09v2l.81.16A11.88,11.88,0,0,1,24.7,8l.68.46L26.84,7,29,9.16,27.5,10.62l.46.68a11.87,11.87,0,0,1,1.81,4.39l.16.81H32Z"/><path class="a" d="M18,11a7,7,0,1,0,7,7A7,7,0,0,0,18,11Zm0,12a5,5,0,1,1,5-5A5,5,0,0,1,18,23Z"/><path class="a" d="M23.85,9.89a10,10,0,0,0-2.79-1.41l-.31,1a8.93,8.93,0,0,1,2.51,1.27Z"/><path class="a" d="M26.07,12.09l-.81.59a9,9,0,0,1,1.29,2.5l.95-.31A10,10,0,0,0,26.07,12.09Z"/><path class="a" d="M23.29,25.28l.59.81a10,10,0,0,0,2.21-2.21l-.81-.59A9,9,0,0,1,23.29,25.28Z"/><path class="a" d="M18,9V8a10,10,0,0,0-3.09.5l.31,1A9,9,0,0,1,18,9Z"/><path class="a" d="M18,27v1a10,10,0,0,0,3.09-.49l-.31-1A9,9,0,0,1,18,27Z"/><path class="a" d="M12.13,26.1a9.93,9.93,0,0,0,2.79,1.42l.31-1a9,9,0,0,1-2.51-1.28Z"/><path class="a" d="M26.56,20.78l1,.31A10,10,0,0,0,28,18v0l-1,0A9,9,0,0,1,26.56,20.78Z"/><path class="a" d="M12.69,10.73l-.59-.81a10,10,0,0,0-2.21,2.22l.81.59A9,9,0,0,1,12.69,10.73Z"/><path class="a" d="M9.43,15.24l-1-.31A10,10,0,0,0,8,18h.05L9,18A9,9,0,0,1,9.43,15.24Z"/><path class="a" d="M8.49,21.11a10,10,0,0,0,1.43,2.78l.81-.59a8.93,8.93,0,0,1-1.28-2.5Z"/></svg>