<svg xmlns="http://www.w3.org/2000/svg" viewBox="0 0 64 64">
    <path fill="#d94700" d="M55 5H36v8.43a2.36 2.36 0 00-1.35-.43h-1.37A3.28 3.28 0 0030 16.28v1.45A3.28 3.28 0 0033.28 21h1.37a2.36 2.36 0 001.35-.43V28h10v-1a1.39 1.39 0 01-1-1.35v-1.37A2.28 2.28 0 0147.28 22h1.45A2.28 2.28 0 0151 24.28v1.37A1.39 1.39 0 0150 27v1h9V9a4 4 0 00-4-4zm2 22h-5.43a2.36 2.36 0 00.43-1.35v-1.37A3.28 3.28 0 0048.72 21h-1.44A3.28 3.28 0 0044 24.28v1.37a2.36 2.36 0 00.43 1.35H37v-8h-1a1.39 1.39 0 01-1.35 1h-1.37A2.28 2.28 0 0131 17.72v-1.44A2.28 2.28 0 0133.28 14h1.37A1.39 1.39 0 0136 15h1V7h18a2 2 0 012 2z"/>
    <path fill="#d94700" d="M42 34.65v-1.37A3.28 3.28 0 0038.72 30h-1.44A3.28 3.28 0 0034 33.28v1.37a2.36 2.36 0 00.43 1.35H27v-8h-1a1.39 1.39 0 01-1.35 1h-1.37A2.28 2.28 0 0121 26.72v-1.44A2.28 2.28 0 0123.28 23h1.37A1.39 1.39 0 0126 24h1V13H8a4 4 0 00-4 4v38.8a4 4 0 004 4h37a4 4 0 004-4V36h-7.43a2.36 2.36 0 00.43-1.35zM6 17a2 2 0 012-2h18v7.43a2.36 2.36 0 00-1.35-.43h-1.37A3.28 3.28 0 0020 25.28v1.45A3.28 3.28 0 0023.28 30h1.37a2.36 2.36 0 001.35-.43V36h-8v1a1.39 1.39 0 011 1.35v1.37A2.28 2.28 0 0116.72 42h-1.44A2.28 2.28 0 0113 39.72v-1.37A1.39 1.39 0 0114 37v-1H6zm20 41H8a2 2 0 01-2-2V37h6.43a2.36 2.36 0 00-.43 1.35v1.37A3.28 3.28 0 0015.28 43h1.45A3.28 3.28 0 0020 39.72v-1.37a2.36 2.36 0 00-.43-1.35H26v9h1a1.39 1.39 0 011.35-1h1.37A2.28 2.28 0 0132 47.28v1.45A2.28 2.28 0 0129.72 51h-1.37A1.39 1.39 0 0127 50h-1zm21-2a2 2 0 01-2 2H27v-6.43a2.36 2.36 0 001.35.43h1.37A3.28 3.28 0 0033 48.72v-1.44A3.28 3.28 0 0029.72 44h-1.37a2.36 2.36 0 00-1.35.43V37h9v-1a1.39 1.39 0 01-1-1.35v-1.37A2.28 2.28 0 0137.28 31h1.45A2.28 2.28 0 0141 33.28v1.37A1.39 1.39 0 0140 36v1h7z"/>
</svg>