<svg xmlns="http://www.w3.org/2000/svg" viewBox="0 0 64 64">
    <path fill="#d94700" d="M50 6H20v26a13.38 13.38 0 01-2.06-7L18 14a2 2 0 00-2-2h-5a1 1 0 00-1 1v12.06c0 5-2.28 7.38-4.24 10.1C4.29 37.23 3 39 3 41v15a4 4 0 004 4h54V17zm0 3l7.06 7H50zm-38 9h4v4h-4zm0-4h4v3h-4zM7.41 36.33C9.44 33.51 12 30 12 25v-2h4v2c0 5 2.51 8.56 4.58 11.38C21.88 38.16 23 39.69 23 41H5c0-1.33 1.12-2.88 2.41-4.67zM23 54H5V42h18zM7 58a2 2 0 01-2-2v-1h18v1a2 2 0 01-2 2zm52 0H24.45a4 4 0 00.55-2V41c0-2-1.3-3.74-2.81-5.8l-.19-.26V8h26v9a.94.94 0 001 1h10z"/>
    <path fill="#d94700" d="M29 16h11v1H29zm0 6h22v1H29zm0 5h22v1H29zm0 5h8v1h-8zm0 5h18v1H29zm0 10h17v1H29zm0-5h24v1H29zM8 50v-1H6v2h1v-1h1zm-2 2h1v1H6zm1-1h1v1H7zm2 0v1h1v-2h1v-1H9v1H8v1h1zm1 1h1v1h-1zm-2 0h1v1H8zm-2-6h5v1H6zm0-2h8v1H6z"/>
</svg>