<svg xmlns="http://www.w3.org/2000/svg" viewBox="0 0 636 392" xmlns:v="https://vecta.io/nano"><path d="M396 319h-12.11c1.074-1.05 1.807-2.444 2.03-4H388c1.654 0 3-1.346 3-3v-2.8a41.13 41.13 0 0 0-5.006-19.633c-.864-1.584-2.52-2.567-4.324-2.567H369v-6c0-1.654-1.346-3-3-3h-34c-1.654 0-3 1.346-3 3v31c0 1.654 1.346 3 3 3h4.08c.224 1.556.957 2.95 2.03 4H326a1 1 0 1 0 0 2h5.293l-1.646 1.646a.5.5 0 0 0 .354.854.5.5 0 0 0 .354-.146l2.354-2.354h12.586l-1.646 1.646a.5.5 0 0 0 .354.854.5.5 0 0 0 .354-.146l2.354-2.354h12.586l-1.646 1.646a.5.5 0 0 0 .354.854.5.5 0 0 0 .354-.146l2.354-2.354h12.586l-1.646 1.646a.5.5 0 0 0 .354.854.5.5 0 0 0 .354-.146l2.354-2.354h12.586l-1.646 1.646a.5.5 0 0 0 .354.854.5.5 0 0 0 .354-.146l2.354-2.354H396a1 1 0 1 0 0-2zm-12-5a5.01 5.01 0 0 1-5 5 5.01 5.01 0 0 1-5-5 5.01 5.01 0 0 1 5-5 5.01 5.01 0 0 1 5 5zm3.625-15H376.5a.5.5 0 0 1-.5-.5v-6a.5.5 0 0 1 .5-.5h8.484a39.04 39.04 0 0 1 2.641 7zm-5.955-10c1.07 0 2.056.584 2.568 1.524l.24.476h-7.98a1.5 1.5 0 0 0-1.5 1.5v6a1.5 1.5 0 0 0 1.5 1.5h11.384c.73 3.006 1.116 6.096 1.116 9.2v2.8a1 1 0 0 1-1 1h-2.08c-.488-3.386-3.4-6-6.92-6s-6.432 2.614-6.92 6H369v-24h12.67zM331 312v-31a1 1 0 0 1 1-1h34a1 1 0 0 1 1 1v32h-17.08c-.488-3.386-3.4-6-6.92-6s-6.432 2.614-6.92 6H332a1 1 0 0 1-1-1zm7 2a5.01 5.01 0 0 1 5-5 5.01 5.01 0 0 1 5 5 5.01 5.01 0 0 1-5 5 5.01 5.01 0 0 1-5-5zm9.89 5c1.074-1.05 1.807-2.444 2.03-4h22.16c.224 1.556.957 2.95 2.03 4H347.89zm31.11-7.5c-1.38 0-2.5 1.12-2.5 2.5s1.12 2.5 2.5 2.5 2.5-1.12 2.5-2.5-1.12-2.5-2.5-2.5zm1.5 2.5a1.5 1.5 0 1 1-3 0 1.5 1.5 0 1 1 3 0zm-35 0c0-1.38-1.12-2.5-2.5-2.5s-2.5 1.12-2.5 2.5 1.12 2.5 2.5 2.5 2.5-1.12 2.5-2.5zm-4 0a1.5 1.5 0 1 1 3 0 1.5 1.5 0 1 1-3 0zm-8-31a.5.5 0 1 1 0-1h31a.5.5 0 1 1 0 1h-31z" fill="#d94814"/><path d="M290 258h-3v-26c0-1.654-1.346-3-3-3h-28c-1.654 0-3 1.346-3 3v26h-3a1 1 0 0 0-1 1v7a1 1 0 0 0 1 1h6a1 1 0 0 0 1-1v-4h9v4a1 1 0 0 0 1 1h6a1 1 0 0 0 1-1v-4h9v4a1 1 0 0 0 1 1h6a1 1 0 0 0 1-1v-7a1 1 0 0 0-1-1zm-22-27h4v2h-4v-2zm-13 1a1 1 0 0 1 1-1h11v2.5a.5.5 0 0 0 .5.5h5a.5.5 0 0 0 .5-.5V231h11a1 1 0 0 1 1 1v26h-30v-26zm0 33h-4v-3h4v3zm17 0h-4v-3h4v3zm1-4h-22v-1h38v1h-16zm16 4h-4v-3h4v3zm-32-14h1v5h-1v-5zm2 0h1v5h-1v-5zm2 0h1v5h-1v-5zm-56.5-9h-8.056c.344-.6.556-1.268.556-2v-13.5a8.45 8.45 0 0 0-3-6.439V217c0-1.103-.897-2-2-2h-2c-1.103 0-2 .897-2 2v3.082a8.38 8.38 0 0 0-3 6.44V240c0 .732.212 1.4.556 2h-8.113c.344-.6.556-1.268.556-2v-13.5a8.45 8.45 0 0 0-3-6.439V217c0-1.103-.897-2-2-2h-2c-1.103 0-2 .897-2 2v3.082a8.38 8.38 0 0 0-3 6.44V240c0 .732.212 1.4.556 2H158.5a5.51 5.51 0 0 0-5.5 5.5 5.51 5.51 0 0 0 5.5 5.5h46a5.51 5.51 0 0 0 5.5-5.5 5.51 5.51 0 0 0-5.5-5.5zM192 217v1h-2v-1h2zm-5 23v-13.48c0-1.936.86-3.748 2.36-4.97l.64-.52V219h2v2.06l.404.3a6.44 6.44 0 0 1 2.596 5.152V240c0 1.103-.897 2-2 2h-4c-1.103 0-2-.897-2-2zm-14-23v1h-2v-1h2zm-5 23v-13.48c0-1.936.86-3.748 2.36-4.97l.64-.52V219h2v2.06l.404.3a6.44 6.44 0 0 1 2.596 5.152V240c0 1.103-.897 2-2 2h-4c-1.103 0-2-.897-2-2zm36.5 11H203v-.5a.5.5 0 1 0-1 0v.5h-5v-.5a.5.5 0 1 0-1 0v.5h-5v-.5a.5.5 0 1 0-1 0v.5h-5v-.5a.5.5 0 1 0-1 0v.5h-5v-.5a.5.5 0 1 0-1 0v.5h-5v-.5a.5.5 0 1 0-1 0v.5h-5v-.5a.5.5 0 1 0-1 0v.5h-5v-.5a.5.5 0 1 0-1 0v.5h-1.5c-1.93 0-3.5-1.57-3.5-3.5s1.57-3.5 3.5-3.5h1.5v.5a.5.5 0 1 0 1 0v-.5h5v.5a.5.5 0 1 0 1 0v-.5h5v.5a.5.5 0 1 0 1 0v-.5h5v.5a.5.5 0 1 0 1 0v-.5h5v.5a.5.5 0 1 0 1 0v-.5h5v.5a.5.5 0 1 0 1 0v-.5h5v.5a.5.5 0 1 0 1 0v-.5h5v.5a.5.5 0 1 0 1 0v-.5h1.5c1.93 0 3.5 1.57 3.5 3.5s-1.57 3.5-3.5 3.5zm-30-21h-5a.5.5 0 1 1 0-1h5a.5.5 0 1 1 0 1zm19 0h-5a.5.5 0 1 1 0-1h5a.5.5 0 1 1 0 1zm11 15c-1.38 0-2.5 1.122-2.5 2.5s1.12 2.5 2.5 2.5 2.5-1.122 2.5-2.5-1.12-2.5-2.5-2.5zm0 4a1.5 1.5 0 1 1 0-3 1.5 1.5 0 1 1 0 3zm-46-4c-1.38 0-2.5 1.122-2.5 2.5s1.12 2.5 2.5 2.5 2.5-1.122 2.5-2.5-1.12-2.5-2.5-2.5zm0 4a1.5 1.5 0 1 1 0-3 1.5 1.5 0 1 1 0 3zm23-4c-1.38 0-2.5 1.122-2.5 2.5s1.12 2.5 2.5 2.5 2.5-1.122 2.5-2.5-1.12-2.5-2.5-2.5zm0 4a1.5 1.5 0 1 1 0-3 1.5 1.5 0 1 1 0 3zM175 145h-19v-12c0-1.654-1.346-3-3-3h-9.058l-2.944-49.06A1 1 0 0 0 140 80h-.908a1.5 1.5 0 0 1 1.408-1h26.95a.5.5 0 0 0 .495-.571C167.662 76.474 165.967 75 164 75c-.343 0-.684.046-1.02.14-.165-1.606-1.42-2.894-3.013-3.107-.23-1.7-1.697-3.03-3.47-3.03a3.49 3.49 0 0 0-2.987 1.696c-1.314-1.685-3.352-2.7-5.5-2.7-3.603 0-6.58 2.736-6.957 6.285a4.36 4.36 0 0 0-1.867-.273c-2.342.176-4.176 2.256-4.176 4.736V80h-1a1 1 0 0 0-.998.94L130.058 130H126V96c0-1.654-1.346-3-3-3h-21.083l-1.92-22.086A1 1 0 0 0 99 70h-.908a1.5 1.5 0 0 1 1.408-1h26.95a.5.5 0 0 0 .495-.571C126.662 66.474 124.967 65 123 65c-.343 0-.684.046-1.02.14-.165-1.606-1.42-2.894-3.013-3.107-.23-1.7-1.697-3.03-3.47-3.03a3.49 3.49 0 0 0-2.987 1.696c-1.314-1.685-3.352-2.7-5.5-2.7-3.603 0-6.58 2.736-6.957 6.285-.602-.226-1.235-.322-1.867-.273C95.834 64.188 94 66.27 94 68.75V70h-1a1 1 0 0 0-.996.914L90.083 93H87c-1.654 0-3 1.346-3 3v18h-7c-1.654 0-3 1.346-3 3v28H53a1 1 0 1 0 0 2h5.293l-1.646 1.646a.5.5 0 1 0 .708.708L59.707 147h12.586l-1.646 1.646a.5.5 0 1 0 .708.708L73.707 147h12.586l-1.646 1.646a.5.5 0 1 0 .708.708L87.707 147h12.586l-1.646 1.646a.5.5 0 1 0 .708.708L101.71 147h12.586l-1.646 1.646a.5.5 0 1 0 .708.708L115.71 147h12.586l-1.646 1.646a.5.5 0 1 0 .708.708l2.354-2.354H142.3l-1.646 1.646a.5.5 0 1 0 .708.708l2.354-2.354H156.3l-1.646 1.646a.5.5 0 1 0 .708.708l2.354-2.354h12.586l-1.646 1.646a.5.5 0 1 0 .708.708L171.72 147H175a1 1 0 1 0 0-2zm-41.198-44h6.397l.96 16h-8.317l.96-16zm.9-15h4.597l.84 14h-6.277l.84-14zm1.3-7.25c0-1.96 1.428-3.602 3.25-3.74.692-.055 1.366.1 2 .48.155.1.344.063.5-.027s.25-.282.25-.46a6.01 6.01 0 0 1 6-6c2.12 0 4.106 1.143 5.18 2.983.1.175.306.27.5.244a.5.5 0 0 0 .416-.367c.3-1.095 1.28-1.86 2.404-1.86 1.38 0 2.5 1.122 2.5 2.5a.5.5 0 0 0 .5.5c1.38 0 2.5 1.122 2.5 2.5 0 .07-.01.14-.02.208 0 .003-.013.1-.013.103a.5.5 0 0 0 .717.508c1.663-.818 3.567.1 4.13 1.68H140.5c-1.208 0-2.217.86-2.45 2H136v-1.25zm-.5 3.25h3.56l.18 3h-4.477l.18-3h.56zm-2.72 36h8.437l.72 12h-9.877l.72-12zM93.57 76h4.862l.87 10h-6.6l.87-10zM95 68.75c0-1.96 1.428-3.602 3.25-3.74.7-.05 1.366.1 2 .48.155.1.344.062.5-.027s.25-.282.25-.46a6.01 6.01 0 0 1 6-6c2.12 0 4.106 1.143 5.18 2.983a.51.51 0 0 0 .5.244.5.5 0 0 0 .416-.367c.3-1.095 1.28-1.86 2.404-1.86 1.38 0 2.5 1.122 2.5 2.5a.5.5 0 0 0 .5.5c1.38 0 2.5 1.122 2.5 2.5 0 .07-.01.14-.02.208 0 .003-.013.1-.013.103a.5.5 0 0 0 .717.508c1.662-.817 3.567.1 4.13 1.68H99.5c-1.208 0-2.217.86-2.45 2H95v-1.25zM94.5 72h3.583l.26 3h-4.688l.26-3h.583zm-1.888 15h6.775l.522 6h-7.82l.522-6zM86 96a1 1 0 0 1 1-1h36a1 1 0 0 1 1 1v34h-5c-1.654 0-3 1.346-3 3v12h-9v-28c0-1.654-1.346-3-3-3H86V96zm-10 49v-28a1 1 0 0 1 1-1h27a1 1 0 0 1 1 1v28H76zm42 0v-12a1 1 0 0 1 1-1h34a1 1 0 0 1 1 1v12h-36zm-8.5-43h11a.5.5 0 0 0 .5-.5v-3a.5.5 0 0 0-.5-.5h-11a.5.5 0 0 0-.5.5v3a.5.5 0 0 0 .5.5zm.5-3h10v2h-10v-2zm-.5 9h11a.5.5 0 0 0 .5-.5v-3a.5.5 0 0 0-.5-.5h-11a.5.5 0 0 0-.5.5v3a.5.5 0 0 0 .5.5zm.5-3h10v2h-10v-2zm-19.5 14h-11a.5.5 0 0 0-.5.5v3a.5.5 0 0 0 .5.5h11a.5.5 0 0 0 .5-.5v-3a.5.5 0 0 0-.5-.5zm-.5 3H80v-2h10v2zm.5 3h-11a.5.5 0 0 0-.5.5v3a.5.5 0 0 0 .5.5h11a.5.5 0 0 0 .5-.5v-3a.5.5 0 0 0-.5-.5zm-.5 3H80v-2h10v2zm31 6.5v2a.5.5 0 1 1-1 0v-2a.5.5 0 1 1 1 0zm4 0v2a.5.5 0 1 1-1 0v-2a.5.5 0 1 1 1 0zm4 0v2a.5.5 0 1 1-1 0v-2a.5.5 0 1 1 1 0zm4 0v2a.5.5 0 1 1-1 0v-2a.5.5 0 1 1 1 0zm4 0v2a.5.5 0 1 1-1 0v-2a.5.5 0 1 1 1 0zm4 0v2a.5.5 0 1 1-1 0v-2a.5.5 0 1 1 1 0z" fill="#d94700"/><path d="M572 306h-23v-3c0-1.302-.838-2.402-2-2.816V268.9a5 5 0 0 0 1 .101c2.72 0 4.932-2.188 4.99-4.895l.005-.048c0-.02.006-.037.006-.057h-.013c0-.105-.004-.21-.04-.316L551 257.84V255c0-1.103-.897-2-2-2v-9c0-1.103-.897-2-2-2h-16.802c-3.15-6.92-10.113-11.75-18.198-11.75s-15.048 4.83-18.198 11.75H477c-1.103 0-2 .897-2 2v9c-1.103 0-2 .897-2 2v2.84l-1.948 5.845c-.035.105-.04.21-.04.316H471c0 .02.005.037.006.057s.003.032.005.048c.057 2.707 2.268 4.895 4.99 4.895a5 5 0 0 0 1-.101v31.285c-1.162.414-2 1.514-2 2.816v3h-25a1 1 0 1 0 0 2h5.293l-1.646 1.646a.5.5 0 0 0 .354.854.5.5 0 0 0 .354-.146l2.354-2.354h12.586l-1.646 1.646a.5.5 0 0 0 .354.854.5.5 0 0 0 .354-.146l2.354-2.354h12.586l-1.646 1.646a.5.5 0 0 0 .354.854.5.5 0 0 0 .354-.146l2.354-2.354h12.586l-1.646 1.646a.5.5 0 0 0 .354.854.5.5 0 0 0 .354-.146l2.354-2.354h12.586l-1.646 1.646a.5.5 0 0 0 .354.854.5.5 0 0 0 .354-.146l2.354-2.354h12.586l-1.646 1.646a.5.5 0 0 0 .354.854.5.5 0 0 0 .354-.146l2.354-2.354h12.586l-1.646 1.646a.5.5 0 0 0 .354.854.5.5 0 0 0 .354-.146l2.354-2.354h12.586l-1.646 1.646a.5.5 0 0 0 .354.854.5.5 0 0 0 .354-.146l2.354-2.354h12.586l-1.646 1.646a.5.5 0 0 0 .354.854.5.5 0 0 0 .354-.146l2.354-2.354H572a1 1 0 1 0 0-2zm-24-39c-1.654 0-3-1.346-3-3h-.02c0-.066.014-.13 0-.196l-.96-4.804h5.26l1.708 5.124C550.92 265.72 549.612 267 548 267zm-73-12h74v2h-74v-2zm2-11h70v10h-70v-10zm4.98 15h6l-.96 4.804c-.013.067 0 .13 0 .196H487c0 1.654-1.346 3-3 3a3 3 0 0 1-2.993-2.935l.974-4.87c.013-.067 0-.13 0-.196zm8 0h6l-.96 4.804c-.013.067 0 .13 0 .196H495c0 1.654-1.346 3-3 3a3 3 0 0 1-2.993-2.935l.974-4.87c.013-.067 0-.13 0-.196zm8 0h6l-.96 4.804c-.013.067 0 .13 0 .196H503c0 1.654-1.346 3-3 3a3 3 0 0 1-2.993-2.935l.974-4.87c.013-.067 0-.13 0-.196zm8 0H511v5c0 1.654-1.346 3-3 3a3 3 0 0 1-2.993-2.935l.974-4.87c.013-.067 0-.13 0-.196zm7.02 0h5.02c0 .066-.014.13 0 .196l.974 4.87A3 3 0 0 1 516 267c-1.654 0-3-1.346-3-3v-5zm7.98 5c0-.066.014-.13 0-.196l-.96-4.804h6c0 .066-.014.13 0 .196l.974 4.87A3 3 0 0 1 524 267c-1.654 0-3-1.346-3-3h-.02zm8 0c0-.066.014-.13 0-.196l-.96-4.804h6c0 .066-.014.13 0 .196l.974 4.87A3 3 0 0 1 532 267c-1.654 0-3-1.346-3-3h-.02zm8 0c0-.066.014-.13 0-.196l-.96-4.804h6c0 .066-.014.13 0 .196l.974 4.87A3 3 0 0 1 540 267c-1.654 0-3-1.346-3-3h-.02zM512 232.25c6.95 0 12.982 3.967 15.98 9.75h-31.96c2.998-5.783 9.03-9.75 15.98-9.75zm-38.988 31.874L474.72 259h5.26l-.96 4.804c-.013.067 0 .13 0 .196H479c0 1.654-1.346 3-3 3-1.612 0-2.92-1.28-2.988-2.876zM480 266.97c.912 1.225 2.36 2.03 4 2.03s3.088-.806 4-2.03c.912 1.225 2.36 2.03 4 2.03s3.088-.806 4-2.03c.912 1.225 2.36 2.03 4 2.03s3.088-.806 4-2.03c.912 1.225 2.36 2.03 4 2.03s3.088-.806 4-2.03c.912 1.225 2.36 2.03 4 2.03s3.088-.806 4-2.03c.912 1.225 2.36 2.03 4 2.03s3.088-.806 4-2.03c.912 1.225 2.36 2.03 4 2.03s3.088-.806 4-2.03c.912 1.225 2.36 2.03 4 2.03s3.088-.806 4-2.03a5.02 5.02 0 0 0 1.004 1.009c0 .008-.004.014-.004.022v32h-4v-25.5a1.5 1.5 0 0 0-1.5-1.5h-13a1.5 1.5 0 0 0-1.5 1.5V300h-46v-32c0-.008-.004-.014-.004-.022a5.02 5.02 0 0 0 1.004-1.009zM540 300h-14v-25.5a.5.5 0 0 1 .5-.5h13a.5.5 0 0 1 .5.5V300zm-63 6v-3a1 1 0 0 1 1-1h68a1 1 0 0 1 1 1v3h-70zm54-17.5a.5.5 0 0 1-.5.5h-3a.5.5 0 1 1 0-1h3a.5.5 0 0 1 .5.5zM503.5 247a1.5 1.5 0 0 0-1.5 1.5v3a.5.5 0 1 0 1 0V250h1v1.5a.5.5 0 1 0 1 0v-3a1.5 1.5 0 0 0-1.5-1.5zm.5 2h-1v-.5a.5.5 0 1 1 1 0v.5zm-4-.5v3a.5.5 0 1 1-1 0v-3a.5.5 0 1 0-1 0v3a.5.5 0 1 1-1 0v-3a.5.5 0 1 0-1 0v3a.5.5 0 1 1-1 0v-3a1.5 1.5 0 0 1 1.5-1.5 1.49 1.49 0 0 1 1 .39 1.49 1.49 0 0 1 1-.39 1.5 1.5 0 0 1 1.5 1.5zm24-1v4a.5.5 0 0 1-.5.5h-1a1.5 1.5 0 0 1-1.5-1.5v-3a.5.5 0 1 1 1 0v3a.5.5 0 0 0 .5.5h.5v-3.5a.5.5 0 1 1 1 0zm-11.5-.5a1.5 1.5 0 0 0-1.5 1.5v3a.5.5 0 1 0 1 0V250h1v1.5a.5.5 0 1 0 1 0v-3a1.5 1.5 0 0 0-1.5-1.5zm.5 2h-1v-.5a.5.5 0 1 1 1 0v.5zm-3-1.5a.5.5 0 0 1-.5.5H508v3.5a.5.5 0 1 1-1 0v-4a.5.5 0 0 1 .5-.5h2a.5.5 0 0 1 .5.5zm9 1c0 .384-.145.734-.383 1 .238.266.383.616.383 1a1.5 1.5 0 1 1-3 0 .5.5 0 1 1 1 0 .5.5 0 1 0 1 0 .5.5 0 0 0-.5-.5.5.5 0 1 1 0-1 .5.5 0 1 0 0-1 .5.5 0 0 0-.5.5.5.5 0 1 1-1 0 1.5 1.5 0 1 1 3 0zm10-1v4a.5.5 0 1 1-1 0V250h-1v1.5a.5.5 0 1 1-1 0v-4a.5.5 0 1 1 1 0v1.5h1v-1.5a.5.5 0 1 1 1 0zM484 295h37a1 1 0 1 0 0-2v-18.5a1.5 1.5 0 0 0-1.5-1.5h-34a1.5 1.5 0 0 0-1.5 1.5V293a1 1 0 1 0 0 2zm19-2v-9h17v9h-17zm17-18.5v8.5h-17v-9h16.5a.5.5 0 0 1 .5.5zm-34.5-.5H502v9h-17v-8.5a.5.5 0 0 1 .5-.5zm-.5 10h17v9h-17v-9z" fill="#d94814"/></svg>