<svg xmlns="http://www.w3.org/2000/svg" viewBox="0 0 64 64" xmlns:v="https://vecta.io/nano"><path d="M62 47.2v-4.4l-8-16V21c0-1.1-.9-2-2-2H42v-9h10c1.1 0 2-.9 2-2V2c0-1.1-.9-2-2-2H25c-1.1 0-2 .9-2 2v6c0 1.1.9 2 2 2h10v9h-5v-5H16v5h-4c-1.1 0-2 .9-2 2v5.8l-8 16v4.4c-1.2.4-2 1.6-2 2.8v11c0 1.7 1.3 3 3 3h58c1.7 0 3-1.3 3-3V50c0-1.3-.8-2.4-2-2.8zM25 8V2h27v6H25zm12 2h3v9h-3v-9zm-19 6h10v7H18v-7zm-6 11.2V21h4v2h-2v2h18v-2h-2v-2h22v6.2l8 16V47H4v-3.8l8-16zM62 61a.94.94 0 0 1-1 1H33.1c.5-2.9 3-5 5.9-5h23v4zm0-5H39c-3.5 0-6.4 2.6-6.9 6H3a.94.94 0 0 1-1-1V50a.94.94 0 0 1 1-1h58a.94.94 0 0 1 1 1v6zm-49-5h47v1H13v-1zm45-7H6v-1h52v1zm-8-16H14v-1h36v1zm1-21H26V6h25v1zm0-3H26V3h25v1zM7.5 53C5.6 53 4 54.6 4 56.5S5.6 60 7.5 60s3.5-1.6 3.5-3.5S9.4 53 7.5 53zm0 6C6.1 59 5 57.9 5 56.5S6.1 54 7.5 54s2.5 1.1 2.5 2.5S8.9 59 7.5 59zM19 17h8v1h-8v-1zm0 2h8v1h-8v-1zm0 2h8v1h-8v-1zM7 55h1v3H7v-3zm18.7-17h-4.8l-.8 3h5.2l.4-3zm-1.3 2h-3l.3-1h2.9l-.2 1zm26.7 1h5.2l-1.5-3H50l1.1 3zm3.1-2l.5 1h-2.9l-.4-1h2.8zm-22.7-1h-4.8l-.4 3h5.2v-3zm-1 2h-3l.1-1h2.9v1zM14 41h5.1l.8-3h-4.8L14 41zm1.8-2h2.8l-.3 1h-2.9l.4-1zm16.7 2h5.2l-.4-3h-4.8v3zm1-2h2.9l.1 1h-3v-1zM14 38H9.2l-1.5 3h5.2l1.1-3zm-1.8 2H9.3l.5-1h2.8l-.4 1zM50 41l-1.1-3h-4.8l.8 3H50zm-1.8-2l.4 1h-2.9l-.3-1h2.8zm-4.4 2l-.8-3h-4.8l.4 3h5.2zm-1.5-2l.3 1h-3l-.1-1h2.8zm-10.8-5h-4.3l-.4 3h4.7v-3zm-1 2H28l.1-1h2.4v1zm-9.6-2h-4.3l-1.1 3h4.6l.8-3zm-1.6 2h-2.4l.4-1h2.3l-.3 1zm30.3 1h4.7l-1.5-3h-4.3l1.1 3zm2.6-2l.5 1h-2.4l-.4-1h2.3zm-26-1h-4.3l-.8 3h4.7l.4-3zm-1.3 2h-2.5l.3-1H25l-.1 1zm7.6 1h4.7l-.4-3h-4.3v3zm1-2h2.4l.1 1h-2.6l.1-1zm-18-1h-4.3l-1.5 3h4.7l1.1-3zm-1.8 2h-2.4l.5-1h2.3l-.4 1zm29.1 1l-.8-3h-4.3l.4 3h4.7zm-1.5-2l.3 1h-2.5l-.1-1h2.3zm7.2 2l-1.1-3h-4.3l.8 3h4.6zm-1.8-2l.4 1h-2.4l-.3-1h2.3zm-24.8-5h-3.8L17 33h4.1l.8-3zm-1.6 2h-1.9l.4-1h1.8l-.3 1zm27.8 1h4.2l-1.5-3H47l1.1 3zm2.1-2l.5 1h-1.9l-.4-1h1.8zm-18.7-1h-3.8l-.4 3h4.2v-3zm-1 2h-2l.1-1h1.9v1zm-3.8-2h-3.8l-.8 3h4.2l.4-3zm-1.3 2h-2l.3-1h1.9l-.2 1zm7.1-2v3h4.2l-.4-3h-3.8zm1 2v-1h1.9l.1 1h-2zM17 30h-3.8l-1.5 3h4.2l1.1-3zm-1.8 2h-1.9l.5-1h1.8l-.4 1zM47 33l-1.1-3h-3.8l.8 3H47zm-1.8-2l.4 1h-1.9l-.3-1h1.8zm-3.4 2l-.8-3h-3.8l.4 3h4.2zm-1.5-2l.3 1h-2l-.1-1h1.8z" fill="#d94700"/></svg>