<svg xmlns="http://www.w3.org/2000/svg" viewBox="0 0 64 64" xmlns:v="https://vecta.io/nano"><path d="M46.5,9h-29C16.7,9,16,9.7,16,10.5v4c0,0.8,0.7,1.5,1.5,1.5l0,0h29c0.8,0,1.5-0.7,1.5-1.5l0,0v-4 C48,9.7,47.3,9,46.5,9z M47,14.5c0,0.3-0.2,0.5-0.5,0.5h-29c-0.3,0-0.5-0.2-0.5-0.5v-4c0-0.3,0.2-0.5,0.5-0.5h29 c0.3,0,0.5,0.2,0.5,0.5V14.5z M17.5,7C18.3,7,19,6.3,19,5.5S18.3,4,17.5,4S16,4.7,16,5.5S16.7,7,17.5,7z M17.5,5 C17.8,5,18,5.2,18,5.5S17.8,6,17.5,6S17,5.8,17,5.5S17.2,5,17.5,5z M19.5,11c-0.8,0-1.5,0.7-1.5,1.5s0.7,1.5,1.5,1.5 s1.5-0.7,1.5-1.5S20.3,11,19.5,11z M19.5,13c-0.3,0-0.5-0.2-0.5-0.5s0.2-0.5,0.5-0.5s0.5,0.2,0.5,0.5S19.8,13,19.5,13z M44.5,11 c-0.8,0-1.5,0.7-1.5,1.5s0.7,1.5,1.5,1.5s1.5-0.7,1.5-1.5S45.3,11,44.5,11z M44.5,13c-0.3,0-0.5-0.2-0.5-0.5s0.2-0.5,0.5-0.5 s0.5,0.2,0.5,0.5S44.8,13,44.5,13z M40.5,11c-0.8,0-1.5,0.7-1.5,1.5s0.7,1.5,1.5,1.5s1.5-0.7,1.5-1.5S41.3,11,40.5,11z M40.5,13 c-0.3,0-0.5-0.2-0.5-0.5s0.2-0.5,0.5-0.5s0.5,0.2,0.5,0.5S40.8,13,40.5,13z M46.5,4C45.7,4,45,4.7,45,5.5S45.7,7,46.5,7 S48,6.3,48,5.5S47.3,4,46.5,4z M46.5,6C46.2,6,46,5.8,46,5.5S46.2,5,46.5,5S47,5.2,47,5.5S46.8,6,46.5,6z M17.5,54 c-0.8,0-1.5,0.7-1.5,1.5s0.7,1.5,1.5,1.5s1.5-0.7,1.5-1.5S18.3,54,17.5,54L17.5,54z M17.5,56c-0.3,0-0.5-0.2-0.5-0.5 s0.2-0.5,0.5-0.5s0.5,0.2,0.5,0.5S17.8,56,17.5,56z M46.5,54c-0.8,0-1.5,0.7-1.5,1.5s0.7,1.5,1.5,1.5s1.5-0.7,1.5-1.5 S47.3,54,46.5,54L46.5,54z M46.5,56c-0.3,0-0.5-0.2-0.5-0.5s0.2-0.5,0.5-0.5s0.5,0.2,0.5,0.5S46.8,56,46.5,56z M22.5,12h15v1h-15V12 z M43,6H21V5h22V6z M46.5,18h-29c-0.8,0-1.5,0.7-1.5,1.5v4c0,0.8,0.7,1.5,1.5,1.5h29c0.8,0,1.5-0.7,1.5-1.5v-4 C48,18.7,47.3,18,46.5,18z M47,23.5c0,0.3-0.2,0.5-0.5,0.5h-29c-0.3,0-0.5-0.2-0.5-0.5v-4c0-0.3,0.2-0.5,0.5-0.5h29 c0.3,0,0.5,0.2,0.5,0.5V23.5z M19.5,20c-0.8,0-1.5,0.7-1.5,1.5s0.7,1.5,1.5,1.5s1.5-0.7,1.5-1.5S20.3,20,19.5,20z M19.5,22 c-0.3,0-0.5-0.2-0.5-0.5s0.2-0.5,0.5-0.5s0.5,0.2,0.5,0.5S19.8,22,19.5,22z M44.5,20c-0.8,0-1.5,0.7-1.5,1.5s0.7,1.5,1.5,1.5 s1.5-0.7,1.5-1.5S45.3,20,44.5,20z M44.5,22c-0.3,0-0.5-0.2-0.5-0.5s0.2-0.5,0.5-0.5s0.5,0.2,0.5,0.5S44.8,22,44.5,22z M40.5,20 c-0.8,0-1.5,0.7-1.5,1.5s0.7,1.5,1.5,1.5s1.5-0.7,1.5-1.5S41.3,20,40.5,20z M40.5,22c-0.3,0-0.5-0.2-0.5-0.5s0.2-0.5,0.5-0.5 s0.5,0.2,0.5,0.5S40.8,22,40.5,22z M22.5,21h15v1h-15V21z M46.5,27h-29c-0.8,0-1.5,0.7-1.5,1.5v4c0,0.8,0.7,1.5,1.5,1.5h29 c0.8,0,1.5-0.7,1.5-1.5v-4C48,27.7,47.3,27,46.5,27z M47,32.5c0,0.3-0.2,0.5-0.5,0.5h-29c-0.3,0-0.5-0.2-0.5-0.5v-4 c0-0.3,0.2-0.5,0.5-0.5h29c0.3,0,0.5,0.2,0.5,0.5V32.5z M19.5,29c-0.8,0-1.5,0.7-1.5,1.5s0.7,1.5,1.5,1.5s1.5-0.7,1.5-1.5 S20.3,29,19.5,29L19.5,29z M19.5,31c-0.3,0-0.5-0.2-0.5-0.5s0.2-0.5,0.5-0.5s0.5,0.2,0.5,0.5S19.8,31,19.5,31z M44.5,29 c-0.8,0-1.5,0.7-1.5,1.5s0.7,1.5,1.5,1.5s1.5-0.7,1.5-1.5S45.3,29,44.5,29L44.5,29z M44.5,31c-0.3,0-0.5-0.2-0.5-0.5 s0.2-0.5,0.5-0.5s0.5,0.2,0.5,0.5S44.8,31,44.5,31z M40.5,29c-0.8,0-1.5,0.7-1.5,1.5s0.7,1.5,1.5,1.5s1.5-0.7,1.5-1.5 S41.3,29,40.5,29L40.5,29z M40.5,31c-0.3,0-0.5-0.2-0.5-0.5s0.2-0.5,0.5-0.5s0.5,0.2,0.5,0.5S40.8,31,40.5,31z M22.5,30h15v1h-15V30 z M46.5,36h-29c-0.8,0-1.5,0.7-1.5,1.5v4c0,0.8,0.7,1.5,1.5,1.5h29c0.8,0,1.5-0.7,1.5-1.5v-4C48,36.7,47.3,36,46.5,36z M47,41.5 c0,0.3-0.2,0.5-0.5,0.5h-29c-0.3,0-0.5-0.2-0.5-0.5v-4c0-0.3,0.2-0.5,0.5-0.5h29c0.3,0,0.5,0.2,0.5,0.5V41.5z M19.5,38 c-0.8,0-1.5,0.7-1.5,1.5s0.7,1.5,1.5,1.5s1.5-0.7,1.5-1.5S20.3,38,19.5,38z M19.5,40c-0.3,0-0.5-0.2-0.5-0.5s0.2-0.5,0.5-0.5 s0.5,0.2,0.5,0.5S19.8,40,19.5,40z M44.5,38c-0.8,0-1.5,0.7-1.5,1.5s0.7,1.5,1.5,1.5s1.5-0.7,1.5-1.5S45.3,38,44.5,38z M44.5,40 c-0.3,0-0.5-0.2-0.5-0.5s0.2-0.5,0.5-0.5s0.5,0.2,0.5,0.5S44.8,40,44.5,40z M40.5,38c-0.8,0-1.5,0.7-1.5,1.5s0.7,1.5,1.5,1.5 s1.5-0.7,1.5-1.5S41.3,38,40.5,38z M40.5,40c-0.3,0-0.5-0.2-0.5-0.5s0.2-0.5,0.5-0.5s0.5,0.2,0.5,0.5S40.8,40,40.5,40z M22.5,39h15 v1h-15V39z M46.5,45h-29c-0.8,0-1.5,0.7-1.5,1.5v4c0,0.8,0.7,1.5,1.5,1.5h29c0.8,0,1.5-0.7,1.5-1.5v-4C48,45.7,47.3,45,46.5,45z M47,50.5c0,0.3-0.2,0.5-0.5,0.5h-29c-0.3,0-0.5-0.2-0.5-0.5v-4c0-0.3,0.2-0.5,0.5-0.5h29c0.3,0,0.5,0.2,0.5,0.5V50.5z M19.5,47 c-0.8,0-1.5,0.7-1.5,1.5s0.7,1.5,1.5,1.5s1.5-0.7,1.5-1.5S20.3,47,19.5,47z M19.5,49c-0.3,0-0.5-0.2-0.5-0.5s0.2-0.5,0.5-0.5 s0.5,0.2,0.5,0.5S19.8,49,19.5,49z M44.5,47c-0.8,0-1.5,0.7-1.5,1.5s0.7,1.5,1.5,1.5s1.5-0.7,1.5-1.5S45.3,47,44.5,47z M44.5,49 c-0.3,0-0.5-0.2-0.5-0.5s0.2-0.5,0.5-0.5s0.5,0.2,0.5,0.5S44.8,49,44.5,49z M40.5,47c-0.8,0-1.5,0.7-1.5,1.5s0.7,1.5,1.5,1.5 s1.5-0.7,1.5-1.5S41.3,47,40.5,47z M40.5,49c-0.3,0-0.5-0.2-0.5-0.5s0.2-0.5,0.5-0.5s0.5,0.2,0.5,0.5S40.8,49,40.5,49z M22.5,48h15 v1h-15V48z M21,55h22v1H21V55z M7.5,18C8.3,18,9,17.3,9,16.5C9,15.7,8.3,15,7.5,15S6,15.7,6,16.5C6,17.3,6.7,18,7.5,18z M7.5,16 C7.8,16,8,16.2,8,16.5S7.8,17,7.5,17S7,16.8,7,16.5S7.2,16,7.5,16z M7.5,27C8.3,27,9,26.3,9,25.5S8.3,24,7.5,24S6,24.7,6,25.5 S6.7,27,7.5,27z M7.5,25C7.8,25,8,25.2,8,25.5S7.8,26,7.5,26S7,25.8,7,25.5S7.2,25,7.5,25z M7.5,36C8.3,36,9,35.3,9,34.5 S8.3,33,7.5,33S6,33.7,6,34.5S6.7,36,7.5,36z M7.5,34C7.8,34,8,34.2,8,34.5S7.8,35,7.5,35S7,34.8,7,34.5S7.2,34,7.5,34z M7.5,45 C8.3,45,9,44.3,9,43.5S8.3,42,7.5,42S6,42.7,6,43.5S6.7,45,7.5,45z M7.5,43C7.8,43,8,43.2,8,43.5S7.8,44,7.5,44S7,43.8,7,43.5 S7.2,43,7.5,43z M63,52.2V8c0-1.1-0.9-2-2-2h-9V2c0-1.1-0.9-2-2-2H14c-1.1,0-2,0.9-2,2v4H3C1.9,6,1,6.9,1,8v44.2 c-0.6,0.3-1,0.9-1,1.5v1.5c0,1,0.9,1.8,1.9,1.8H12v2.3c-0.6,0.4-1,1-1,1.7v1c0,1.1,0.9,2,2,2h38c1.1,0,2-0.9,2-2v-1 c0-0.7-0.4-1.4-1-1.7V57h10c1,0.1,1.9-0.7,2-1.7l0,0v-1.5C64,53.1,63.6,52.5,63,52.2z M61,8v44h-9v-2h7v-1h-7v-2h6.5 c0.8,0,1.5-0.7,1.5-1.5v-4c0-0.8-0.7-1.5-1.5-1.5H52v-2h6.5c0.8,0,1.5-0.7,1.5-1.5v-4c0-0.8-0.7-1.5-1.5-1.5H52v-2h6.5 c0.8,0,1.5-0.7,1.5-1.5l0,0v-4c0-0.8-0.7-1.5-1.5-1.5H52v-2h6.5c0.8,0,1.5-0.7,1.5-1.5v-4c0-0.8-0.7-1.5-1.5-1.5H52v-2h7v-1h-7V8H61 z M52,41h6.5c0.3,0,0.5,0.2,0.5,0.5v4c0,0.3-0.2,0.5-0.5,0.5H52V41z M52,32h6.5c0.3,0,0.5,0.2,0.5,0.5v4c0,0.3-0.2,0.5-0.5,0.5H52 V32z M52,23h6.5c0.3,0,0.5,0.2,0.5,0.5v4c0,0.3-0.2,0.5-0.5,0.5H52V23z M52,14h6.5c0.3,0,0.5,0.2,0.5,0.5v4c0,0.3-0.2,0.5-0.5,0.5 H52V14z M14,2h36v57H14V2z M12,19H5.5C5.2,19,5,18.8,5,18.5v-4C5,14.2,5.2,14,5.5,14H12V19z M12,28H5.5C5.2,28,5,27.8,5,27.5v-4 C5,23.2,5.2,23,5.5,23H12V28z M12,37H5.5C5.2,37,5,36.8,5,36.5v-4C5,32.2,5.2,32,5.5,32H12V37z M12,46H5.5C5.2,46,5,45.8,5,45.5v-4 C5,41.2,5.2,41,5.5,41H12V46z M3,8h9v2H5v1h7v2H5.5C4.7,13,4,13.7,4,14.5v4C4,19.3,4.7,20,5.5,20H12v2H5.5C4.7,22,4,22.7,4,23.5v4 C4,28.3,4.7,29,5.5,29l0,0H12v2H5.5C4.7,31,4,31.7,4,32.5v4C4,37.3,4.7,38,5.5,38H12v2H5.5C4.7,40,4,40.7,4,41.5v4 C4,46.3,4.7,47,5.5,47H12v2H5v1h7v2H3V8z M2,55v-1h10v1H2z M13,62v-1h38v1H13z M62,55H52v-1h10V55z M56.5,15c-0.8,0-1.5,0.7-1.5,1.5 c0,0.8,0.7,1.5,1.5,1.5s1.5-0.7,1.5-1.5C58,15.7,57.3,15,56.5,15z M56.5,17c-0.3,0-0.5-0.2-0.5-0.5s0.2-0.5,0.5-0.5s0.5,0.2,0.5,0.5 S56.8,17,56.5,17z M56.5,24c-0.8,0-1.5,0.7-1.5,1.5s0.7,1.5,1.5,1.5s1.5-0.7,1.5-1.5S57.3,24,56.5,24z M56.5,26 c-0.3,0-0.5-0.2-0.5-0.5s0.2-0.5,0.5-0.5s0.5,0.2,0.5,0.5S56.8,26,56.5,26z M56.5,33c-0.8,0-1.5,0.7-1.5,1.5s0.7,1.5,1.5,1.5 s1.5-0.7,1.5-1.5S57.3,33,56.5,33z M56.5,35c-0.3,0-0.5-0.2-0.5-0.5s0.2-0.5,0.5-0.5s0.5,0.2,0.5,0.5S56.8,35,56.5,35z M56.5,42 c-0.8,0-1.5,0.7-1.5,1.5s0.7,1.5,1.5,1.5s1.5-0.7,1.5-1.5S57.3,42,56.5,42z M56.5,44c-0.3,0-0.5-0.2-0.5-0.5s0.2-0.5,0.5-0.5 s0.5,0.2,0.5,0.5S56.8,44,56.5,44z" fill="#d94700"/></svg>