<svg xmlns="http://www.w3.org/2000/svg" viewBox="0 0 64 64">
	<path d="M61 45.5c-1.4-2.4-4.3-5-10-4.2-.7.1-1.4-.1-1.9-.6L38.4 29.9l14.5-14.5h1.8l6.3-9-1.6-1.6-.7.7.7-.7-1.7-1.7-9 6.3v1.8L34.1 25.6l-10-10c-.5-.5-.7-1.2-.6-1.9.8-5.7-1.9-8.6-4.3-10-2.6-1.5-8.8-3-10.3-1.1-.2.3-.7 1.3.6 2.7l4.2 4.2c0 .6-1.5 2.6-3.3 3.5-.4.2-1.2.5-1.6.1L4.5 8.8c-1.3-1.4-2.3-.9-2.6-.6C0 9.7 1.4 15.9 3 18.5c1.4 2.4 4.3 5.1 10 4.2.7-.1 1.4.1 1.9.6l9 9h-.1c-1.1-.2-2.2.1-3 .9l-3.3 3.2-8 8-4.1 4.1c-2.7 2.7-2.7 7.2 0 9.9s7.2 2.7 9.9 0l4.1-4.1 8-8 3.2-3.2c.8-.8 1.1-1.9.9-3V40l8.3 8.3c.5.5.7 1.2.6 1.9-.8 5.7 1.9 8.5 4.3 10 2.3 1.2 4.9 1.9 7.5 2 1 .1 2-.2 2.8-.9.3-.4.8-1.3-.6-2.7l-4.2-4.2c0-.6 1.5-2.6 3.3-3.5.3-.2 1.2-.5 1.6-.1l4.2 4.2c.4.5 1.1.8 1.8.9.3 0 .7-.1.9-.3 2-1.3.6-7.5-1-10.1zM57.8 6.2l.5.5-.6.8-1.2-1.2.8-.6.5.5zM50.6 12v-1.6l5.1-3.5 1.4 1.4-3.5 5.1H52l-19 19 1.4 1.4.4-.4 9.8 9.8c.2.2.3.4.3.7 0 .3-.1.5-.3.7-.4.4-1 .4-1.4 0l-7.9-7.9c.4-.8.3-1.8-.4-2.5l-2.6-2.6-2.6-2.6c-.7-.7-1.7-.8-2.5-.4l-8.1-8.1c-.4-.4-.4-1 0-1.4.4-.4 1-.4 1.4 0l10 10-.4.4 1.4 1.4L50.6 12zM32.2 37.2l-5.4-5.4v-.1l1.3-1.3c.1-.1.2-.1.2 0l2.6 2.6 2.6 2.6c.1.1.1.2 0 .2l-1.3 1.4zM15.6 10.1V10l.7.7v.4c-.4 1.5-3.1 4.2-5.1 4.8-.4.1-.8.1-1.1-.2l-.4-.4c.2 0 .5-.1.7-.1 2-.7 4.6-3.2 5.2-5.1zm-2.9 10.7c-3.7.5-6.4-.6-8-3.3-1.2-2.3-1.8-4.8-1.7-7.4l.1.1 3.1 3.1 3.1 3.1c.4.4.9.6 1.4.5.3 0 .5 0 .8-.1 2.3-.6 5.4-3.7 5.8-5.4.2-.5.1-1-.2-1.4l-1.9-1.8-4.3-4.3-.1-.1c2.6-.1 5.1.5 7.4 1.7 2.7 1.6 3.8 4.3 3.3 8-.2 1.3.3 2.7 1.2 3.6l10 10-1.4 1.4-10-10c-.8-.8-2-.8-2.8 0-.8.8-.8 2 0 2.8l8 8-1 1c-.1.1-.2.3-.3.5L16.3 22c-.9-1-2.3-1.4-3.6-1.2zm7.5 16c.3.1.6.2.8.5l.2.2c.7.7.7 1.9 0 2.6l-8 8c-.7.7-1.9.7-2.6 0l-.2-.2c-.2-.2-.4-.5-.4-.8l10.2-10.3zm-9.8 21.8c-2.8 0-5-2.2-5-5 0-1.4.5-2.7 1.5-3.6l7.1 7.1c-.9 1-2.2 1.5-3.6 1.5zm6.6-4.5c-.3-.1-.5-.2-.8-.5l-.2-.1c-.7-.7-.7-1.9 0-2.6l8-8c.7-.7 1.9-.7 2.6 0l.2.2c.2.2.4.5.5.8L17 54.1zm12.6-13.9l.1.3c.1.4-.1.9-.4 1.2L28 43.1c-.1-.3-.3-.5-.5-.7l-.2-.2c-1.1-1.1-2.9-1.1-4 0l-8 8c-1.1 1.1-1.1 2.9 0 4l.2.2c.2.2.4.4.7.5l-1.5 1.5-7.1-7.1 1.5-1.5c.1.3.3.5.5.7l.2.2c1.1 1.1 2.9 1.1 4 0l8-8c1.1-1.1 1.1-2.9 0-4l-.2-.2c-.2-.2-.5-.4-.7-.5l1.3-1.3c.3-.3.8-.5 1.2-.4l.4.1c.8.2 1.6-.1 2.1-.6.3-.2.5-.5.7-.9l4.4 4.4c-1.1.6-1.7 1.8-1.4 2.9zm23.6 8.9c-1.1.5-2.1 1.1-3 2-.7.6-1.2 1.4-1.6 2.2-.1.2-.2.5-.2.7l-.7-.7c-.2-.2.2-1.4 1.8-2.9s3.8-2.8 4.6-2l.4.4c-.5.1-.9.2-1.3.3zm7.8 4.8l-.1-.1-4.2-4.3-1.9-1.9c-1.3-1.3-4 .1-6 2.1-.7.7-1.3 1.4-1.7 2.3-.6 1.2-.4 1.8 0 2.1l1.8 1.8 4.2 4.2.1.1c-2.6.1-5.1-.5-7.4-1.7-2.7-1.6-3.8-4.3-3.3-8 .2-1.3-.3-2.7-1.2-3.6l-8.1-8.1c.2-.1.3-.2.5-.3l1-1 7.8 7.8c.4.4.9.6 1.4.6 1.1 0 2-.9 2-2 0-.5-.2-1-.6-1.4l-9.8-9.8 1.5-1.5L47.7 42c1 1 2.3 1.4 3.6 1.2 3.7-.5 6.4.6 8 3.3 1.3 2.3 1.8 4.8 1.7 7.4z" fill="#05b"/>
</svg>