<svg xmlns="http://www.w3.org/2000/svg" viewBox="0 0 64 64">
	<path d="M48.8 29.3l13.4-13.4L48.1 1.7 34.7 15.2l-.7-.7c-1.2-1.1-3.1-1.1-4.2 0L9.9 34.3c-8.6 8.6-10.3 18-4.2 24 2.2 2.3 5.3 3.6 8.6 3.6 4.8 0 10.3-2.7 15.5-7.8l19.8-19.8c1.2-1.2 1.2-3.1 0-4.2l-.8-.8zm-.7-24.7l11.3 11.3-12 12-5-4.9 2.8-2.8-1.4-1.4-2.8 2.8-5-5 12.1-12zm0 28.3L28.3 52.7c-7.7 7.7-16.1 9.3-21.2 4.2s-3.5-13.5 4.2-21.2l19.8-19.8c.4-.4 1-.4 1.4 0L48 31.4c.5.4.5 1.1.1 1.5 0-.1 0-.1 0 0zm-4.2-17l2.8-2.8-2.8-2.8L41 13l2.9 2.9zm1.4-2.9l-1.4 1.4-1.4-1.4 1.4-1.4 1.4 1.4zm8.5 7.1L51 17.3l-2.8 2.8L51 23l2.8-2.9zM51 18.7l1.4 1.4-1.4 1.4-1.4-1.4 1.4-1.4zm-18 3.2c-.6-.6-1.5-.6-2.1 0L16.7 36c-.6.6-.6 1.5 0 2.1l9.2 9.2c.6.6 1.5.6 2.1 0l14.1-14.1c.6-.6.6-1.5 0-2.1L33 21.9zm8.4 10.6L27.3 46.6c-.2.2-.5.2-.7 0l-9.2-9.2c-.2-.2-.2-.5 0-.7l14.1-14.1c.1-.1.2-.1.4-.1.1 0 .3.1.3.1l9.2 9.2c.2.2.2.5 0 .7zM16.7 41c-.6-.6-1.5-.6-2.1 0l-2.8 2.8c-.6.6-.6 1.5 0 2.1l6.4 6.4c.3.3.7.4 1.1.4.4 0 .8-.2 1.1-.4l2.8-2.8c.6-.6.6-1.5 0-2.1L16.7 41zm5.6 7.8l-2.8 2.8c-.1.1-.2.1-.4.1-.1 0-.3 0-.4-.1l-6.4-6.4c-.2-.2-.2-.5 0-.7l2.8-2.8c.1-.1.2-.1.4-.2.1 0 .3.1.4.2l6.4 6.4c.2.2.2.5 0 .7zm-8.5 2.5c0-.6-.4-1-.9-1.1h-.1c-1.3.1-2.5-.3-3.5-1.1-.2-.2-.5-.3-.8-.2-.3 0-.5.2-.7.5-1.4 2.4-.6 5.4 1.7 6.9.7.4 1.6.7 2.5.7.9 0 1.8-.3 2.6-.7.2-.2.4-.4.5-.7 0-.3 0-.6-.2-.8-.8-1.1-1.2-2.3-1.1-3.5zm-3.9 2.8c-.7-.7-1-1.7-.8-2.7.8.4 1.8.7 2.7.8.1.9.3 1.9.8 2.7-1 .2-2-.1-2.7-.8zm19.7-17.2c.2.5.4 1 .4 1.6 0 .5-.1 1-.4 1.4-.2.4-.5.9-.9 1.2-.2.3-.5.5-.8.7-.2.2-.5.3-.7.4l-.4-.8c.2-.1.4-.2.6-.4.3-.2.5-.4.7-.6.2-.2.4-.5.6-.8.2-.3.3-.7.3-1 0-.4-.1-.8-.2-1.2-.2-.5-.5-.9-.8-1.2l-2.5 2.5-.6-.7 2.4-2.4c-.3-.3-.7-.5-1.1-.7-.3-.1-.7-.2-1.1-.2-.3 0-.7.1-1 .2-.3.1-.6.4-.8.6-.2.2-.5.5-.6.8-.1.2-.3.4-.3.7l-.7-.4c.1-.3.2-.6.4-.9.2-.3.5-.6.8-.9.4-.3.8-.6 1.2-.8.4-.2.9-.3 1.3-.3.5 0 1 .2 1.5.4.6.3 1.1.7 1.6 1.2.4.4.8 1 1.1 1.6zm1.2-10l5.9 5.9-.7.8-5.3-5.3L28 31l5.3 5.3-.7.7-5.9-5.9 4.1-4.2z" fill="#05b"/>
</svg>