<svg xmlns="http://www.w3.org/2000/svg" viewBox="0 0 64 64">
	<path d="M46.5 9h-29c-.8 0-1.5.7-1.5 1.5v4c0 .8.7 1.5 1.5 1.5h29c.8 0 1.5-.7 1.5-1.5v-4c0-.8-.7-1.5-1.5-1.5zm.5 5.5c0 .3-.2.5-.5.5h-29c-.3 0-.5-.2-.5-.5v-4c0-.3.2-.5.5-.5h29c.3 0 .5.2.5.5v4zM17.5 7c.8 0 1.5-.7 1.5-1.5S18.3 4 17.5 4 16 4.7 16 5.5 16.7 7 17.5 7zm0-2c.3 0 .5.2.5.5s-.2.5-.5.5-.5-.2-.5-.5.2-.5.5-.5zm2 6c-.8 0-1.5.7-1.5 1.5s.7 1.5 1.5 1.5 1.5-.7 1.5-1.5-.7-1.5-1.5-1.5zm0 2c-.3 0-.5-.2-.5-.5s.2-.5.5-.5.5.2.5.5-.2.5-.5.5zm25-2c-.8 0-1.5.7-1.5 1.5s.7 1.5 1.5 1.5 1.5-.7 1.5-1.5-.7-1.5-1.5-1.5zm0 2c-.3 0-.5-.2-.5-.5s.2-.5.5-.5.5.2.5.5-.2.5-.5.5zm-4-2c-.8 0-1.5.7-1.5 1.5s.7 1.5 1.5 1.5 1.5-.7 1.5-1.5-.7-1.5-1.5-1.5zm0 2c-.3 0-.5-.2-.5-.5s.2-.5.5-.5.5.2.5.5-.2.5-.5.5zm6-9c-.8 0-1.5.7-1.5 1.5S45.7 7 46.5 7 48 6.3 48 5.5 47.3 4 46.5 4zm0 2c-.3 0-.5-.2-.5-.5s.2-.5.5-.5.5.2.5.5-.2.5-.5.5zm-29 48c-.8 0-1.5.7-1.5 1.5s.7 1.5 1.5 1.5 1.5-.7 1.5-1.5-.7-1.5-1.5-1.5zm0 2c-.3 0-.5-.2-.5-.5s.2-.5.5-.5.5.2.5.5-.2.5-.5.5zm29-2c-.8 0-1.5.7-1.5 1.5s.7 1.5 1.5 1.5 1.5-.7 1.5-1.5-.7-1.5-1.5-1.5zm0 2c-.3 0-.5-.2-.5-.5s.2-.5.5-.5.5.2.5.5-.2.5-.5.5zm-24-44h15v1h-15v-1zM43 6H21V5h22v1zm3.5 12h-29c-.8 0-1.5.7-1.5 1.5v4c0 .8.7 1.5 1.5 1.5h29c.8 0 1.5-.7 1.5-1.5v-4c0-.8-.7-1.5-1.5-1.5zm.5 5.5c0 .3-.2.5-.5.5h-29c-.3 0-.5-.2-.5-.5v-4c0-.3.2-.5.5-.5h29c.3 0 .5.2.5.5v4zM19.5 20c-.8 0-1.5.7-1.5 1.5s.7 1.5 1.5 1.5 1.5-.7 1.5-1.5-.7-1.5-1.5-1.5zm0 2c-.3 0-.5-.2-.5-.5s.2-.5.5-.5.5.2.5.5-.2.5-.5.5zm25-2c-.8 0-1.5.7-1.5 1.5s.7 1.5 1.5 1.5 1.5-.7 1.5-1.5-.7-1.5-1.5-1.5zm0 2c-.3 0-.5-.2-.5-.5s.2-.5.5-.5.5.2.5.5-.2.5-.5.5zm-4-2c-.8 0-1.5.7-1.5 1.5s.7 1.5 1.5 1.5 1.5-.7 1.5-1.5-.7-1.5-1.5-1.5zm0 2c-.3 0-.5-.2-.5-.5s.2-.5.5-.5.5.2.5.5-.2.5-.5.5zm-18-1h15v1h-15v-1zm24 6h-29c-.8 0-1.5.7-1.5 1.5v4c0 .8.7 1.5 1.5 1.5h29c.8 0 1.5-.7 1.5-1.5v-4c0-.8-.7-1.5-1.5-1.5zm.5 5.5c0 .3-.2.5-.5.5h-29c-.3 0-.5-.2-.5-.5v-4c0-.3.2-.5.5-.5h29c.3 0 .5.2.5.5v4zM19.5 29c-.8 0-1.5.7-1.5 1.5s.7 1.5 1.5 1.5 1.5-.7 1.5-1.5-.7-1.5-1.5-1.5zm0 2c-.3 0-.5-.2-.5-.5s.2-.5.5-.5.5.2.5.5-.2.5-.5.5zm25-2c-.8 0-1.5.7-1.5 1.5s.7 1.5 1.5 1.5 1.5-.7 1.5-1.5-.7-1.5-1.5-1.5zm0 2c-.3 0-.5-.2-.5-.5s.2-.5.5-.5.5.2.5.5-.2.5-.5.5zm-4-2c-.8 0-1.5.7-1.5 1.5s.7 1.5 1.5 1.5 1.5-.7 1.5-1.5-.7-1.5-1.5-1.5zm0 2c-.3 0-.5-.2-.5-.5s.2-.5.5-.5.5.2.5.5-.2.5-.5.5zm-18-1h15v1h-15v-1zm24 6h-29c-.8 0-1.5.7-1.5 1.5v4c0 .8.7 1.5 1.5 1.5h29c.8 0 1.5-.7 1.5-1.5v-4c0-.8-.7-1.5-1.5-1.5zm.5 5.5c0 .3-.2.5-.5.5h-29c-.3 0-.5-.2-.5-.5v-4c0-.3.2-.5.5-.5h29c.3 0 .5.2.5.5v4zM19.5 38c-.8 0-1.5.7-1.5 1.5s.7 1.5 1.5 1.5 1.5-.7 1.5-1.5-.7-1.5-1.5-1.5zm0 2c-.3 0-.5-.2-.5-.5s.2-.5.5-.5.5.2.5.5-.2.5-.5.5zm25-2c-.8 0-1.5.7-1.5 1.5s.7 1.5 1.5 1.5 1.5-.7 1.5-1.5-.7-1.5-1.5-1.5zm0 2c-.3 0-.5-.2-.5-.5s.2-.5.5-.5.5.2.5.5-.2.5-.5.5zm-4-2c-.8 0-1.5.7-1.5 1.5s.7 1.5 1.5 1.5 1.5-.7 1.5-1.5-.7-1.5-1.5-1.5zm0 2c-.3 0-.5-.2-.5-.5s.2-.5.5-.5.5.2.5.5-.2.5-.5.5zm-18-1h15v1h-15v-1zm24 6h-29c-.8 0-1.5.7-1.5 1.5v4c0 .8.7 1.5 1.5 1.5h29c.8 0 1.5-.7 1.5-1.5v-4c0-.8-.7-1.5-1.5-1.5zm.5 5.5c0 .3-.2.5-.5.5h-29c-.3 0-.5-.2-.5-.5v-4c0-.3.2-.5.5-.5h29c.3 0 .5.2.5.5v4zM19.5 47c-.8 0-1.5.7-1.5 1.5s.7 1.5 1.5 1.5 1.5-.7 1.5-1.5-.7-1.5-1.5-1.5zm0 2c-.3 0-.5-.2-.5-.5s.2-.5.5-.5.5.2.5.5-.2.5-.5.5zm25-2c-.8 0-1.5.7-1.5 1.5s.7 1.5 1.5 1.5 1.5-.7 1.5-1.5-.7-1.5-1.5-1.5zm0 2c-.3 0-.5-.2-.5-.5s.2-.5.5-.5.5.2.5.5-.2.5-.5.5zm-4-2c-.8 0-1.5.7-1.5 1.5s.7 1.5 1.5 1.5 1.5-.7 1.5-1.5-.7-1.5-1.5-1.5zm0 2c-.3 0-.5-.2-.5-.5s.2-.5.5-.5.5.2.5.5-.2.5-.5.5zm-18-1h15v1h-15v-1zM21 55h22v1H21v-1zM7.5 18c.8 0 1.5-.7 1.5-1.5S8.3 15 7.5 15 6 15.7 6 16.5 6.7 18 7.5 18zm0-2c.3 0 .5.2.5.5s-.2.5-.5.5-.5-.2-.5-.5.2-.5.5-.5zm0 11c.8 0 1.5-.7 1.5-1.5S8.3 24 7.5 24 6 24.7 6 25.5 6.7 27 7.5 27zm0-2c.3 0 .5.2.5.5s-.2.5-.5.5-.5-.2-.5-.5.2-.5.5-.5zm0 11c.8 0 1.5-.7 1.5-1.5S8.3 33 7.5 33 6 33.7 6 34.5 6.7 36 7.5 36zm0-2c.3 0 .5.2.5.5s-.2.5-.5.5-.5-.2-.5-.5.2-.5.5-.5zm0 11c.8 0 1.5-.7 1.5-1.5S8.3 42 7.5 42 6 42.7 6 43.5 6.7 45 7.5 45zm0-2c.3 0 .5.2.5.5s-.2.5-.5.5-.5-.2-.5-.5.2-.5.5-.5zM63 52.2V8c0-1.1-.9-2-2-2h-9V2c0-1.1-.9-2-2-2H14c-1.1 0-2 .9-2 2v4H3c-1.1 0-2 .9-2 2v44.2c-.6.3-1 .9-1 1.5v1.5c0 1 .9 1.8 1.9 1.8H12v2.3c-.6.4-1 1-1 1.7v1c0 1.1.9 2 2 2h38c1.1 0 2-.9 2-2v-1c0-.7-.4-1.4-1-1.7V57h10c1 .1 1.9-.7 2-1.7v-1.5c0-.7-.4-1.3-1-1.6zM61 8v44h-9v-2h7v-1h-7v-2h6.5c.8 0 1.5-.7 1.5-1.5v-4c0-.8-.7-1.5-1.5-1.5H52v-2h6.5c.8 0 1.5-.7 1.5-1.5v-4c0-.8-.7-1.5-1.5-1.5H52v-2h6.5c.8 0 1.5-.7 1.5-1.5v-4c0-.8-.7-1.5-1.5-1.5H52v-2h6.5c.8 0 1.5-.7 1.5-1.5v-4c0-.8-.7-1.5-1.5-1.5H52v-2h7v-1h-7V8h9zm-9 33h6.5c.3 0 .5.2.5.5v4c0 .3-.2.5-.5.5H52v-5zm0-9h6.5c.3 0 .5.2.5.5v4c0 .3-.2.5-.5.5H52v-5zm0-9h6.5c.3 0 .5.2.5.5v4c0 .3-.2.5-.5.5H52v-5zm0-9h6.5c.3 0 .5.2.5.5v4c0 .3-.2.5-.5.5H52v-5zM14 2h36v57H14V2zm-2 17H5.5c-.3 0-.5-.2-.5-.5v-4c0-.3.2-.5.5-.5H12v5zm0 9H5.5c-.3 0-.5-.2-.5-.5v-4c0-.3.2-.5.5-.5H12v5zm0 9H5.5c-.3 0-.5-.2-.5-.5v-4c0-.3.2-.5.5-.5H12v5zm0 9H5.5c-.3 0-.5-.2-.5-.5v-4c0-.3.2-.5.5-.5H12v5zM3 8h9v2H5v1h7v2H5.5c-.8 0-1.5.7-1.5 1.5v4c0 .8.7 1.5 1.5 1.5H12v2H5.5c-.8 0-1.5.7-1.5 1.5v4c0 .8.7 1.5 1.5 1.5H12v2H5.5c-.8 0-1.5.7-1.5 1.5v4c0 .8.7 1.5 1.5 1.5H12v2H5.5c-.8 0-1.5.7-1.5 1.5v4c0 .8.7 1.5 1.5 1.5H12v2H5v1h7v2H3V8zM2 55v-1h10v1H2zm11 7v-1h38v1H13zm49-7H52v-1h10v1zm-5.5-40c-.8 0-1.5.7-1.5 1.5s.7 1.5 1.5 1.5 1.5-.7 1.5-1.5-.7-1.5-1.5-1.5zm0 2c-.3 0-.5-.2-.5-.5s.2-.5.5-.5.5.2.5.5-.2.5-.5.5zm0 7c-.8 0-1.5.7-1.5 1.5s.7 1.5 1.5 1.5 1.5-.7 1.5-1.5-.7-1.5-1.5-1.5zm0 2c-.3 0-.5-.2-.5-.5s.2-.5.5-.5.5.2.5.5-.2.5-.5.5zm0 7c-.8 0-1.5.7-1.5 1.5s.7 1.5 1.5 1.5 1.5-.7 1.5-1.5-.7-1.5-1.5-1.5zm0 2c-.3 0-.5-.2-.5-.5s.2-.5.5-.5.5.2.5.5-.2.5-.5.5zm0 7c-.8 0-1.5.7-1.5 1.5s.7 1.5 1.5 1.5 1.5-.7 1.5-1.5-.7-1.5-1.5-1.5zm0 2c-.3 0-.5-.2-.5-.5s.2-.5.5-.5.5.2.5.5-.2.5-.5.5z" fill="#05b"/>
</svg>